<svg id="amar" xmlns="http://www.w3.org/2000/svg" xmlns:xlink="http://www.w3.org/1999/xlink" viewBox="0 0 510.13 822.18"><defs><style>.cls-1{fill:none;}.cls-2{clip-path:url(#clip-path);}.cls-3{clip-path:url(#clip-path-2);}</style><clipPath id="clip-path" transform="translate(-631.86 -354.16)"><path class="cls-1" d="M701.29,1150.46s16.36,2.45,28.55,5.32,28.89,4.51,44.59,1.09,17.37-6.14,32.23-6.41,29.73,8.33,51.44,8.33,42.08-8.07,52.77-8.34c0,0,1.28-50.5-34.35-114.2s-16.92-123,13.81-183.1,24.49-108.12-.89-163.08S836.81,586.75,882.31,491c0,0,30.67-62.61,28.7-95.73,0,0-17.51-2.64-23.52-3.87s-26.72-6.69-49.1-1-37.74,5.87-49.76,2.19-30.9-6-47.26-3.42S705.46,395,702,395c0,0,1.33,31.13-32.73,103.75s-21,117.39-4,158.34c0,0,34.7,71,36,107.84s-12.36,70.71-22.71,92.56-35.24,76.17-30.64,115.75,13.94,57.33,25.29,78.08S701.62,1120.15,701.29,1150.46Z"/></clipPath><clipPath id="clip-path-2" transform="translate(-631.86 -354.16)"><path class="cls-1" d="M927.47,1150.46s16.37,2.45,28.56,5.32,28.89,4.51,44.59,1.09,17.36-6.14,32.23-6.41,29.72,8.33,51.43,8.33,42.08-8.07,52.77-8.34c0,0,1.28-50.5-34.34-114.2s-16.93-123,13.8-183.1S1141,745,1115.62,690.07,1063,586.75,1108.5,491c0,0,30.67-62.61,28.69-95.73,0,0-17.51-2.64-23.52-3.87s-26.72-6.69-49.09-1-37.74,5.87-49.77,2.19-30.89-6-47.26-3.42S931.65,395,928.14,395c0,0,1.34,31.13-32.73,103.75s-21,117.39-4,158.34c0,0,34.71,71,36,107.84s-12.35,70.71-22.71,92.56-35.23,76.17-30.64,115.75,13.94,57.33,25.3,78.08S927.81,1120.15,927.47,1150.46Z"/></clipPath><image id="image" width="734" height="1183" xlink:href="../../../../../../elementos%20del%20dise%C3%B1o/web/trabajos/MAKEUP/amarilio.png"/></defs><g class="cls-2"><use transform="scale(0.69)" xlink:href="#image"/></g><g class="cls-3"><use transform="scale(0.69)" xlink:href="#image"/></g></svg>