<svg id="agz" xmlns="http://www.w3.org/2000/svg" xmlns:xlink="http://www.w3.org/1999/xlink" viewBox="0 0 514.03 516.54"><defs><style>.cls-1,.cls-7{fill:none;}.cls-2{clip-path:url(#clip-path);}.cls-3{clip-path:url(#clip-path-2);}.cls-4{clip-path:url(#clip-path-3);}.cls-5{clip-path:url(#clip-path-4);}.cls-6{clip-path:url(#clip-path-5);}.cls-7,.cls-8{stroke:#a0bf38;stroke-miterlimit:10;stroke-width:0.71px;}.cls-8{fill:#a0bf38;}</style><clipPath id="clip-path" transform="translate(-570 -460.1)"><path class="cls-1" d="M1077.27,832.59a68.51,68.51,0,0,0-136.77-5.83c-.16,1.92-.25,3.86-.25,5.83v0c-2.16.08-4.29.27-6.38.55a68.5,68.5,0,0,0,6.21,136.35,9.51,9.51,0,0,0,1.08.06h126.27a9.83,9.83,0,0,0,9.83-9.83V833.5c0-.06,0-.12,0-.18C1077.26,833.07,1077.27,832.83,1077.27,832.59Z"/></clipPath><clipPath id="clip-path-2" transform="translate(-570 -460.1)"><path class="cls-1" d="M765.2,520.41a9.51,9.51,0,0,0-1.08-.06H637.85a9.83,9.83,0,0,0-9.83,9.83V656.45c0,.06,0,.12,0,.19,0,.24,0,.48,0,.73a68.5,68.5,0,0,0,136.76,5.82q.26-2.88.25-5.82v-.06q2.93-.1,5.77-.47a68.5,68.5,0,0,0-5.6-136.43Z"/></clipPath><clipPath id="clip-path-3" transform="translate(-570 -460.1)"><path class="cls-1" d="M1067.44,520.35H940.25a68.51,68.51,0,0,0-6,136.75c2,.17,4,.27,6,.27h.06q.11,2.92.47,5.77a68.5,68.5,0,0,0,136.43-5.6,9.51,9.51,0,0,0,.06-1.08V530.18A9.83,9.83,0,0,0,1067.44,520.35Z"/></clipPath><clipPath id="clip-path-4" transform="translate(-570 -460.1)"><path class="cls-1" d="M771.06,832.85q-3-.26-6-.26h0q-.12-2.93-.47-5.77a68.5,68.5,0,0,0-136.43,5.6,9.51,9.51,0,0,0-.06,1.08V959.77a9.83,9.83,0,0,0,9.83,9.83H765a68.51,68.51,0,0,0,6-136.75Z"/></clipPath><clipPath id="clip-path-5" transform="translate(-570 -460.1)"><path class="cls-1" d="M1055,714.06c-11.43,9.35-27.68,17.05-49.69,15.76l-.36,0h-.22l-.17,0a74.19,74.19,0,0,1-11.42-1.55l-.45-.1-.83-.19a71.22,71.22,0,0,1-35.6-19.79,74.85,74.85,0,0,1-17-25.92c-3.2-7.81-4.61-14.76-4.63-19.08,0,0-52.71-2.41-66.3-53.78a.36.36,0,0,1,0-.1,74.47,74.47,0,0,1-2.93-18.94,68.2,68.2,0,0,1,6.73-33,75,75,0,0,1,34.47-35.72c.72-.43,1.43-.85,2.12-1.24H793.62s1,.4,2.57,1.23A75,75,0,0,1,816,535.9c10.21,10,20.3,25.18,21.39,46.69h0q.23,2.91.23,5.87a74.81,74.81,0,0,1-3.41,22.38c-7.09,24-25,41.24-47.81,48.58a74.64,74.64,0,0,1-15.46,3.35h-.09s-3.09,62.78-66.3,68.8h0a75.77,75.77,0,0,1-8.44.48q-3,0-5.88-.23c-46.31-3-62.17-43.3-62.17-43.3V804.48c.1-.24.21-.47.31-.71l.55-1.17A74.67,74.67,0,0,1,640,785.71c10.86-12.84,29.74-27.26,59.11-25.67,1,.06,1.94.13,2.9.22a74.37,74.37,0,0,1,18.9,3.91l1.14.41h0c31.36,11.19,48.24,40.28,49,62.46l.17,0a74.29,74.29,0,0,1,38.87,14.76c12.34,8.67,23.88,22.36,28.12,43.87a74.74,74.74,0,0,1,1.69,15.86c.75,31.26-16.84,50.15-30,59.84l-.37.27-.4.29q-2.88,2.1-6,3.93l-.71.42-.15.09a55.55,55.55,0,0,1-6.26,3.21H911.06l-.14-.06c-2.21-.89-28.15-11.94-39.19-42.13A73.46,73.46,0,0,1,868.32,915l0-.13v-.05l0-.19a71.31,71.31,0,0,1,1.18-31.69A74.82,74.82,0,0,1,891.77,846c1.28-1.19,2.28-2,2.85-2.45l0,0a75.28,75.28,0,0,1,13.52-8.77c7.68-4.21,17.27-8.12,25.89-7.6a54.53,54.53,0,0,1,1-7.74h0l.06-.33A74.85,74.85,0,0,1,940,803a70.54,70.54,0,0,1,19.64-26.81,74.44,74.44,0,0,1,49-18.3s45.7-2.31,67.1,41.8c.16.33.32.65.47,1l.19.4c.29.63.57,1.25.85,1.89l0,.11V685.47A75,75,0,0,1,1055,714.06Z"/></clipPath><image id="image" width="1319" height="1319" xlink:href="../../../../../../elementos%20del%20dise%C3%B1o/web/trabajos/MAKEUP/carabassa.png"/></defs><g id="carabassa"><g class="cls-2"><use transform="translate(0 0) scale(0.39)" xlink:href="#image"/></g><g class="cls-3"><use transform="translate(0) scale(0.39)" xlink:href="#image"/></g><g class="cls-4"><use transform="translate(0 0) scale(0.39)" xlink:href="#image"/></g><g class="cls-5"><use transform="translate(0 0) scale(0.39)" xlink:href="#image"/></g><g class="cls-6"><use transform="translate(0 0) scale(0.39)" xlink:href="#image"/></g><path class="cls-1" d="M993.09,728.22l-.45-.1Z" transform="translate(-570 -460.1)"/><path class="cls-1" d="M837.35,582.59c-1.09-21.51-11.18-36.7-21.39-46.69a74.56,74.56,0,0,1,21.39,46.7Z" transform="translate(-570 -460.1)"/><path class="cls-1" d="M809.62,961.66l-.4.29Z" transform="translate(-570 -460.1)"/><path class="cls-1" d="M908.18,834.74a74.25,74.25,0,0,1,25.89-7.6,73,73,0,0,1,1-7.74,54.53,54.53,0,0,0-1,7.74C925.45,826.62,915.86,830.53,908.18,834.74Z" transform="translate(-570 -460.1)"/><path class="cls-1" d="M1008.61,757.89a74.73,74.73,0,0,1,67.1,41.8C1054.31,755.58,1008.61,757.89,1008.61,757.89Z" transform="translate(-570 -460.1)"/><path class="cls-1" d="M940,803a75,75,0,0,1,19.64-26.81A70.54,70.54,0,0,0,940,803Z" transform="translate(-570 -460.1)"/><path class="cls-1" d="M838.25,885.69c-4.24-21.51-15.78-35.2-28.12-43.87A74.75,74.75,0,0,1,838.25,885.69Z" transform="translate(-570 -460.1)"/><path class="cls-1" d="M810,961.39c13.11-9.69,30.7-28.58,30-59.84A74.63,74.63,0,0,1,810,961.39Z" transform="translate(-570 -460.1)"/><path class="cls-1" d="M1004.68,729.79h.22l-.39,0Z" transform="translate(-570 -460.1)"/><path class="cls-1" d="M704.51,731.59h0c63.21-6,66.3-68.8,66.3-68.8h.09l-.29,0A74.77,74.77,0,0,1,704.51,731.59Z" transform="translate(-570 -460.1)"/><path class="cls-1" d="M628.33,803.77c.18-.39.36-.78.55-1.17Z" transform="translate(-570 -460.1)"/><path class="cls-1" d="M786.36,659.43c22.8-7.34,40.72-24.57,47.81-48.58A74.91,74.91,0,0,1,786.36,659.43Z" transform="translate(-570 -460.1)"/><path class="cls-1" d="M991.81,727.93a74.63,74.63,0,0,1-35.6-19.79A71.22,71.22,0,0,0,991.81,727.93Z" transform="translate(-570 -460.1)"/><path class="cls-1" d="M1005.26,729.82c22,1.29,38.26-6.41,49.69-15.76a74.38,74.38,0,0,1-46,15.85C1007.7,729.91,1006.48,729.88,1005.26,729.82Z" transform="translate(-570 -460.1)"/><path class="cls-1" d="M868.3,609.26a.36.36,0,0,0,0,.1c13.59,51.37,66.3,53.78,66.3,53.78,0,4.32,1.43,11.27,4.63,19.08a74.16,74.16,0,0,1-4.65-19.28A74.77,74.77,0,0,1,868.3,609.26Z" transform="translate(-570 -460.1)"/><path class="cls-1" d="M872.1,557.31a68.2,68.2,0,0,0-6.73,33q0-1,0-1.92A74.59,74.59,0,0,1,872.1,557.31Z" transform="translate(-570 -460.1)"/><path class="cls-1" d="M720.9,764.17l1.14.41Z" transform="translate(-570 -460.1)"/><path class="cls-1" d="M803.26,965.88l-.71.42Z" transform="translate(-570 -460.1)"/><path class="cls-1" d="M935.1,819.06l-.06.33Z" transform="translate(-570 -460.1)"/><path class="cls-1" d="M910.92,969.54a75,75,0,0,1-39.19-42.13C882.77,957.6,908.71,968.65,910.92,969.54Z" transform="translate(-570 -460.1)"/><path class="cls-1" d="M1076.37,801.07l-.19-.4C1076.25,800.8,1076.31,800.94,1076.37,801.07Z" transform="translate(-570 -460.1)"/><path class="cls-1" d="M868.25,914.58a75.27,75.27,0,0,1,1.18-31.69A71.31,71.31,0,0,0,868.25,914.58Z" transform="translate(-570 -460.1)"/><path class="cls-1" d="M696.35,760c1.9,0,3.79.08,5.65.22-1-.09-1.92-.16-2.9-.22-29.37-1.59-48.25,12.83-59.11,25.67A74.54,74.54,0,0,1,696.35,760Z" transform="translate(-570 -460.1)"/><path class="cls-1" d="M770.69,827l.57,0-.17,0c-.8-22.18-17.68-51.27-49-62.46A74.82,74.82,0,0,1,770.69,827Z" transform="translate(-570 -460.1)"/><path class="cls-1" d="M891.77,846c.94-.85,1.91-1.67,2.89-2.48l0,0C894.05,844,893.05,844.8,891.77,846Z" transform="translate(-570 -460.1)"/><path class="cls-1" d="M868.32,915a1.16,1.16,0,0,1,0-.18v.05Z" transform="translate(-570 -460.1)"/><path class="cls-7" d="M1077.22,803c-.28-.64-.56-1.27-.85-1.89-.06-.13-.12-.27-.19-.4-.15-.33-.31-.65-.47-1a74.73,74.73,0,0,0-67.1-41.8c-22.38,1.85-38,9.12-49,18.3A75,75,0,0,0,940,803a80.32,80.32,0,0,0-4.87,16.06l-.06.33h0a73,73,0,0,0-1,7.74c2.12-.22,4.27-.34,6.43-.38a68.51,68.51,0,0,1,136.77,5.83c0,.24,0,.48,0,.73,0,.06,0,.12,0,.18v28.67a74.95,74.95,0,0,0,0-59.21Z" transform="translate(-570 -460.1)"/><path class="cls-7" d="M940.09,969.54a68.5,68.5,0,0,1-6.21-136.35c0-.19,0-.38,0-.57,0-1.84.07-3.67.2-5.48a74.25,74.25,0,0,0-25.89,7.6,114.57,114.57,0,0,0-13.52,8.77c-1,.81-1.95,1.63-2.89,2.48a80.82,80.82,0,0,0-22.34,36.9,75.27,75.27,0,0,0-1.18,31.69l0,.19a1.16,1.16,0,0,0,0,.18,77.76,77.76,0,0,0,3.41,12.46,75,75,0,0,0,39.19,42.13l.16.06h0a74.87,74.87,0,0,0,61.56,0H941.17A9.51,9.51,0,0,1,940.09,969.54Z" transform="translate(-570 -460.1)"/><path class="cls-7" d="M933.88,833.19c2.09-.28,4.22-.47,6.38-.55v0c0-2,.09-3.91.25-5.83-2.16,0-4.31.16-6.43.38-.13,1.81-.2,3.64-.2,5.48C933.87,832.81,933.87,833,933.88,833.19Z" transform="translate(-570 -460.1)"/><path class="cls-7" d="M704.51,731.59a74.77,74.77,0,0,0,66.1-68.78q-2.88.3-5.83.38A68.5,68.5,0,0,1,628,657.37c0-.25,0-.49,0-.73,0-.07,0-.13,0-.19V626.4a74.76,74.76,0,0,0,62.17,105.44A91.25,91.25,0,0,0,704.51,731.59Z" transform="translate(-570 -460.1)"/><path class="cls-7" d="M765.2,520.41a68.5,68.5,0,0,1,5.6,136.43c0,.16,0,.33,0,.49,0,1.84-.07,3.67-.2,5.48l.29,0a81.73,81.73,0,0,0,15.46-3.35,74.91,74.91,0,0,0,47.81-48.58,84.73,84.73,0,0,0,3.18-28.25A74.56,74.56,0,0,0,816,535.9a83.86,83.86,0,0,0-19.77-14.32,74.91,74.91,0,0,0-64.13-1.23h32.06A9.51,9.51,0,0,1,765.2,520.41Z" transform="translate(-570 -460.1)"/><path class="cls-7" d="M770.8,656.84q-2.85.36-5.77.47v.06q0,2.94-.25,5.82,3-.08,5.83-.38c.13-1.81.2-3.64.2-5.48C770.81,657.17,770.8,657,770.8,656.84Z" transform="translate(-570 -460.1)"/><path class="cls-7" d="M872.1,557.31a74.59,74.59,0,0,0-6.76,31.09q0,1,0,1.92a87.6,87.6,0,0,0,2.93,18.94,74.77,74.77,0,0,0,66.3,53.68c-.2-1.93-.33-3.87-.38-5.84a68.51,68.51,0,0,1,6-136.75H971a74.9,74.9,0,0,0-64.44,1.24C895.25,528.36,880.56,539.91,872.1,557.31Z" transform="translate(-570 -460.1)"/><path class="cls-7" d="M1077.21,657.53a68.5,68.5,0,0,1-136.43,5.6h-.7c-1.84,0-3.67-.07-5.48-.2a74.16,74.16,0,0,0,4.65,19.28,81.37,81.37,0,0,0,17,25.92,74.63,74.63,0,0,0,35.6,19.79l.83.19.45.1a83.68,83.68,0,0,0,11.42,1.55l.39,0,.36,0c1.22.06,2.44.09,3.68.09a74.38,74.38,0,0,0,46-15.85,82.57,82.57,0,0,0,22.32-28.76v.17a74.93,74.93,0,0,0,0-60.6v31.58A9.51,9.51,0,0,1,1077.21,657.53Z" transform="translate(-570 -460.1)"/><path class="cls-7" d="M940.78,663.13q-.36-2.85-.47-5.77h-.06c-2,0-4-.1-6-.27,0,2,.18,3.91.38,5.84,1.81.13,3.64.2,5.48.2Z" transform="translate(-570 -460.1)"/><path class="cls-7" d="M803.26,965.88c1.78-1.06,3.8-2.37,6-3.93l.4-.29.37-.27a74.63,74.63,0,0,0,30-59.84,92.91,92.91,0,0,0-1.69-15.86,74.75,74.75,0,0,0-28.12-43.87,88.43,88.43,0,0,0-38.87-14.76l-.57,0q.3,2.9.37,5.84a68.51,68.51,0,0,1-6,136.75H734.27a74.84,74.84,0,0,0,68.13-3.21l.15-.09Z" transform="translate(-570 -460.1)"/><path class="cls-7" d="M628.08,832.42a68.5,68.5,0,0,1,136.43-5.6h.7c1.84,0,3.67.07,5.48.2a74.82,74.82,0,0,0-48.64-62.43h0l-1.14-.41a80.56,80.56,0,0,0-18.9-3.91c-1.86-.14-3.75-.22-5.65-.22A74.54,74.54,0,0,0,640,785.71a81.91,81.91,0,0,0-11.11,16.89c-.19.39-.37.78-.55,1.17s-.31.73-.31.73v0a74.82,74.82,0,0,0,0,60.6V833.5A9.51,9.51,0,0,1,628.08,832.42Z" transform="translate(-570 -460.1)"/><path class="cls-7" d="M764.51,826.82q.35,2.85.47,5.77h0q3.06,0,6,.26-.07-2.94-.37-5.84c-1.81-.13-3.64-.2-5.48-.2Z" transform="translate(-570 -460.1)"/><path class="cls-8" d="M935,819.39h0Z" transform="translate(-570 -460.1)"/><path class="cls-8" d="M1077.22,803c-.28-.64-.56-1.26-.85-1.89C1076.66,801.69,1076.94,802.32,1077.22,803Z" transform="translate(-570 -460.1)"/><path class="cls-8" d="M1076.18,800.67c-.15-.33-.31-.65-.47-1C1075.87,800,1076,800.34,1076.18,800.67Z" transform="translate(-570 -460.1)"/><path class="cls-8" d="M1008.61,757.89a74.44,74.44,0,0,0-49,18.3C970.57,767,986.23,759.74,1008.61,757.89Z" transform="translate(-570 -460.1)"/><path class="cls-8" d="M940,803a74.85,74.85,0,0,0-4.87,16.06A80.32,80.32,0,0,1,940,803Z" transform="translate(-570 -460.1)"/><path class="cls-8" d="M869.43,882.89A80.82,80.82,0,0,1,891.77,846,74.82,74.82,0,0,0,869.43,882.89Z" transform="translate(-570 -460.1)"/><path class="cls-8" d="M910.92,969.54l.14.06h0Z" transform="translate(-570 -460.1)"/><path class="cls-8" d="M868.25,914.58l0,.19Z" transform="translate(-570 -460.1)"/><path class="cls-8" d="M868.32,915a73.46,73.46,0,0,0,3.41,12.46A77.76,77.76,0,0,1,868.32,915Z" transform="translate(-570 -460.1)"/><path class="cls-8" d="M908.18,834.74a75.28,75.28,0,0,0-13.52,8.77A114.57,114.57,0,0,1,908.18,834.74Z" transform="translate(-570 -460.1)"/><path class="cls-8" d="M704.51,731.59a91.25,91.25,0,0,1-14.32.25q2.91.23,5.88.23A75.77,75.77,0,0,0,704.51,731.59Z" transform="translate(-570 -460.1)"/><path class="cls-8" d="M796.19,521.58A83.86,83.86,0,0,1,816,535.9,75,75,0,0,0,796.19,521.58Z" transform="translate(-570 -460.1)"/><path class="cls-8" d="M786.36,659.43a81.73,81.73,0,0,1-15.46,3.35A74.64,74.64,0,0,0,786.36,659.43Z" transform="translate(-570 -460.1)"/><path class="cls-8" d="M834.17,610.85a74.81,74.81,0,0,0,3.41-22.38q0-3-.23-5.87A84.73,84.73,0,0,1,834.17,610.85Z" transform="translate(-570 -460.1)"/><path class="cls-8" d="M868.3,609.26a87.6,87.6,0,0,1-2.93-18.94A74.47,74.47,0,0,0,868.3,609.26Z" transform="translate(-570 -460.1)"/><path class="cls-8" d="M872.1,557.31c8.46-17.4,23.15-28.95,34.47-35.72A75,75,0,0,0,872.1,557.31Z" transform="translate(-570 -460.1)"/><path class="cls-8" d="M1055,714.06a75,75,0,0,0,22.32-28.59v-.17A82.57,82.57,0,0,1,1055,714.06Z" transform="translate(-570 -460.1)"/><path class="cls-8" d="M956.21,708.14a81.37,81.37,0,0,1-17-25.92A74.85,74.85,0,0,0,956.21,708.14Z" transform="translate(-570 -460.1)"/><path class="cls-8" d="M1005.26,729.82l-.36,0Z" transform="translate(-570 -460.1)"/><path class="cls-8" d="M1004.51,729.77a83.68,83.68,0,0,1-11.42-1.55A74.19,74.19,0,0,0,1004.51,729.77Z" transform="translate(-570 -460.1)"/><path class="cls-8" d="M992.64,728.12l-.83-.19Z" transform="translate(-570 -460.1)"/><path class="cls-8" d="M810,961.39l-.37.27Z" transform="translate(-570 -460.1)"/><path class="cls-8" d="M838.25,885.69a92.91,92.91,0,0,1,1.69,15.86A74.74,74.74,0,0,0,838.25,885.69Z" transform="translate(-570 -460.1)"/><path class="cls-8" d="M809.22,962c-2.16,1.56-4.18,2.87-6,3.93Q806.33,964.05,809.22,962Z" transform="translate(-570 -460.1)"/><path class="cls-8" d="M771.26,827.06a88.43,88.43,0,0,1,38.87,14.76A74.29,74.29,0,0,0,771.26,827.06Z" transform="translate(-570 -460.1)"/><path class="cls-8" d="M802.4,966.39l.15-.09Z" transform="translate(-570 -460.1)"/><path class="cls-8" d="M722,764.58h0Z" transform="translate(-570 -460.1)"/><path class="cls-8" d="M628.33,803.77c-.1.24-.21.47-.31.71v0S628.12,804.24,628.33,803.77Z" transform="translate(-570 -460.1)"/><path class="cls-8" d="M628.88,802.6A81.91,81.91,0,0,1,640,785.71,74.67,74.67,0,0,0,628.88,802.6Z" transform="translate(-570 -460.1)"/><path class="cls-8" d="M702,760.26a80.56,80.56,0,0,1,18.9,3.91A74.37,74.37,0,0,0,702,760.26Z" transform="translate(-570 -460.1)"/></g></svg>