<svg id="ojos_oven" data-name="ojos oven" xmlns="http://www.w3.org/2000/svg" xmlns:xlink="http://www.w3.org/1999/xlink" viewBox="0 0 583.63 679.95"><defs><style>.cls-1{fill:none;}.cls-2{clip-path:url(#clip-path);}.cls-3{clip-path:url(#clip-path-2);}.cls-4{clip-path:url(#clip-path-3);}.cls-5{clip-path:url(#clip-path-4);}.cls-6{clip-path:url(#clip-path-5);}.cls-7{clip-path:url(#clip-path-6);}.cls-8{clip-path:url(#clip-path-7);}.cls-9{clip-path:url(#clip-path-8);}</style><clipPath id="clip-path" transform="translate(-324.44 -444.58)"><path class="cls-1" d="M542.49,664.54H354.24c-11.73,0-21.24-10.31-21.24-23V472.73c0-12.72,9.51-23,21.24-23H648.83c11.73,0,23.31,10.71,23.31,23.42v16.72C672.14,625.59,657.37,664.54,542.49,664.54Z"/></clipPath><clipPath id="clip-path-2" transform="translate(-324.44 -444.58)"><circle class="cls-1" cx="500.85" cy="854.82" r="171.29"/></clipPath><clipPath id="clip-path-3" transform="translate(-324.44 -444.58)"><path class="cls-1" d="M337.44,963.81v135.61c0,9.59,7.49,17.36,16.73,17.36H725.54c9.24,0,16.73-7.77,16.73-17.36V979.83c0-9.59-7.49-17.36-16.73-17.36H654.9c-5.4,0-9.65,3.43-13.61,7.25-9.35,9-18.28,22.8-41.44,36.47-122,72-217.11-8-251-47.47C344.92,954.12,337.44,957.64,337.44,963.81Z"/></clipPath><clipPath id="clip-path-4" transform="translate(-324.44 -444.58)"><ellipse class="cls-1" cx="724.99" cy="542.41" rx="31.36" ry="92.71"/></clipPath><clipPath id="clip-path-5" transform="translate(-324.44 -444.58)"><ellipse class="cls-1" cx="792.39" cy="559.74" rx="31.36" ry="92.71"/></clipPath><clipPath id="clip-path-6" transform="translate(-324.44 -444.58)"><path class="cls-1" d="M694.92,932.06s-3.52-43-3.14-68.32c2.1-138.08,3.57-185.84,180.14-175.89,13.16.74,19.22,9.55,19.22,20.41v391.4a17.07,17.07,0,0,1-17,17.12H771.3a17.08,17.08,0,0,1-17-17.13V968.27a17.09,17.09,0,0,0-16.84-17.14l-25.68-1.94A17.08,17.08,0,0,1,694.92,932.06Z"/></clipPath><clipPath id="clip-path-7" transform="translate(-324.44 -444.58)"><ellipse class="cls-1" cx="859.78" cy="577.06" rx="31.36" ry="92.71"/></clipPath><clipPath id="clip-path-8" transform="translate(-324.44 -444.58)"><path class="cls-1" d="M682.64,450.34s.32,99.88,4.61,126c0,0,4.28,41.58,18.64,61.94s40.3,33.44,113.6,35.69,88.58,1.75,88.58,1.75l-8.44.16c-25.1.19-95.88,1.24-117.25,4.74,0,0-41.58,4.29-61.94,18.65S687,739.59,684.75,812.9s-2.24,86.64-2.24,86.64l0,3.35-.16-.15s-.32-99.88-4.61-126c0,0-4.29-41.58-18.65-61.94s-40.29-33.44-113.6-35.69-88.57-1.74-88.57-1.74l.29-.05s99.88-.32,126-4.61c0,0,41.58-4.29,61.95-18.65s33.43-40.29,35.68-113.6,1.8-88.58,1.8-88.58Z"/></clipPath><image id="image" width="3472" height="4045" xlink:href="../../../../../../elementos%20del%20dise%C3%B1o/web/trabajos/MAKEUP/ojitos.jpg"/></defs><g id="ojitos"><g class="cls-2"><use transform="translate(0 0) scale(0.17)" xlink:href="#image"/></g><g class="cls-3"><use transform="translate(0 0) scale(0.17)" xlink:href="#image"/></g><g class="cls-4"><use transform="translate(0 0) scale(0.17)" xlink:href="#image"/></g><g class="cls-5"><use transform="translate(0 0) scale(0.17)" xlink:href="#image"/></g><g class="cls-6"><use transform="translate(0 0) scale(0.17)" xlink:href="#image"/></g><g class="cls-7"><use transform="translate(0 0) scale(0.17)" xlink:href="#image"/></g><g class="cls-8"><use transform="scale(0.17)" xlink:href="#image"/></g><g class="cls-9"><use transform="translate(0 0) scale(0.17)" xlink:href="#image"/></g></g></svg>