<svg id="corazones" xmlns="http://www.w3.org/2000/svg" xmlns:xlink="http://www.w3.org/1999/xlink" viewBox="0 0 540.51 960.91"><defs><style>.cls-1{fill:none;}.cls-2{clip-path:url(#clip-path);}.cls-3{clip-path:url(#clip-path-2);}.cls-4{clip-path:url(#clip-path-3);}.cls-5{clip-path:url(#clip-path-4);}.cls-6{clip-path:url(#clip-path-5);}.cls-7{clip-path:url(#clip-path-6);}.cls-8{clip-path:url(#clip-path-7);}.cls-9{clip-path:url(#clip-path-8);}</style><clipPath id="clip-path" transform="translate(-688.85 -398.09)"><path class="cls-1" d="M1161.73,673.68c0-48.23-38.25-87.32-85.44-87.32-31.58,0-59.16,17.51-73.95,43.54-14.79-26-42.36-43.54-73.94-43.54-47.19,0-85.44,39.09-85.44,87.32,0,.3,0,.61,0,.91-1.45,32.15,16.71,75.76,50.45,114.11,29.05,33,63.11,54.71,92.08,61.34a66.27,66.27,0,0,0,33.41,0c29-6.63,63-28.33,92.08-61.34,31.84-36.2,49.81-77.07,50.51-108.58Q1161.73,676.93,1161.73,673.68Z"/></clipPath><clipPath id="clip-path-2" transform="translate(-688.85 -398.09)"><path class="cls-1" d="M688.85,973.82c0,48.23,38.25,87.32,85.44,87.32,31.58,0,59.16-17.51,74-43.55,14.79,26,42.36,43.55,73.94,43.55,47.19,0,85.45-39.09,85.45-87.32,0-.3,0-.61,0-.91,1.45-32.15-16.71-75.76-50.45-114.11-29-33-63.11-54.71-92.08-61.34a66.27,66.27,0,0,0-33.41,0c-29,6.63-63,28.33-92.08,61.34-31.84,36.19-49.81,77.07-50.51,108.58C688.93,969.51,688.85,971.65,688.85,973.82Z"/></clipPath><clipPath id="clip-path-3" transform="translate(-688.85 -398.09)"><ellipse class="cls-1" cx="1059.77" cy="901.87" rx="57.46" ry="55.79"/></clipPath><clipPath id="clip-path-4" transform="translate(-688.85 -398.09)"><ellipse class="cls-1" cx="1125.76" cy="831.73" rx="30.97" ry="30.07"/></clipPath><clipPath id="clip-path-5" transform="translate(-688.85 -398.09)"><ellipse class="cls-1" cx="1142.16" cy="896.5" rx="10.12" ry="9.82"/></clipPath><clipPath id="clip-path-6" transform="translate(-688.85 -398.09)"><ellipse class="cls-1" cx="1117.23" cy="1000.39" rx="44.01" ry="42.73"/></clipPath><clipPath id="clip-path-7" transform="translate(-688.85 -398.09)"><ellipse class="cls-1" cx="1050.82" cy="985.13" rx="15.71" ry="15.25"/></clipPath><clipPath id="clip-path-8" transform="translate(-688.85 -398.09)"><path class="cls-1" d="M837.94,650.18a41.35,41.35,0,0,0-5.27-31.24A40.67,40.67,0,0,0,811.08,602c-28.28-9.81-115.14,19.61-87.53,85.64S702,759.57,693.92,791s31.33,61.2,86.55,22.62c0,0,33-21.61,58.65-26.73,23.92-4.77,22.91-27.71,15.06-42.31C843.12,724,827.7,695.65,837.94,650.18Z"/></clipPath><image id="image" width="1350" height="2400" xlink:href="../../../../../../elementos%20del%20dise%C3%B1o/web/trabajos/MAKEUP/vinilo%20black.png"/></defs><g class="cls-2"><use transform="scale(0.4)" xlink:href="#image"/></g><g class="cls-3"><use transform="scale(0.4)" xlink:href="#image"/></g><g class="cls-4"><use transform="scale(0.4)" xlink:href="#image"/></g><g class="cls-5"><use transform="scale(0.4)" xlink:href="#image"/></g><g class="cls-6"><use transform="scale(0.4)" xlink:href="#image"/></g><g class="cls-7"><use transform="scale(0.4)" xlink:href="#image"/></g><g class="cls-8"><use transform="scale(0.4)" xlink:href="#image"/></g><g class="cls-9"><use transform="scale(0.4)" xlink:href="#image"/></g></svg>