<svg id="makeup_yung" data-name="makeup yung" xmlns="http://www.w3.org/2000/svg" xmlns:xlink="http://www.w3.org/1999/xlink" viewBox="0 0 652.91 366.1"><defs><style>.cls-1,.cls-11,.cls-4{fill:none;}.cls-1,.cls-2{stroke:blue;}.cls-1,.cls-11,.cls-2,.cls-4{stroke-miterlimit:10;}.cls-2,.cls-3{fill:blue;}.cls-4{stroke:#ffec00;stroke-width:1.5px;}.cls-5{fill:url(#Degradado_sin_nombre_51);}.cls-6{fill:url(#Degradado_sin_nombre_57);}.cls-7{fill:url(#Degradado_sin_nombre_65);}.cls-8{fill:url(#Degradado_sin_nombre_70);}.cls-9{fill:url(#Degradado_sin_nombre_98);}.cls-10{fill:url(#Degradado_sin_nombre_127);}.cls-11{stroke-width:3px;stroke:url(#Degradado_sin_nombre_12);}</style><radialGradient id="Degradado_sin_nombre_51" cx="47.34" cy="47.34" r="47.34" gradientUnits="userSpaceOnUse"><stop offset="0" stop-color="#c52170"/><stop offset="0.89" stop-color="#f9e6ef"/><stop offset="1" stop-color="#fff"/></radialGradient><radialGradient id="Degradado_sin_nombre_57" cx="619.71" cy="256.37" r="33.2" gradientUnits="userSpaceOnUse"><stop offset="0" stop-color="#db8f1b"/><stop offset="0.87" stop-color="#faf0e0"/><stop offset="1" stop-color="#fff"/></radialGradient><radialGradient id="Degradado_sin_nombre_65" cx="289.92" cy="154.79" r="23.67" gradientUnits="userSpaceOnUse"><stop offset="0" stop-color="#68a7dd"/><stop offset="1" stop-color="#fff"/></radialGradient><radialGradient id="Degradado_sin_nombre_70" cx="409.7" cy="94.69" r="31.37" gradientUnits="userSpaceOnUse"><stop offset="0" stop-color="#b39fc9"/><stop offset="1" stop-color="#fff"/></radialGradient><radialGradient id="Degradado_sin_nombre_98" cx="507.63" cy="207.83" r="15.68" gradientUnits="userSpaceOnUse"><stop offset="0" stop-color="#b4d4c3"/><stop offset="1" stop-color="#fff"/></radialGradient><radialGradient id="Degradado_sin_nombre_127" cx="179.9" cy="115.22" r="19.21" gradientUnits="userSpaceOnUse"><stop offset="0" stop-color="#f7e089"/><stop offset="1" stop-color="#fff"/></radialGradient><linearGradient id="Degradado_sin_nombre_12" x1="69.55" y1="902.85" x2="692.99" y2="902.85" gradientUnits="userSpaceOnUse"><stop offset="0" stop-color="#c52170"/><stop offset="1" stop-color="#f7e93a"/></linearGradient></defs><path class="cls-1" d="M251.94,911.47s85.79-83.75,200.17-74.56S605.3,937,605.3,937s-55.66-5.87-70.21,0-110,75.57-271.24-18.21l-11.91-7.32" transform="translate(-59.88 -646.96)"/><path class="cls-2" d="M507.7,849.18a151.5,151.5,0,0,0-46.51-16.35c-92.37-15.92-125.51,9.19-223.55,1s-158.3-35.74-158.3-35.74,81.71,87.83,172.6,113.36C251.94,911.47,369.94,798.46,507.7,849.18Z" transform="translate(-59.88 -646.96)"/><path class="cls-1" d="M270.11,896.22S337,953.44,431.68,947.47s88.33-25,138.89-12.88c0,0-6.12-1.42-1.78-10.87s5.87-7.49,8.09-14.47,6.31-6.2,6.31-6.2" transform="translate(-59.88 -646.96)"/><path class="cls-1" d="M496.94,845.71a75.9,75.9,0,0,1-33.89,99.1" transform="translate(-59.88 -646.96)"/><path class="cls-1" d="M398,947.14a75.91,75.91,0,0,1-40.17-98.26" transform="translate(-59.88 -646.96)"/><circle class="cls-2" cx="368.74" cy="230.7" r="25.67"/><circle class="cls-3" cx="378.33" cy="251.05" r="18.57"/><circle class="cls-4" cx="378.33" cy="251.05" r="18.57"/><circle class="cls-3" cx="352.88" cy="216.82" r="8.09"/><circle class="cls-4" cx="352.88" cy="216.82" r="8.09"/><path class="cls-1" d="M206,798.11s50.36,1.72,113.36-15.32c93.42-25.28,272.68,1,315.58,150.12" transform="translate(-59.88 -646.96)"/><circle class="cls-5" cx="47.34" cy="47.34" r="47.34"/><circle class="cls-6" cx="619.71" cy="256.37" r="33.2"/><circle class="cls-7" cx="289.92" cy="154.79" r="23.67"/><circle class="cls-8" cx="409.7" cy="94.69" r="31.37"/><circle class="cls-9" cx="507.63" cy="207.83" r="15.68"/><circle class="cls-10" cx="179.9" cy="115.22" r="19.21"/><path class="cls-11" d="M75.79,801.69s76.26,83.4,161,112c5.85,2,10.79,2.82,16,6.12,24.07,15.27,85.79,53.77,168.51,55,69.45,1,112-28.08,112-28.08s8.35-4.61,26.9-3.41c23.85,1.55,72.51,2.39,132.25,24.34,0,0-71.83-11.8-116.93,3.35,0,0-11.92,5-19.41,8.4a259.67,259.67,0,0,1-48.68,16.34c-21.79,4.77-39.56,13.74-108.59,15.83,0,0-83.07-2.21-162-42.38C236.81,969.18,126.17,901.59,75.79,801.69Z" transform="translate(-59.88 -646.96)"/></svg>