<svg xmlns="http://www.w3.org/2000/svg" xmlns:xlink="http://www.w3.org/1999/xlink" viewBox="0 0 551.95 365.6"><defs><style>.cls-1,.cls-22,.cls-23,.cls-5,.cls-7,.cls-9{fill:none;}.cls-2{clip-path:url(#clip-path);}.cls-3{fill:url(#Degradado_sin_nombre_15);}.cls-4{clip-path:url(#clip-path-2);}.cls-22,.cls-23,.cls-5,.cls-9{stroke:#0000f9;}.cls-22,.cls-23,.cls-5,.cls-7,.cls-9{stroke-miterlimit:10;}.cls-5,.cls-7{stroke-width:0.83px;}.cls-6{fill:#0000f9;}.cls-7{stroke:#da00f9;}.cls-8{fill:#f9eb37;}.cls-9{stroke-width:1.66px;}.cls-10{clip-path:url(#clip-path-3);}.cls-11{fill:url(#Degradado_sin_nombre_14);}.cls-12{clip-path:url(#clip-path-4);}.cls-13{fill:url(#Degradado_sin_nombre_9);}.cls-14{clip-path:url(#clip-path-5);}.cls-15{fill:url(#Degradado_sin_nombre_10);}.cls-16{clip-path:url(#clip-path-6);}.cls-17{fill:url(#Degradado_sin_nombre_11);}.cls-18{clip-path:url(#clip-path-7);}.cls-19{fill:url(#Degradado_sin_nombre_8);}.cls-20{clip-path:url(#clip-path-8);}.cls-21{fill:url(#Degradado_sin_nombre_13);}.cls-23{stroke-width:2.76px;}</style><clipPath id="clip-path" transform="translate(-259.33 -255.77)"><path class="cls-1" d="M543.38,619.3c-3.32-.11-58.46-2.38-110.85-29l-.18-.11a362.15,362.15,0,0,1-44.24-33.52c-21.32-18.73-45.8-44.41-62.54-74.71,5.63,5.67,15.63,15.32,28.54,26,20.46,16.85,48.23,36.18,77.59,46.08,2.05.7,3.91,1.18,5.67,1.77a22.46,22.46,0,0,1,5.11,2.34,262.69,262.69,0,0,0,43,22.63A203.31,203.31,0,0,0,559,596.07l2.46,0c45.53,0,73.74-18.55,75.14-19.49.41-.21,4.76-2.33,13.83-2.33,1.26,0,2.62,0,4.08.13,8.23.54,20.65,1,36.16,3.1a263.35,263.35,0,0,1,45,10.28,278.45,278.45,0,0,0-29.75-1.71c-13.76,0-28.79,1.24-41.1,5.37l0,0h0s-8.2,3.44-13.38,5.79A177.21,177.21,0,0,1,618,608.43c-7.58,1.66-14.34,4-25.15,6.14s-25.66,4-49.35,4.73h-.13M321.24,475.94l-.76.7Zm-3.12-3.9,2.2,4.36C337.75,511,365.53,539.84,389,560.11a358,358,0,0,0,42.53,31.95l0,0h0c54.58,27.76,111.85,29.27,111.93,29.28h0c23.79-.73,38.79-2.63,49.72-4.78s17.78-4.52,25.19-6.14a179.15,179.15,0,0,0,33.7-11.31c2.56-1.16,5.89-2.61,8.58-3.76l3.38-1.43,1.33-.56c11.93-4,26.75-5.25,40.36-5.25h0a273.62,273.62,0,0,1,27.74,1.5c3.62.37,6.56.75,8.61,1l2.35.34.61.1.21,0,.52-2a263.85,263.85,0,0,0-55-13.69c-15.61-2.17-28.13-2.59-36.31-3.12-1.5-.09-2.9-.14-4.21-.14h0c-10,0-14.71,2.53-14.85,2.61l0,0,0,0h0c-.76.52-28.69,19.16-74,19.15H559a201.08,201.08,0,0,1-72.73-15.22,259.15,259.15,0,0,1-42.67-22.45,24.38,24.38,0,0,0-5.57-2.56c-1.85-.61-3.69-1.1-5.66-1.76-29-9.77-56.59-29-76.94-45.73-10.18-8.38-18.54-16.15-24.35-21.82-2.91-2.83-5.18-5.14-6.72-6.74-.77-.8-1.36-1.43-1.75-1.85l-.45-.48-.15-.16L318.12,471Z"/></clipPath><linearGradient id="Degradado_sin_nombre_15" x1="414.89" y1="1409.6" x2="415.89" y2="1409.6" gradientTransform="matrix(516.25, 0, 0, -516.25, -214130.19, 727998.68)" gradientUnits="userSpaceOnUse"><stop offset="0" stop-color="#cb5081"/><stop offset="1" stop-color="#f8eb60"/></linearGradient><clipPath id="clip-path-2" transform="translate(-259.33 -255.77)"><rect class="cls-1" x="259.33" y="255.77" width="551.95" height="365.6"/></clipPath><clipPath id="clip-path-3" transform="translate(-259.33 -255.77)"><path class="cls-1" d="M310,390.75v13.08a32.78,32.78,0,1,0,0-13.08"/></clipPath><radialGradient id="Degradado_sin_nombre_14" cx="410.44" cy="1429.31" r="1" gradientTransform="matrix(32.77, 0, 0, -33.47, -13369.21, 47983.63)" gradientUnits="userSpaceOnUse"><stop offset="0" stop-color="#c52270"/><stop offset="0.72" stop-color="#efc0d6"/><stop offset="1" stop-color="#fff"/></radialGradient><clipPath id="clip-path-4" transform="translate(-259.33 -255.77)"><path class="cls-1" d="M715.33,542a23,23,0,1,0,23-23,23,23,0,0,0-23,23"/></clipPath><radialGradient id="Degradado_sin_nombre_9" cx="408.41" cy="1440.01" r="1" gradientTransform="matrix(22.98, 0, 0, -22.98, -8906.92, 33379.93)" gradientUnits="userSpaceOnUse"><stop offset="0" stop-color="#db9022"/><stop offset="1" stop-color="#fff"/></radialGradient><clipPath id="clip-path-5" transform="translate(-259.33 -255.77)"><path class="cls-1" d="M493.63,471.67A16.39,16.39,0,1,0,510,455.28a16.38,16.38,0,0,0-16.38,16.39"/></clipPath><radialGradient id="Degradado_sin_nombre_10" cx="405.68" cy="1453.74" r="1" gradientTransform="matrix(16.39, 0, 0, -16.39, -6397.35, 24039.22)" gradientUnits="userSpaceOnUse"><stop offset="0" stop-color="#68a6dd"/><stop offset="0.75" stop-color="#d9e8f6"/><stop offset="1" stop-color="#fff"/></radialGradient><clipPath id="clip-path-6" transform="translate(-259.33 -255.77)"><path class="cls-1" d="M571.22,430.06a21.72,21.72,0,1,0,21.71-21.71,21.71,21.71,0,0,0-21.71,21.71"/></clipPath><radialGradient id="Degradado_sin_nombre_11" cx="408.01" cy="1442" r="1" gradientTransform="matrix(21.72, 0, 0, -21.72, -8526.61, 31487.96)" gradientUnits="userSpaceOnUse"><stop offset="0" stop-color="#b29fc9"/><stop offset="1" stop-color="#fff"/></radialGradient><clipPath id="clip-path-7" transform="translate(-259.33 -255.77)"><path class="cls-1" d="M649.87,508.38a10.86,10.86,0,1,0,10.86-10.85,10.86,10.86,0,0,0-10.86,10.85"/></clipPath><radialGradient id="Degradado_sin_nombre_8" cx="400.84" cy="1478.12" r="1" gradientTransform="matrix(10.86, 0, 0, -10.86, -3950.83, 16301.91)" gradientUnits="userSpaceOnUse"><stop offset="0" stop-color="#b3d3c2"/><stop offset="1" stop-color="#fff"/></radialGradient><clipPath id="clip-path-8" transform="translate(-259.33 -255.77)"><path class="cls-1" d="M420.55,444.28a13.3,13.3,0,1,0,13.3-13.3,13.3,13.3,0,0,0-13.3,13.3"/></clipPath><radialGradient id="Degradado_sin_nombre_13" cx="403.47" cy="1464.88" r="1" gradientTransform="matrix(13.3, 0, 0, -13.3, -5189.87, 19665.03)" gradientUnits="userSpaceOnUse"><stop offset="0" stop-color="#f6e088"/><stop offset="1" stop-color="#fff"/></radialGradient></defs><g id="makeup_yung" data-name="makeup yung"><g class="cls-2"><rect class="cls-3" x="58.79" y="215.22" width="427.76" height="150.37"/></g><g class="cls-4"><path class="cls-5" d="M442.63,544.2s.09,3.47.49,3.09c6.1-5.7,57.24-51.43,125.53-51.42q6,0,12.16.49c39.5,3.17,65.93,20.44,82.5,36.93a125.61,125.61,0,0,1,17.85,22.26c1.87,3,3.23,5.46,4.11,7.19.45.86.77,1.54,1,2,.11.22.19.4.24.52a1.19,1.19,0,0,1,.08.17l.32-.13,0-.35s-17.14-1.81-31.57-1.81c-3.6,0-7,.12-10,.4a27.69,27.69,0,0,0-7.2,1.44c-1.57.63-4.35,2.25-8.39,4.33A146.35,146.35,0,0,1,561,586c-29.2,0-66.16-8-110.27-33.61l-.17.3.18-.3-8.89-5.7v.82l8.53,5.47h0c44.2,25.71,81.3,33.7,110.62,33.7a148.42,148.42,0,0,0,53.26-9.62,154.75,154.75,0,0,0,15.86-7.14c4-2.09,6.86-3.72,8.33-4.31a26.72,26.72,0,0,1,7-1.39c2.93-.28,6.35-.39,9.94-.39,7.19,0,15.07.45,21.14.9,3,.22,5.63.45,7.46.62l2.89.28.59.06-.23-.54s-6.75-15.79-23.41-32.37-43.25-33.94-82.93-37.12c-4.13-.34-8.21-.49-12.22-.49-73.18,0-126,50.66-126,50.68Z" transform="translate(-259.33 -255.77)"/><path class="cls-6" d="M619.33,504.5a105,105,0,0,0-32.21-11.32c-63.94-11-86.88,6.37-154.75.71s-109.58-24.74-109.58-24.74,56.56,60.8,119.48,78.47c0,0,81.69-78.23,177.06-43.12" transform="translate(-259.33 -255.77)"/><path class="cls-6" d="M619.33,504.5l.17-.3a105.31,105.31,0,0,0-32.32-11.36,242.06,242.06,0,0,0-41.82-3.74c-29.42,0-51.73,5.61-85.73,5.61-8.29,0-17.27-.33-27.23-1.16a413.71,413.71,0,0,1-80.17-14.48c-9.45-2.74-16.78-5.3-21.74-7.18-2.48-.93-4.37-1.7-5.64-2.23l-1.44-.61-.48-.22-1.58-.72,1.19,1.27A353.26,353.26,0,0,0,358.72,502c22,17.42,51.92,37.07,83.46,45.93l.19,0,.14-.14.62-.58c6.22-5.71,58.29-51.51,125.56-51.5a145.28,145.28,0,0,1,50.52,9l.29-.63-.17.3.12-.32a146,146,0,0,0-50.76-9.09c-72.1,0-126.63,52.26-126.66,52.28l.24.25.09-.33c-31.38-8.82-61.23-28.41-83.21-45.8-11-8.7-20-16.85-26.3-22.82-3.14-3-5.59-5.42-7.26-7.12l-1.9-2-.65-.68-.25.24-.14.31s41.77,19.12,109.69,24.78c10,.83,19,1.16,27.29,1.16,34.08,0,56.41-5.61,85.73-5.61a241,241,0,0,1,41.71,3.74A105.77,105.77,0,0,1,610,500.35c2.87,1.22,5.15,2.33,6.72,3.14.79.4,1.39.73,1.8,1l.47.26.15.09.18-.3.12-.32Z" transform="translate(-259.33 -255.77)"/><path class="cls-5" d="M454.62,537.33s41.93,35.86,102.48,35.86c3.16,0,6.37-.09,9.62-.3,25.15-1.59,40-4.5,50.77-7s17.32-4.63,25.92-4.63a71.36,71.36,0,0,1,18.66,2l.86,0a2.6,2.6,0,0,1-1.06-.6,3.22,3.22,0,0,1-1-2.51,9.69,9.69,0,0,1,1-3.93,24.44,24.44,0,0,1,3.31-5.58,12.06,12.06,0,0,0,2.3-4.47,6.63,6.63,0,0,1,2.13-3.47,2.76,2.76,0,0,1,1.66-.6h.19l0-.12,0,.12h0l0-.12,0,.12.13-.68a2.73,2.73,0,0,0-.32,0,3.35,3.35,0,0,0-2.07.74,7.26,7.26,0,0,0-2.38,3.81,11.42,11.42,0,0,1-2.19,4.26A25.42,25.42,0,0,0,661.3,556a10.34,10.34,0,0,0-1.11,4.22,3.87,3.87,0,0,0,1.28,3.08c.64.55,1.4,0,1.43,0l0,0c-8.18-2-14.22-2.75-19.52-2.75-8.72,0-15.37,2.13-26.08,4.64s-25.54,5.43-50.65,7c-3.24.2-6.44.3-9.58.3-30.13,0-55.65-8.92-73.62-17.85a171.89,171.89,0,0,1-21-12.27c-2.43-1.68-4.3-3.07-5.55-4-.63-.48-1.11-.87-1.43-1.13l-.48-.39Z" transform="translate(-259.33 -255.77)"/><path class="cls-6" d="M564.36,541.72A17.39,17.39,0,1,0,547,524.33a17.4,17.4,0,0,0,17.39,17.39" transform="translate(-259.33 -255.77)"/><path class="cls-5" d="M611.51,502.27a52.14,52.14,0,0,1-23.28,68.08l.37.71a52.92,52.92,0,0,0,23.64-69.13Z" transform="translate(-259.33 -255.77)"/><path class="cls-5" d="M543.55,572A52.15,52.15,0,0,1,516,504.45l-.75-.31a53,53,0,0,0,28,68.55Z" transform="translate(-259.33 -255.77)"/><path class="cls-7" d="M582.35,524.22a17.77,17.77,0,1,1-17.77-17.77A17.78,17.78,0,0,1,582.35,524.22Z" transform="translate(-259.33 -255.77)"/><path class="cls-6" d="M582.35,524.22h-.43A17.34,17.34,0,1,1,576.84,512a17.28,17.28,0,0,1,5.08,12.26h.86a18.2,18.2,0,1,0-18.2,18.2,18.2,18.2,0,0,0,18.2-18.2Z" transform="translate(-259.33 -255.77)"/><path class="cls-5" d="M582.35,524.22h-.43A17.34,17.34,0,1,1,576.84,512a17.28,17.28,0,0,1,5.08,12.26h.86a18.2,18.2,0,1,0-18.2,18.2,18.2,18.2,0,0,0,18.2-18.2Z" transform="translate(-259.33 -255.77)"/><path class="cls-6" d="M584.07,538.31c-11,1-11.84,1.83-12.85,12.85-1-11-1.84-11.84-12.86-12.85,11-1,11.84-1.84,12.86-12.86,1,11,1.84,11.84,12.85,12.86" transform="translate(-259.33 -255.77)"/><path class="cls-8" d="M584.07,538.31l0-.52a49.62,49.62,0,0,0-6.59.9A9.13,9.13,0,0,0,574.3,540a5.64,5.64,0,0,0-1.56,1.63,10.9,10.9,0,0,0-1.32,3.75c-.3,1.55-.5,3.43-.72,5.76l.52,0,.52,0a51.16,51.16,0,0,0-.9-6.58,9.14,9.14,0,0,0-1.29-3.14,5.4,5.4,0,0,0-1.63-1.56,10.75,10.75,0,0,0-3.75-1.32c-1.55-.3-3.43-.5-5.76-.72l0,.52,0,.51a49.87,49.87,0,0,0,6.59-.89,9.14,9.14,0,0,0,3.14-1.29A5.52,5.52,0,0,0,569.7,535a11,11,0,0,0,1.32-3.75c.3-1.55.5-3.43.72-5.76l-.52,0-.52,0a51.61,51.61,0,0,0,.9,6.59,9.13,9.13,0,0,0,1.28,3.14,5.77,5.77,0,0,0,1.63,1.56,10.89,10.89,0,0,0,3.76,1.31c1.54.3,3.43.51,5.76.72l0-.51,0-.52,0,.52,0-.52a48.75,48.75,0,0,1-6.44-.87,8.29,8.29,0,0,1-2.79-1.13,4.48,4.48,0,0,1-1.27-1.33,9.91,9.91,0,0,1-1.18-3.4c-.29-1.48-.49-3.34-.7-5.65h-1a49,49,0,0,1-.87,6.44,8.23,8.23,0,0,1-1.13,2.78,4.64,4.64,0,0,1-1.33,1.28,9.64,9.64,0,0,1-3.4,1.17c-1.48.29-3.33.5-5.65.71v1a50.22,50.22,0,0,1,6.44.88,8,8,0,0,1,2.78,1.12,4.68,4.68,0,0,1,1.28,1.34,9.85,9.85,0,0,1,1.18,3.39c.28,1.48.49,3.34.7,5.66h1a48.75,48.75,0,0,1,.87-6.44,8.21,8.21,0,0,1,1.13-2.79,4.48,4.48,0,0,1,1.33-1.27,9.85,9.85,0,0,1,3.39-1.18c1.48-.29,3.34-.49,5.66-.71v-1Z" transform="translate(-259.33 -255.77)"/><path class="cls-6" d="M559.2,514.61c-4.8.44-5.16.8-5.6,5.6-.44-4.8-.8-5.16-5.6-5.6,4.8-.44,5.16-.8,5.6-5.6.44,4.8.8,5.16,5.6,5.6" transform="translate(-259.33 -255.77)"/><path class="cls-8" d="M559.2,514.61l0-.35a22.68,22.68,0,0,0-2.88.4,3.86,3.86,0,0,0-1.41.58,3,3,0,0,0-1.16,1.78,18.49,18.49,0,0,0-.46,3.16l.34,0,.35,0a21.41,21.41,0,0,0-.4-2.89,4.21,4.21,0,0,0-.57-1.41,3,3,0,0,0-1.79-1.15,19.38,19.38,0,0,0-3.16-.47l0,.35,0,.34a21.4,21.4,0,0,0,2.89-.39,4,4,0,0,0,1.41-.58,3,3,0,0,0,1.15-1.78A18.5,18.5,0,0,0,554,509l-.35,0-.34,0a21.63,21.63,0,0,0,.39,2.89,4.07,4.07,0,0,0,.58,1.4,3,3,0,0,0,1.78,1.16,18.82,18.82,0,0,0,3.16.46l0-.34,0-.35,0,.35,0-.35a20.3,20.3,0,0,1-2.79-.37,3.56,3.56,0,0,1-1.18-.48,2.28,2.28,0,0,1-.88-1.4,17.87,17.87,0,0,1-.44-3h-.69a22.22,22.22,0,0,1-.38,2.79,3.5,3.5,0,0,1-.47,1.17,2.33,2.33,0,0,1-1.41.88,17.87,17.87,0,0,1-3,.44V515a22,22,0,0,1,2.79.38,3.3,3.3,0,0,1,1.17.48,2.33,2.33,0,0,1,.89,1.4,19,19,0,0,1,.44,3H554a20.27,20.27,0,0,1,.38-2.79,3.3,3.3,0,0,1,.47-1.17,2.28,2.28,0,0,1,1.4-.88,18.72,18.72,0,0,1,3-.45v-.69Z" transform="translate(-259.33 -255.77)"/><path class="cls-9" d="M410.44,469.49s1,0,2.86,0A303.91,303.91,0,0,0,489,458.88c13.78-3.73,30.27-5.84,48-5.84,32.6,0,69.31,7.14,100.76,24.4s57.65,44.63,69.3,85.13l.67-.2c-11.71-40.68-38.06-68.2-69.64-85.53S569.7,452.35,537,452.35c-17.76,0-34.31,2.11-48.16,5.86a303.11,303.11,0,0,1-75.54,10.62h-2.11l-.72,0Z" transform="translate(-259.33 -255.77)"/></g><g class="cls-10"><rect class="cls-11" x="50.64" y="108.74" width="64.9" height="65.55"/></g><g class="cls-12"><rect class="cls-13" x="456" y="263.24" width="45.96" height="45.96"/></g><g class="cls-14"><rect class="cls-15" x="234.3" y="199.51" width="32.77" height="32.77"/></g><g class="cls-16"><rect class="cls-17" x="311.89" y="152.58" width="43.43" height="43.43"/></g><g class="cls-18"><rect class="cls-19" x="390.54" y="241.76" width="21.72" height="21.72"/></g><g class="cls-20"><rect class="cls-21" x="161.23" y="175.21" width="26.59" height="26.59"/></g><g class="cls-4"><path class="cls-22" d="M260.54,351.74s131.86-39.13,157.69-36,233.31,93.54,307.84,104.54,63.23-34.55,82.88-57-271.38-99.61-290.8-105.7-216.4,50.69-257.82,94.11" transform="translate(-259.33 -255.77)"/><path class="cls-5" d="M442.63,544.2s.09,3.47.49,3.09c6.1-5.7,57.24-51.43,125.53-51.42q6,0,12.16.49c39.5,3.17,65.93,20.44,82.5,36.93a125.61,125.61,0,0,1,17.85,22.26c1.87,3,3.23,5.46,4.11,7.19.45.86.77,1.54,1,2,.11.22.19.4.24.52a1.19,1.19,0,0,1,.08.17l.32-.13,0-.35s-17.14-1.81-31.57-1.81c-3.6,0-7,.12-10,.4a27.69,27.69,0,0,0-7.2,1.44c-1.57.63-4.35,2.25-8.39,4.33A146.35,146.35,0,0,1,561,586c-29.2,0-66.16-8-110.27-33.61l-.17.3.18-.3-8.89-5.7v.82l8.53,5.47h0c44.2,25.71,81.3,33.7,110.62,33.7a148.42,148.42,0,0,0,53.26-9.62,154.75,154.75,0,0,0,15.86-7.14c4-2.09,6.86-3.72,8.33-4.31a26.72,26.72,0,0,1,7-1.39c2.93-.28,6.35-.39,9.94-.39,7.19,0,15.07.45,21.14.9,3,.22,5.63.45,7.46.62l2.89.28.59.06-.23-.54s-6.75-15.79-23.41-32.37-43.25-33.94-82.93-37.12c-4.13-.34-8.21-.49-12.22-.49-73.18,0-126,50.66-126,50.68Z" transform="translate(-259.33 -255.77)"/><path class="cls-6" d="M619.33,504.5a105,105,0,0,0-32.21-11.32c-63.94-11-86.88,6.37-154.75.71s-109.58-24.74-109.58-24.74,56.56,60.8,119.48,78.47c0,0,81.69-78.23,177.06-43.12" transform="translate(-259.33 -255.77)"/><path class="cls-6" d="M619.33,504.5l.17-.3a105.31,105.31,0,0,0-32.32-11.36,242.06,242.06,0,0,0-41.82-3.74c-29.42,0-51.73,5.61-85.73,5.61-8.29,0-17.27-.33-27.23-1.16a413.71,413.71,0,0,1-80.17-14.48c-9.45-2.74-16.78-5.3-21.74-7.18-2.48-.93-4.37-1.7-5.64-2.23l-1.44-.61-.48-.22-1.58-.72,1.19,1.27A353.26,353.26,0,0,0,358.72,502c22,17.42,51.92,37.07,83.46,45.93l.19,0,.14-.14.62-.58c6.22-5.71,58.29-51.51,125.56-51.5a145.28,145.28,0,0,1,50.52,9l.29-.63-.17.3.12-.32a146,146,0,0,0-50.76-9.09c-72.1,0-126.63,52.26-126.66,52.28l.24.25.09-.33c-31.38-8.82-61.23-28.41-83.21-45.8-11-8.7-20-16.85-26.3-22.82-3.14-3-5.59-5.42-7.26-7.12l-1.9-2-.65-.68-.25.24-.14.31s41.77,19.12,109.69,24.78c10,.83,19,1.16,27.29,1.16,34.08,0,56.41-5.61,85.73-5.61a241,241,0,0,1,41.71,3.74A105.77,105.77,0,0,1,610,500.35c2.87,1.22,5.15,2.33,6.72,3.14.79.4,1.39.73,1.8,1l.47.26.15.09.18-.3.12-.32Z" transform="translate(-259.33 -255.77)"/><path class="cls-5" d="M454.62,537.33s41.93,35.86,102.48,35.86c3.16,0,6.37-.09,9.62-.3,25.15-1.59,40-4.5,50.77-7s17.32-4.63,25.92-4.63a71.36,71.36,0,0,1,18.66,2l.86,0a2.6,2.6,0,0,1-1.06-.6,3.22,3.22,0,0,1-1-2.51,9.69,9.69,0,0,1,1-3.93,24.44,24.44,0,0,1,3.31-5.58,12.06,12.06,0,0,0,2.3-4.47,6.63,6.63,0,0,1,2.13-3.47,2.76,2.76,0,0,1,1.66-.6h.19l0-.12,0,.12h0l0-.12,0,.12.13-.68a2.73,2.73,0,0,0-.32,0,3.35,3.35,0,0,0-2.07.74,7.26,7.26,0,0,0-2.38,3.81,11.42,11.42,0,0,1-2.19,4.26A25.42,25.42,0,0,0,661.3,556a10.34,10.34,0,0,0-1.11,4.22,3.87,3.87,0,0,0,1.28,3.08c.64.55,1.4,0,1.43,0l0,0c-8.18-2-14.22-2.75-19.52-2.75-8.72,0-15.37,2.13-26.08,4.64s-25.54,5.43-50.65,7c-3.24.2-6.44.3-9.58.3-30.13,0-55.65-8.92-73.62-17.85a171.89,171.89,0,0,1-21-12.27c-2.43-1.68-4.3-3.07-5.55-4-.63-.48-1.11-.87-1.43-1.13l-.48-.39Z" transform="translate(-259.33 -255.77)"/><path class="cls-6" d="M564.36,541.72A17.39,17.39,0,1,0,547,524.33a17.4,17.4,0,0,0,17.39,17.39" transform="translate(-259.33 -255.77)"/><path class="cls-5" d="M611.51,502.27a52.14,52.14,0,0,1-23.28,68.08l.37.71a52.92,52.92,0,0,0,23.64-69.13Z" transform="translate(-259.33 -255.77)"/><path class="cls-5" d="M543.55,572A52.15,52.15,0,0,1,516,504.45l-.75-.31a53,53,0,0,0,28,68.55Z" transform="translate(-259.33 -255.77)"/><path class="cls-7" d="M582.35,524.22a17.77,17.77,0,1,1-17.77-17.77A17.78,17.78,0,0,1,582.35,524.22Z" transform="translate(-259.33 -255.77)"/><path class="cls-6" d="M582.35,524.22h-.43A17.34,17.34,0,1,1,576.84,512a17.28,17.28,0,0,1,5.08,12.26h.86a18.2,18.2,0,1,0-18.2,18.2,18.2,18.2,0,0,0,18.2-18.2Z" transform="translate(-259.33 -255.77)"/><path class="cls-5" d="M582.35,524.22h-.43A17.34,17.34,0,1,1,576.84,512a17.28,17.28,0,0,1,5.08,12.26h.86a18.2,18.2,0,1,0-18.2,18.2,18.2,18.2,0,0,0,18.2-18.2Z" transform="translate(-259.33 -255.77)"/><path class="cls-6" d="M584.07,538.31c-11,1-11.84,1.83-12.85,12.85-1-11-1.84-11.84-12.86-12.85,11-1,11.84-1.84,12.86-12.86,1,11,1.84,11.84,12.85,12.86" transform="translate(-259.33 -255.77)"/><path class="cls-8" d="M584.07,538.31l0-.52a49.62,49.62,0,0,0-6.59.9A9.13,9.13,0,0,0,574.3,540a5.64,5.64,0,0,0-1.56,1.63,10.9,10.9,0,0,0-1.32,3.75c-.3,1.55-.5,3.43-.72,5.76l.52,0,.52,0a51.16,51.16,0,0,0-.9-6.58,9.14,9.14,0,0,0-1.29-3.14,5.4,5.4,0,0,0-1.63-1.56,10.75,10.75,0,0,0-3.75-1.32c-1.55-.3-3.43-.5-5.76-.72l0,.52,0,.51a49.87,49.87,0,0,0,6.59-.89,9.14,9.14,0,0,0,3.14-1.29A5.52,5.52,0,0,0,569.7,535a11,11,0,0,0,1.32-3.75c.3-1.55.5-3.43.72-5.76l-.52,0-.52,0a51.61,51.61,0,0,0,.9,6.59,9.13,9.13,0,0,0,1.28,3.14,5.77,5.77,0,0,0,1.63,1.56,10.89,10.89,0,0,0,3.76,1.31c1.54.3,3.43.51,5.76.72l0-.51,0-.52,0,.52,0-.52a48.75,48.75,0,0,1-6.44-.87,8.29,8.29,0,0,1-2.79-1.13,4.48,4.48,0,0,1-1.27-1.33,9.91,9.91,0,0,1-1.18-3.4c-.29-1.48-.49-3.34-.7-5.65h-1a49,49,0,0,1-.87,6.44,8.23,8.23,0,0,1-1.13,2.78,4.64,4.64,0,0,1-1.33,1.28,9.64,9.64,0,0,1-3.4,1.17c-1.48.29-3.33.5-5.65.71v1a50.22,50.22,0,0,1,6.44.88,8,8,0,0,1,2.78,1.12,4.68,4.68,0,0,1,1.28,1.34,9.85,9.85,0,0,1,1.18,3.39c.28,1.48.49,3.34.7,5.66h1a48.75,48.75,0,0,1,.87-6.44,8.21,8.21,0,0,1,1.13-2.79,4.48,4.48,0,0,1,1.33-1.27,9.85,9.85,0,0,1,3.39-1.18c1.48-.29,3.34-.49,5.66-.71v-1Z" transform="translate(-259.33 -255.77)"/><path class="cls-6" d="M559.2,514.61c-4.8.44-5.16.8-5.6,5.6-.44-4.8-.8-5.16-5.6-5.6,4.8-.44,5.16-.8,5.6-5.6.44,4.8.8,5.16,5.6,5.6" transform="translate(-259.33 -255.77)"/><path class="cls-8" d="M559.2,514.61l0-.35a22.68,22.68,0,0,0-2.88.4,3.86,3.86,0,0,0-1.41.58,3,3,0,0,0-1.16,1.78,18.49,18.49,0,0,0-.46,3.16l.34,0,.35,0a21.41,21.41,0,0,0-.4-2.89,4.21,4.21,0,0,0-.57-1.41,3,3,0,0,0-1.79-1.15,19.38,19.38,0,0,0-3.16-.47l0,.35,0,.34a21.4,21.4,0,0,0,2.89-.39,4,4,0,0,0,1.41-.58,3,3,0,0,0,1.15-1.78A18.5,18.5,0,0,0,554,509l-.35,0-.34,0a21.63,21.63,0,0,0,.39,2.89,4.07,4.07,0,0,0,.58,1.4,3,3,0,0,0,1.78,1.16,18.82,18.82,0,0,0,3.16.46l0-.34,0-.35,0,.35,0-.35a20.3,20.3,0,0,1-2.79-.37,3.56,3.56,0,0,1-1.18-.48,2.28,2.28,0,0,1-.88-1.4,17.87,17.87,0,0,1-.44-3h-.69a22.22,22.22,0,0,1-.38,2.79,3.5,3.5,0,0,1-.47,1.17,2.33,2.33,0,0,1-1.41.88,17.87,17.87,0,0,1-3,.44V515a22,22,0,0,1,2.79.38,3.3,3.3,0,0,1,1.17.48,2.33,2.33,0,0,1,.89,1.4,19,19,0,0,1,.44,3H554a20.27,20.27,0,0,1,.38-2.79,3.3,3.3,0,0,1,.47-1.17,2.28,2.28,0,0,1,1.4-.88,18.72,18.72,0,0,1,3-.45v-.69Z" transform="translate(-259.33 -255.77)"/><path class="cls-9" d="M410.44,469.49s1,0,2.86,0A303.91,303.91,0,0,0,489,458.88c13.78-3.73,30.27-5.84,48-5.84,32.6,0,69.31,7.14,100.76,24.4s57.65,44.63,69.3,85.13l.67-.2c-11.71-40.68-38.06-68.2-69.64-85.53S569.7,452.35,537,452.35c-17.76,0-34.31,2.11-48.16,5.86a303.11,303.11,0,0,1-75.54,10.62h-2.11l-.72,0Z" transform="translate(-259.33 -255.77)"/></g><g class="cls-10"><rect class="cls-11" x="50.64" y="108.74" width="64.9" height="65.55"/></g><g class="cls-12"><rect class="cls-13" x="456" y="263.24" width="45.96" height="45.96"/></g><g class="cls-14"><rect class="cls-15" x="234.3" y="199.51" width="32.77" height="32.77"/></g><g class="cls-16"><rect class="cls-17" x="311.89" y="152.58" width="43.43" height="43.43"/></g><g class="cls-18"><rect class="cls-19" x="390.54" y="241.76" width="21.72" height="21.72"/></g><g class="cls-20"><rect class="cls-21" x="161.23" y="175.21" width="26.59" height="26.59"/></g><g class="cls-4"><path class="cls-23" d="M260.54,351.74s131.86-39.13,157.69-36,233.31,93.54,307.84,104.54,63.23-34.55,82.88-57-271.38-99.61-290.8-105.7-216.4,50.69-257.82,94.11" transform="translate(-259.33 -255.77)"/></g></g></svg>