<svg id="pablo" xmlns="http://www.w3.org/2000/svg" xmlns:xlink="http://www.w3.org/1999/xlink" viewBox="0 0 2611.58 1720.07"><defs><style>.cls-1{fill:none;}.cls-2{clip-path:url(#clip-path);}.cls-3{clip-path:url(#clip-path-2);}.cls-4{clip-path:url(#clip-path-3);}</style><clipPath id="clip-path" transform="translate(577.51 281.52)"><path class="cls-1" d="M809.34,526.55a135.5,135.5,0,0,1,0,250c163.57-9.32,288.83-61.74,288.83-125S972.91,535.87,809.34,526.55Z"/></clipPath><clipPath id="clip-path-2" transform="translate(577.51 281.52)"><path class="cls-1" d="M621.64,651.56a135.5,135.5,0,0,1,83.21-125C541.28,535.87,416,588.29,416,651.56s125.26,115.69,288.83,125A135.49,135.49,0,0,1,621.64,651.56Z"/></clipPath><clipPath id="clip-path-3" transform="translate(577.51 281.52)"><circle class="cls-1" cx="756.61" cy="652.54" r="122.27"/></clipPath><image id="image" width="6240" height="4160" xlink:href="../../../../../../elementos%20del%20dise%C3%B1o/web/trabajos/MAKEUP/bocetos%20edit.jpg"/></defs><g class="cls-2"><use transform="scale(0.42 0.41)" xlink:href="#image"/></g><g class="cls-3"><use transform="translate(0) scale(0.42 0.41)" xlink:href="#image"/></g><g class="cls-4"><use transform="translate(0) scale(0.42 0.41)" xlink:href="#image"/></g></svg>