<svg id="makeup_yung" data-name="makeup yung" xmlns="http://www.w3.org/2000/svg" xmlns:xlink="http://www.w3.org/1999/xlink" viewBox="0 0 406.61 722.87"><defs><style>.cls-1{fill:none;}.cls-2{clip-path:url(#clip-path);}.cls-3{clip-path:url(#clip-path-2);}.cls-4{clip-path:url(#clip-path-3);}.cls-5{clip-path:url(#clip-path-4);}</style><clipPath id="clip-path" transform="translate(-753.7 -432.28)"><path class="cls-1" d="M759.56,886.49v168.39c0,2.56,2.79,4.64,6.23,4.64h207c5.42,0,8.26-4.79,4.6-7.77l-207-168.39C766.55,880.24,759.56,882.26,759.56,886.49Z"/></clipPath><clipPath id="clip-path-2" transform="translate(-753.7 -432.28)"><path class="cls-1" d="M762.94,866.41l233,190a15.26,15.26,0,0,0,9.56,3.14H1143.6c7.15,0,13-4.31,13-9.63v-198c0-12.42-13.52-22.48-30.21-22.48h0c-16.68,0-30.2,10.06-30.2,22.48V900c0,12.41-13.53,22.48-30.21,22.48h0c-16.68,0-30.2-10.07-30.2-22.48l.68-151.27c0-17.15-18.69-31.06-41.73-31.06h0c-15.26,0-29.31,6.2-36.63,16.16,0,0-14.18,17.84-33.32,19.36-20.22,1.6-32.84-7.91-36.63-17.59,0-.1-26.42-85.52-26.42-85.52-7.19-23.25-22.86-38-51.06-38h0c-28.2,0-51.06,17-51.06,38V859.91A8.47,8.47,0,0,0,762.94,866.41Z"/></clipPath><clipPath id="clip-path-3" transform="translate(-753.7 -432.28)"><path class="cls-1" d="M784.49,602.36h0c4,0,14.12-1.54,26.2-1.57,27,0,50.22,14.12,56.17,33.69,8.55,28.16,25.93,82.16,26.17,82.89v0c1.67,5,5.46,14.9,9.9,18.32,11.08,8.54,26,7.43,38.49-.23,2.37-1.46,8.86-6.82,10.39-8.8,0,0,14.87-19,41-20.48,16.76-.93,32.55,6,40.53,17l3,4.15-.68-233.8c0-5.92-6.44-10.71-14.39-10.71H773.94c-7.94,0-14.38,4.79-14.38,10.71v90.22C759.56,594.06,770.72,602.36,784.49,602.36Z"/></clipPath><clipPath id="clip-path-4" transform="translate(-753.7 -432.28)"><path class="cls-1" d="M1043.25,898.42l-1.39-405.22c0-5.67,6.18-10.28,13.83-10.28l87,0c7.65,0,13.85,4.59,13.85,10.26v342s-8.85-12.5-31.64-12.66c-24.1-.18-35,14.56-35,26.28l-.28,49.77c-.13,9.43-10.49,17-23.22,17h0C1053.64,915.55,1043.28,907.88,1043.25,898.42Z"/></clipPath><image id="image" width="1350" height="2400" xlink:href="../../../../../../elementos%20del%20dise%C3%B1o/web/trabajos/MAKEUP/edit%20yung.png"/></defs><g class="cls-2"><use transform="scale(0.3)" xlink:href="#image"/></g><g class="cls-3"><use transform="scale(0.3)" xlink:href="#image"/></g><g class="cls-4"><use transform="scale(0.3)" xlink:href="#image"/></g><g class="cls-5"><use transform="translate(0 0) scale(0.3)" xlink:href="#image"/></g></svg>