<svg id="instagrma" xmlns="http://www.w3.org/2000/svg" viewBox="0 0 657.4 994.52"><defs><style>.cls-1,.cls-2{fill:none;stroke:#f0f;stroke-miterlimit:10;}.cls-1{stroke-width:2px;}.cls-2{stroke-width:0.89px;}</style></defs><g id="wapa"><path class="cls-1" d="M1914.41,552.3c1.36-.17,3.75-10.58-1.36-12.28s-22.64-22.64-26.38-24.34a83.46,83.46,0,0,0-18.56-5.11,39.78,39.78,0,0,1-10.93-3.29,11.19,11.19,0,0,0-4.22-.71s-30.89.51-44.17-35.48-22.79-28.4-22.79-28.4c-1.28.75-.24,1.2.77,1.43a5,5,0,0,1,2.56,1.52c11.6,12.79,9,40.71,8.14,63.91-1,28.6,13.62,43.58,13.62,43.58s28.43,40.51,35.07,43.06a16.6,16.6,0,0,1,2.56,1.23s28.62,5.41,54.73-6.34,28.41-28,25.09-33.38c0,0-2.56-4.23-10.21-4.57,0,0-31-6.47-34.22-8s-19.74-3.58-21.78-3.92c-1.88-.31-8.31-2.54-9.32-3.29" transform="translate(-1526.65 -198.02)"/><path class="cls-1" d="M1852.73,507.28c0,17.66,0,16.54,0,30.53" transform="translate(-1526.65 -198.02)"/><path class="cls-1" d="M1851.94,507.51" transform="translate(-1526.65 -198.02)"/><path class="cls-1" d="M1940.39,531.48A104.19,104.19,0,0,0,1925,513.72c-9.7-8.93-26.29-29.87-29.1-33.19s-9.19-4.51-14-9.62-1.36-9.19-.85-9.53,7.83,0,7.83,0c8.51.34,14.64,5.36,22.55,11.49s18.13,15.58,18.13,15.58,28.6,28.93,33,31.32,10.55,14.29,10.55,14.29,44.6,64.34,49.37,71.15,4.76,19.07,4.76,19.07v26.89s-27.23-5.45-20.08,6.81,48,10.21,36.76-28.6-83.06-70.81-83.74-103.49-1-114-1-114,.94-14.55-11.24-14.55h-85.61s-9.37.93-9.54,12.17c-.08,5.2-.08,43.62-.06,83.4" transform="translate(-1526.65 -198.02)"/><path class="cls-1" d="M1949.73,540s-36-32.94-39.83-36.51-7.66-6.13-11-5.62-30.13-2.81-30.13-2.81-13.61.17-15,0c-1.19-.14-4.93-.05-4,3.64,0,0,0,1,1.53.83,0,0,1.39-.19,1.15,1.34-.14.83-1.49,1-1.49,1h-.28c-18.55-.08-39.29-21.29-27.76-27.59s29.73,1.12,29.73,1.12,5.71-.93,0-4.34c0,0,2.29.26-18.65-3.83s-32.68-29.87-40.6-31.66-13.19,4.27-13.19,4.27c-.56.57-1.53-.44-1.53-.44s-7.15-4.76-2.38,33.71,21.44,17.36,25.87,24.51-20,3.06-27.51,11.23-21.34,21.45-27.21,40.85c0,0-6,4.09-8.09-.34s-7.15-10.21-13.62-7.66c-2.47,1-10.16,12.76-18.73,27-13.87,23-30,52.28-30,52.28s-9.19,10.21-10.47,0,.77-29.88-7.91-32.43-22.73-.51-33.45,29.62-35.75,170.55-46,178.72-17.36,34.21-14.3,48.51-13.27,46.47-14.8,67.92-23.49,36.76-22.47,47.49,48.51,112.34,57.19,127.66a960.51,960.51,0,0,0,101.1,15.32s11.24,3.57,10.73-28.09-10.73-24.51-7.15-39.83,3.06-33.7,4.6-46.47-.52-33.19,6.63-40.85S1709,923,1711,916.87s2-18.89,2-38.81,10.72-136.34,16.34-145,11.23-94,11.23-94-7.15-11-15.57,13.54-10,69.7-19.15,84.25-8.43,41.36-13.79,58.21-20.68,44.43-28.34,68.17-52.85,82.73-69.7,39.07-49.79-45.19-16.09-86.55,43.29-210.7,64.6-232c16.34-16.35,63.12-12.79,63.12-12.79" transform="translate(-1526.65 -198.02)"/><path class="cls-1" d="M1853.1,538c-.09-.07-.33-.12-.33-.16" transform="translate(-1526.65 -198.02)"/><path class="cls-1" d="M1853,536.06s-12.93,1.07-11.74,8.39,4.59,10.38,4.59,10.38,10,2.89,14.81,4.59,6.64,3.24,14,4.43,30.47,8.17,33.36,9.87,1.7,5.62,1.7,5.62" transform="translate(-1526.65 -198.02)"/><path class="cls-1" d="M1857.79,506.45" transform="translate(-1526.65 -198.02)"/><path class="cls-1" d="M1911.69,579.34s-22-2.21-23.49-2.55-13.62-1.2-16-.68-13.11-2.56-15-3.41c0,0-4.26-2-4.43,2.89s0,9.28,0,9.28v17.48a16.11,16.11,0,0,0,.24,2.77l0,.19c2.84,16,32.57,8.75,32.57,8.75,27.58-10.21,35.75,12.26,5.62,14.3s-35.23,24.51-43.91,51.58,19.91,34.72,24.51,53.1,36.25,18.55,30.81,35.24-5.79,73.87-5.11,103,39.49,18.53,36.42,53.59,11.58,33.7,15.66,53.45,0,35.4,38.13,60.59,41.19,63.32,45.28,85.45-69.45,46.3-51.32,15.66,1.28-40.51,11.15-68.43-11.15-33-11.15-33c-48.26-22.46-27.66-58.55-43.32-69.1s-10.21-41.88-11.57-53.11-34.73-29.62-30.64-33,94.64-6.13,96.68,7.49,31.32,70.13,42.21,91.91-10.55,8.85.34,19.41,39.49,110,39.49,118.47-51.4,25.53-74.89,28.93-13.62,9.87.34,20.43,26.21-6.13,49.7-11.24,51.4-21.44,60.26-27.57,8.85-37.45,8.85-43.23-3.07-4.43-3.07-4.43c6.13-34.72-21.44-89.19-30.3-93.62s-7.14-6.47-7.14-6.47c10.21-54.8-27.58-104.51-33.37-111.31s-7.74-17.28-2.38-23.41-12.25-157.79-46.45-149.36-4.1,42.13-.27,25.69-34.13-59.22-32.43-67,3.41-24.51-9.36-30.13-34.72-21.11-37.28-23.32-6.63-6-10.21-7.15-20.25-2.38-32.85-4.93-18-5.62-18-5.62c-10.22-7.49-11.75-12.43-11.75-12.43.26-5.38,4-5.45,5.82-5.16,0,0,2.44.8,2.62-1l.07-1.83c0-4.31,0-6.17,0-10.17" transform="translate(-1526.65 -198.02)"/><path class="cls-1" d="M1679.69,630.4" transform="translate(-1526.65 -198.02)"/><path class="cls-1" d="M1740.62,639.08" transform="translate(-1526.65 -198.02)"/><path class="cls-1" d="M1737.27,636.72" transform="translate(-1526.65 -198.02)"/><path class="cls-1" d="M1747.52,549.72" transform="translate(-1526.65 -198.02)"/><path class="cls-1" d="M1664.13,1101.4s-3.68,20.75,7,24.32,24-1,26,0,6.64,14.81,3.06,20.94-4.08,10.72-14.81,6.64-40.34-11.75-18.38-36.26,24,48.91,64.34,56.37,90.52,26.36,92,14.1,19.85-26-13.34-26.55-62.3,0-63.83-36.26-4.51-111.32-1.75-117.45-9-13.27-5.91-29.61,15.32-81.19,16.85-94.47,72-17.36,70.47-4.6-19.4,77.62-27.57,87.32,12.25,34.22,15.31,42.9-1.53,66.89-17.87,81.19,18.39,38.3,22,45.44-4.6,53.11,9.19,52.6,14.3-22.47-14.3-73.53,27.2-30.13,10.79-106.21c0,0-15.38-17.37-11.81-40.34s35.24-86.81,20.94-121.54,3.06-38.81,14.81-55.15,16.34-60.25,8.17-85.78,6.12-37.79-6.13-46.47-26-15.83-28.6-13.79,35.77,7.15,31.93,93.45c0,0,.89,19.4-29.31,12.25s-49.6-11.23-55.21-11.23S1722.78,772,1729.39,733s-18.89-13.79,11.23-94c0,0,6.64-10,23.49-19.66s20.68-20.17,20.68-24.51,1.79-18.38-11.23-18.12c0,0-5.11.25-4.85-3.83s-3.32-8.68-8.17-9.45,1.79-11.49-13-13.79" transform="translate(-1526.65 -198.02)"/><path class="cls-1" d="M1820.79,645.21S1807,643,1797.13,626s-7.49-31.66,2.39-46.64,9.87-7.15.68-18.38-6.13-9.88-11.92-20.43-12.59-15.66-3.74-20.76" transform="translate(-1526.65 -198.02)"/><path class="cls-1" d="M1800.54,536.06s-14.38-7-15.66-5.09a3.76,3.76,0,0,0,0,3.93" transform="translate(-1526.65 -198.02)"/><circle class="cls-1" cx="392.04" cy="231.66" r="26.67"/><line class="cls-1" x1="388.23" y1="225.54" x2="74.7" y2="0.81"/><line class="cls-1" x1="382.74" y1="228.93" x2="12.88" y2="4.93"/><line class="cls-1" x1="400.49" y1="235.41" x2="656.9" y2="381.69"/><line class="cls-1" x1="395.49" y1="240.02" x2="644.67" y2="419.77"/><path class="cls-1" d="M1584.88,1088.45s3.06-33.71,21.45-33.71-6.9-19.91,9.19-52.85,26-29.87,27.57-36.76" transform="translate(-1526.65 -198.02)"/><path class="cls-1" d="M1946.16,553" transform="translate(-1526.65 -198.02)"/><circle class="cls-2" cx="376.8" cy="246.9" r="11.87"/></g></svg>