<svg xmlns="http://www.w3.org/2000/svg" xmlns:xlink="http://www.w3.org/1999/xlink" viewBox="0 0 82.43 88"><defs><style>.cls-1,.cls-3{fill:none;}.cls-2{clip-path:url(#clip-path);}.cls-3{stroke:#0000f9;stroke-miterlimit:10;stroke-width:2px;}.cls-4{fill:#8fff3c;}</style><clipPath id="clip-path" transform="translate(-1018.02 -695.22)"><rect class="cls-1" x="426.02" y="695.22" width="674.43" height="392"/></clipPath></defs><g id="mas_objetos" data-name="mas objetos"><g class="cls-2"><path class="cls-3" d="M1091.74,740.64c-26.41,3.05-28.18,5.52-30.35,42.52-2.18-37-4-39.47-30.36-42.52,26.41-3,28.18-5.53,30.36-42.52C1063.56,735.11,1065.33,737.59,1091.74,740.64Z" transform="translate(-1018.02 -695.22)"/><path class="cls-4" d="M1097.64,738.61c-34.64,3.12-37,5.64-39.81,43.39-2.86-37.75-5.18-40.27-39.81-43.39,34.63-3.11,37-5.64,39.81-43.39,2.85,37.75,5.17,40.28,39.81,43.39" transform="translate(-1018.02 -695.22)"/></g></g></svg>