<svg id="mas_objetos" data-name="mas objetos" xmlns="http://www.w3.org/2000/svg" xmlns:xlink="http://www.w3.org/1999/xlink" viewBox="0 0 38.34 37.23"><defs><style>.cls-1{clip-path:url(#clip-path);}.cls-2{fill:none;stroke:#0000f9;stroke-miterlimit:10;stroke-width:3.41px;}.cls-3{fill:#0000f9;}</style><clipPath id="clip-path" transform="translate(-879.61 -872.6)"/></defs><g class="cls-1"><path class="cls-2" d="M913.43,877.14h0a8.44,8.44,0,0,0-12.88.32l-1.77,2.07-2.06-2.2a8.44,8.44,0,0,0-12.88.32,11.07,11.07,0,0,0,.29,14.42l14.59,15.63.24.26a.49.49,0,0,0,.75,0l14-16.39A11.08,11.08,0,0,0,913.43,877.14Z" transform="translate(-879.61 -872.6)"/><path class="cls-3" d="M913.72,877.14h0a8.44,8.44,0,0,0-12.88.32l-1.77,2.07-2.06-2.2a8.44,8.44,0,0,0-12.88.32,11.07,11.07,0,0,0,.29,14.42L899,907.7l.24.26a.49.49,0,0,0,.75,0l14-16.39a11.08,11.08,0,0,0-.28-14.42" transform="translate(-879.61 -872.6)"/></g></svg>