<svg xmlns="http://www.w3.org/2000/svg" viewBox="0 0 64.59 52.86"><defs><style>.cls-1{fill:none;stroke:#0000f9;stroke-miterlimit:10;stroke-width:5.17px;}</style></defs><g id="estrellitas"><path class="cls-1" d="M282.61,311.39c-1-2.25-8-18.79-7.93-18.61l19.66,11.82s0,.08,0,0L312.82,294l-6.58,13.54a.31.31,0,0,0,.23.43l17.17,4.54c.1,0,.1.15,0,.17l-16.86,4.5a.47.47,0,0,0-.32.68l7.43,12.33c.08.06,0,0,0,0l-17.7-8.05a.39.39,0,0,0-.52.18c-1.07,2.55-7.73,19.06-7.57,18.13l-3-17.18s0-.08-.06-.05l-20.59-2a.13.13,0,0,1-.05-.26l18.07-9.18A.29.29,0,0,0,282.61,311.39Z" transform="translate(-261.71 -290.2)"/></g></svg>