<svg xmlns="http://www.w3.org/2000/svg" viewBox="0 0 56.98 61.76"><defs><style>.cls-1{fill:none;stroke:#0000f9;stroke-miterlimit:10;stroke-width:5.17px;}</style></defs><g id="estrellitas"><path class="cls-1" d="M266.55,228.22a.06.06,0,0,0,0,.11L286,222.7s0,0,0,0,7.77,22.86,8,21.83l2.11-21.87s.09-.06.07,0,20.24,8.43,19.38,7.34l-13-11.89c-.15,0,0,0,0-.06l15.71-14.69c1-.22-17,6-17,6l0,0-8.79-21.3c0-.06-.11-.06-.12,0-.54,2.09-3.93,17.79-4.29,19a0,0,0,0,1-.08,0l-16.62-8.21a0,0,0,0,0-.06,0c.63,1.64,10.13,13.9,9.75,13.73Z" transform="translate(-263.94 -185.42)"/></g></svg>