<svg xmlns="http://www.w3.org/2000/svg" viewBox="0 0 56.83 55.41"><defs><style>.cls-1{fill:none;stroke:#0000f9;stroke-miterlimit:10;stroke-width:5.17px;}</style></defs><g id="estrellitas"><path class="cls-1" d="M291.11,729.83s.06.08.1,0l9.84-14.65h.05s16.9,9.36,16.26,8.59l-6.88-16s0-.1,0,0,14.52-12.23,13.11-12.32l-17.84,5c-.13.07,0,0,0,0L301,679.68c.5-.8-6.81,16.48-6.81,16.48s0,0,0,0l-22-3.75a.06.06,0,0,0-.08.09c1.19,1.65,12.23,10.05,12.92,11.07,0,0,0,.06,0,.07l-12.76,10.22s-.05.06,0,.07c1.65.58,18.14-2.47,17.75-2.32Z" transform="translate(-269.46 -677.07)"/></g></svg>