<svg xmlns="http://www.w3.org/2000/svg" viewBox="0 0 56.83 58.5"><defs><style>.cls-1{fill:none;stroke:#0000f9;stroke-miterlimit:10;stroke-width:5.17px;}</style></defs><g id="estrellitas"><path class="cls-1" d="M268.2,421.57a.06.06,0,0,0,0,.11L286,423.91s0,0,0,0,1.23,21,1.42,19.92l8.66-20s.09-.06.07,0,16.29,8.72,15.43,7.62l-9-12.17c-.15,0,0,0,0-.06l17.21-11.38c1-.22-18.48,2.69-18.48,2.69l0,0-6.77-19.95a.07.07,0,0,0-.13,0c-.54,2.08-4.75,18.44-5.1,19.69a0,0,0,0,1-.08,0l-14-12.68s-.08,0-.07,0c.64,1.64,6.35,16.37,6,16.2Z" transform="translate(-265.59 -387.98)"/></g></svg>