<svg xmlns="http://www.w3.org/2000/svg" xmlns:xlink="http://www.w3.org/1999/xlink" viewBox="0 0 27.58 27.58"><defs><style>.cls-1,.cls-4,.cls-5{fill:none;}.cls-2{clip-path:url(#clip-path);}.cls-3{fill:#0000f9;}.cls-4,.cls-5{stroke:#fff;stroke-miterlimit:10;}.cls-4{stroke-width:2.75px;}.cls-5{stroke-width:3.2px;}.cls-6{fill:#fff;}</style><clipPath id="clip-path" transform="translate(-94.22 -1044.3)"><rect class="cls-1" x="94.22" y="1044.3" width="27.58" height="27.58"/></clipPath></defs><g id="mas_objetos" data-name="mas objetos"><g class="cls-2"><path class="cls-3" d="M98.18,1071.87h19.66a4,4,0,0,0,4-3.95v-19.67a4,4,0,0,0-4-4H98.18a4,4,0,0,0-4,4v19.67a4,4,0,0,0,4,3.95" transform="translate(-94.22 -1044.3)"/><rect class="cls-4" x="5" y="5" width="17.57" height="17.57" rx="4.47"/><path class="cls-5" d="M111.77,1058.16a3.73,3.73,0,1,1-3.73-3.73A3.73,3.73,0,0,1,111.77,1058.16Z" transform="translate(-94.22 -1044.3)"/><path class="cls-6" d="M114.7,1052.66a1.26,1.26,0,0,1-2.52,0,1.26,1.26,0,0,1,2.52,0" transform="translate(-94.22 -1044.3)"/></g></g></svg>