<svg id="mas_objetos" data-name="mas objetos" xmlns="http://www.w3.org/2000/svg" xmlns:xlink="http://www.w3.org/1999/xlink" viewBox="0 0 190 24.56"><defs><style>.cls-1{fill:none;}.cls-2{clip-path:url(#clip-path);}.cls-3{fill:#0000f9;}</style><clipPath id="clip-path" transform="translate(-531.41 -471.48)"><rect class="cls-1" x="531.41" y="471.48" width="190" height="24.56"/></clipPath></defs><g class="cls-2"><path class="cls-3" d="M537.85,489.08a30.9,30.9,0,0,0-6.44-.61V475.33a31.26,31.26,0,0,1,6.4.6v2.34a6.36,6.36,0,0,1,6.24-1.23l.14,0a7.3,7.3,0,0,1,5.16,4.1,8.19,8.19,0,0,1,6.58-1.2l.17,0a10.19,10.19,0,0,1,2.81.88,5.4,5.4,0,0,1,1.85,1.4,6,6,0,0,1,.94,1.64,4.8,4.8,0,0,1,.3,1.65V494a32.38,32.38,0,0,1-6.44-.69V487c0-2-.87-3.15-2.6-3.54a2.48,2.48,0,0,0-2.26.34,2.55,2.55,0,0,0-.82,2.08V492c-2.54-.66-3.8-1-6.35-1.7V484c0-2-.86-3.24-2.58-3.64a2.41,2.41,0,0,0-2.27.41,2.73,2.73,0,0,0-.83,2.14Z" transform="translate(-531.41 -471.48)"/><path class="cls-3" d="M570.36,493.17a37.79,37.79,0,0,1-6.61.82V480.85a38.18,38.18,0,0,0,6.56-.81v2.34a12.11,12.11,0,0,1,6.57-4.14l.15,0c2.7-.69,4.52-.25,5.48,1.33a11.2,11.2,0,0,1,6.91-4.1l.17,0a6.61,6.61,0,0,1,2.89.17,4,4,0,0,1,1.88,1.18,5.45,5.45,0,0,1,.94,1.61,4.8,4.8,0,0,1,.3,1.65v8.46a29.23,29.23,0,0,0-6.57.45v-6.3c0-2-.9-2.89-2.71-2.53a3.9,3.9,0,0,0-3.25,3.89v6.13c-2.69.64-4,1-6.73,1.69v-6.31c0-2-.91-2.76-2.74-2.34a4.13,4.13,0,0,0-2.38,1.42,3.79,3.79,0,0,0-.86,2.45Z" transform="translate(-531.41 -471.48)"/><path class="cls-3" d="M607,480.74c-2.12-.73-3.36-.42-3.71.8,2.5.71,5,1.59,7.43,2.49-.26-1.41-1.5-2.53-3.72-3.29m10.19,9.05a4.09,4.09,0,0,1-.17,1.2,2.65,2.65,0,0,1-.77,1.09,3.09,3.09,0,0,1-1.58.76,8.69,8.69,0,0,1-2.79-.08,24.73,24.73,0,0,1-4.21-1.14l-1.27-.44a30.42,30.42,0,0,1-4-1.64,14.22,14.22,0,0,1-2.78-1.71A7.82,7.82,0,0,1,598,486a6.41,6.41,0,0,1-.87-1.91,7.51,7.51,0,0,1-.23-1.91v-.49c-.17-5.63,5.59-5.84,9.51-4.4l1.32.45a23.4,23.4,0,0,1,3.17,1.37,17.9,17.9,0,0,1,2.41,1.48,10.89,10.89,0,0,1,1.72,1.57,10.78,10.78,0,0,1,1.16,1.56,7.26,7.26,0,0,1,.69,1.56,8.5,8.5,0,0,1,.35,1.49,10.91,10.91,0,0,1,.08,1.43v.74c-4.69-1.51-9.3-3.26-14-4.73.25,1.69,1.55,2.85,3.9,3.66h0a9.92,9.92,0,0,0,1.54.41,3.29,3.29,0,0,0,1.06,0,1.52,1.52,0,0,0,.61-.22.88.88,0,0,0,.31-.29.65.65,0,0,0,.09-.24c2.57.92,3.86,1.41,6.43,2.17Z" transform="translate(-531.41 -471.48)"/><path class="cls-3" d="M618.49,494.89V481.75a27.06,27.06,0,0,0,6.47,1.14v2.32a16.21,16.21,0,0,1,6.66-3.38l.14-.05a13.25,13.25,0,0,1,3-.61,3.33,3.33,0,0,1,2,.37,2.59,2.59,0,0,1,1,1.09,3.32,3.32,0,0,1,.33,1.51v8.46a33.48,33.48,0,0,1-6.55,2.68V489a2.47,2.47,0,0,0-.75-2,3.07,3.07,0,0,0-2.36-.36,4.33,4.33,0,0,0-2.52,1,3,3,0,0,0-.91,2.27V496a27,27,0,0,1-6.51-1.15" transform="translate(-531.41 -471.48)"/><path class="cls-3" d="M651.36,480.43v-.56a45.27,45.27,0,0,0-4.31,2.63,5.58,5.58,0,0,0-1.22,1,1.38,1.38,0,0,0-.36.91v0a.67.67,0,0,0,.48.7,2.45,2.45,0,0,0,1.55-.37,8.44,8.44,0,0,0,2.8-2,3.62,3.62,0,0,0,1.06-2.31m.12,3.84a16,16,0,0,1-6,4.7l-.26.14c-2,1-3.51,1.46-4.49,1.16a2,2,0,0,1-1.48-2.23v-.29a5.3,5.3,0,0,1,1.21-3.27,15,15,0,0,1,4-3.32,55.13,55.13,0,0,1,6.2-3.47q.72-.35.72-.9a.51.51,0,0,0-.15-.42c-.11-.09-.38-.11-.82-.05a6.85,6.85,0,0,0-1.83.61l-.1,0a10.14,10.14,0,0,0-1.58.88,3.58,3.58,0,0,0-.88.84,3.13,3.13,0,0,0-.34.58,1.87,1.87,0,0,0-.1.45c-2.41,1.24-3.62,1.94-6,3.2v-.15a6.37,6.37,0,0,1,.11-1.2,5.87,5.87,0,0,1,.59-1.46,7.92,7.92,0,0,1,1.31-1.77,17.93,17.93,0,0,1,2.44-2,23.77,23.77,0,0,1,3.82-2.24l1.34-.61a14.64,14.64,0,0,1,4-1.17,6.29,6.29,0,0,1,2.54.13,2.92,2.92,0,0,1,1.37.87,2.78,2.78,0,0,1,.61,1.07,5.37,5.37,0,0,1,.11,1.14v4.86a.49.49,0,0,0,.55.56l.71,0v3.84a14.65,14.65,0,0,0-5.43.59c-1.2.32-1.9,0-2.09-1.11" transform="translate(-531.41 -471.48)"/><path class="cls-3" d="M676.68,483.09V483a4,4,0,0,0-1.36-2.61,9.49,9.49,0,0,0-3.77-2.27l-.15-.05c-1.62-.56-2.76-.63-3.44-.26a1.93,1.93,0,0,0-1,1.86v.12a3.85,3.85,0,0,0,1.09,2.5,7.77,7.77,0,0,0,3.4,2.05l.12,0a6.34,6.34,0,0,0,3.79.43,1.68,1.68,0,0,0,1.34-1.68m0-11.61c2.73,1,5.45,2,8.21,2.89v18.17c-2.76-.87-5.47-1.88-8.18-2.87v-1.91a3.9,3.9,0,0,1-1.14.39,10.31,10.31,0,0,1-2.56-.06,20,20,0,0,1-4.11-.93l-.5-.15c-2.4-.87-5-1.7-6.89-3.6a6.93,6.93,0,0,1-2.07-5v-.51a6.28,6.28,0,0,1,.44-2.39,4.86,4.86,0,0,1,1.38-1.88,4.67,4.67,0,0,1,2.68-.95,11.41,11.41,0,0,1,4.22.62l.56.18a19.26,19.26,0,0,1,8,4.7Z" transform="translate(-531.41 -471.48)"/><path class="cls-3" d="M697.5,484.28c-2,.15-3.32.69-3.69,2a19.43,19.43,0,0,0,7-.46c-.22-1.27-1.21-1.67-3.28-1.51m8.33,3.57a6.88,6.88,0,0,1-.12,1.29,6.73,6.73,0,0,1-.58,1.54,6.21,6.21,0,0,1-1.19,1.68,7.92,7.92,0,0,1-2.2,1.52,10.35,10.35,0,0,1-3.62,1l-1.19.09a10.9,10.9,0,0,1-4.1-.56,11,11,0,0,1-3.11-1.65,9.09,9.09,0,0,1-2-2.07,7.09,7.09,0,0,1-1-2.1,7.32,7.32,0,0,1-.28-2v-.49c-.22-5.44,7-4.88,10.43-5,.51,0,.75-.05,1.24-.1,1.06-.1,2-.18,2.77-.2a9.1,9.1,0,0,1,2,.14,3.42,3.42,0,0,1,1.33.57,3.5,3.5,0,0,1,.88.88,4.28,4.28,0,0,1,.52,1.16,7,7,0,0,1,.25,1.29,11.78,11.78,0,0,1,.07,1.38V487a30.5,30.5,0,0,1-12.14,2c.27,1.64,1.7,2.6,3.88,2.43h0a5.42,5.42,0,0,0,1.4-.28,3.23,3.23,0,0,0,.92-.48,2.17,2.17,0,0,0,.52-.53,1.83,1.83,0,0,0,.27-.46,2.26,2.26,0,0,0,.08-.3,28.72,28.72,0,0,0,5-1.5Z" transform="translate(-531.41 -471.48)"/><path class="cls-3" d="M712.61,490.35c-2.3,1-6.5,1.55-6.32-2.24v-.17c2-.74,2.88-1.17,4.85-1.91,0,1.06.68,1.34,2,.92h0a4.93,4.93,0,0,0,1.66-.78,1.24,1.24,0,0,0,.45-.92v0a.67.67,0,0,0-.4-.7,2.86,2.86,0,0,0-1.56.17c-.85.23-1.26.36-2.07.63-3.29,1.08-4.86.4-4.86-2.21v-.15a5.47,5.47,0,0,1,.24-1.64,5.77,5.77,0,0,1,.89-1.63,6.93,6.93,0,0,1,1.89-1.69,14.19,14.19,0,0,1,3.19-1.51l1-.31a10.05,10.05,0,0,1,3.45-.5,4.88,4.88,0,0,1,2.35.63,3.43,3.43,0,0,1,1.19,1.22,3.32,3.32,0,0,1,.35,1.53v.18a21.45,21.45,0,0,0-5.8.76c-.08-.79-.79-1-2-.64h0a4.26,4.26,0,0,0-1.51.73,1.08,1.08,0,0,0-.39.83v0a.5.5,0,0,0,.38.54,3.08,3.08,0,0,0,1.43-.2c.83-.24,1.25-.35,2.13-.54a8.18,8.18,0,0,1,3.78-.05,3.21,3.21,0,0,1,2,1.24,4.07,4.07,0,0,1,.53,2.22v.17a4.57,4.57,0,0,1-.2,1.39,3.38,3.38,0,0,1-.75,1.24,5.22,5.22,0,0,1-1.45,1.1,16.39,16.39,0,0,1-2.28,1c-.92.33-2,.66-3.1,1-.41.13-.62.19-1,.33" transform="translate(-531.41 -471.48)"/></g></svg>