<svg id="fondos" xmlns="http://www.w3.org/2000/svg" viewBox="0 0 28.13 28.13"><defs><style>.cls-1{fill:#0000f9;}.cls-2{fill:#d788b3;}.cls-3{fill:#c6e2f8;}.cls-4{fill:#fcfdff;}</style></defs><path class="cls-1" d="M257.15,1050.57h20.06a4,4,0,0,0,4-4v-20.06a4,4,0,0,0-4-4H257.15a4,4,0,0,0-4,4v20.06a4,4,0,0,0,4,4" transform="translate(-253.12 -1022.43)"/><path class="cls-2" d="M274.93,1031.84v2.42h0a8.64,8.64,0,0,1-3-.52l-.45-.19v.16a6.8,6.8,0,0,0,1.6.86,8.46,8.46,0,0,0,3,.52h0v-3.15a6.6,6.6,0,0,1-1.16-.1m-3.46-4.64h0v2.49a3.84,3.84,0,0,0,.9.79c.13.07.26.15.4.21a5.45,5.45,0,0,1-.37-.47,5.12,5.12,0,0,1-.51-1,7,7,0,0,1-.36-1.41c0-.19,0-.34,0-.45a.31.31,0,0,0,0-.11v0Z" transform="translate(-253.12 -1022.43)"/><path class="cls-2" d="M266.18,1034.25a7.46,7.46,0,0,0-1.16.09v2.22h0a4.31,4.31,0,0,0-2.16.57,3.24,3.24,0,0,0-1.32,1.36,2.54,2.54,0,0,0-.26,1.13v.06h0a2.89,2.89,0,0,0,.51,1.59,2.76,2.76,0,0,0,1.23,1l.08,0a1.77,1.77,0,0,1-.16-.22,3,3,0,0,1-.51-1.59v-.06a2.76,2.76,0,0,1,.27-1.13A3.33,3.33,0,0,1,264,1038a4.37,4.37,0,0,1,2.17-.56h0Zm4.11-1.37,0,7.39v.07a5.91,5.91,0,0,1-.41,1.63,5.72,5.72,0,0,1-.82,1.37,6.27,6.27,0,0,1-2.45,1.81,6.7,6.7,0,0,1-2,.48h0l-.51,0h0a5.91,5.91,0,0,1-2.3-.47,4.83,4.83,0,0,1-.56-.27,5.9,5.9,0,0,0,4,1.58h0l.51,0a6.53,6.53,0,0,0,2-.47,6.3,6.3,0,0,0,2.45-1.81,5.6,5.6,0,0,0,.82-1.38,5.74,5.74,0,0,0,.41-1.63v-.07l0-7.39v-.16a6.79,6.79,0,0,1-1.15-.67m.12-5.7a5.67,5.67,0,0,0,.31,1.19,4.84,4.84,0,0,0,.52,1,3.46,3.46,0,0,0,.22.31v-2.49h-1.06Z" transform="translate(-253.12 -1022.43)"/><path class="cls-3" d="M272.76,1030.69a3.81,3.81,0,0,0,.75.62,4,4,0,0,0,1,.43l.44.1v-.73a5.59,5.59,0,0,1-1.6-.21,4.79,4.79,0,0,1-.57-.21m-2.44-4.32v.81h.1a2.4,2.4,0,0,1,0-.24c0-.19,0-.34-.05-.44v-.14Zm-3.15,0v0h0Z" transform="translate(-253.12 -1022.43)"/><path class="cls-4" d="M271.46,1029.69l0,3.86.45.19a8.64,8.64,0,0,0,3,.52h0v-2.42l-.44-.1a4,4,0,0,1-1-.43,3.81,3.81,0,0,1-.75-.62,3.75,3.75,0,0,1-.4-.21,3.84,3.84,0,0,1-.9-.79" transform="translate(-253.12 -1022.43)"/><path class="cls-4" d="M270.32,1027.18l0,5.7a6.79,6.79,0,0,0,1.15.67l0-3.86a3.46,3.46,0,0,1-.22-.31,4.84,4.84,0,0,1-.52-1,5.67,5.67,0,0,1-.31-1.19Z" transform="translate(-253.12 -1022.43)"/><path class="cls-3" d="M265,1033.41a7.37,7.37,0,0,0-4.77,1.72,6.27,6.27,0,0,0-1.53,2,5.63,5.63,0,0,0-.59,2.52v.13h0a6.07,6.07,0,0,0,1.78,4.17,5.89,5.89,0,0,0,1.32,1l-.17-.16a6.05,6.05,0,0,1-1.77-4.17v-.12a5.62,5.62,0,0,1,.58-2.52,6.05,6.05,0,0,1,1.54-2,7.08,7.08,0,0,1,3.61-1.63Zm2.15-7.07h0v0l-.07,13.73a2.41,2.41,0,0,1-.27.86,2.72,2.72,0,0,1-1,1,3.37,3.37,0,0,1-1.48.49h-.25a2.72,2.72,0,0,1-1-.18,2.9,2.9,0,0,0,1.07.8,2.74,2.74,0,0,0,1.08.22h.24a3.55,3.55,0,0,0,1.49-.49,2.87,2.87,0,0,0,1-1,2.41,2.41,0,0,0,.27-.86l.06-13.76h2v-.81h0Z" transform="translate(-253.12 -1022.43)"/><path class="cls-4" d="M264.63,1045.63h0Zm3.69-18.46-.06,13.76a2.4,2.4,0,0,1-.27.87,2.87,2.87,0,0,1-1,1,3.55,3.55,0,0,1-1.49.49h-.24a2.74,2.74,0,0,1-1.08-.22,2.9,2.9,0,0,1-1.07-.8l-.08,0a2.76,2.76,0,0,1-1.23-1,2.89,2.89,0,0,1-.51-1.59h0v-.06a2.54,2.54,0,0,1,.26-1.13,3.24,3.24,0,0,1,1.32-1.36,4.31,4.31,0,0,1,2.16-.57h0v-2.22a7.08,7.08,0,0,0-3.61,1.63,6.05,6.05,0,0,0-1.54,2,5.61,5.61,0,0,0-.58,2.51v.13h0a6.05,6.05,0,0,0,1.77,4.17l.17.16a5.77,5.77,0,0,0,.56.27,5.91,5.91,0,0,0,2.3.47h0l.52,0h0a6.7,6.7,0,0,0,2-.48,6.27,6.27,0,0,0,2.45-1.81,5.72,5.72,0,0,0,.82-1.37,5.91,5.91,0,0,0,.41-1.63v-.07l0-7.39,0-5.7Z" transform="translate(-253.12 -1022.43)"/></svg>