<svg xmlns="http://www.w3.org/2000/svg" xmlns:xlink="http://www.w3.org/1999/xlink" viewBox="0 0 1123.18 684.64"><defs><style>.cls-1,.cls-11,.cls-2,.cls-4,.cls-6{fill:none;}.cls-2{stroke:#0000f9;}.cls-11,.cls-2,.cls-4,.cls-6{stroke-miterlimit:10;stroke-width:1.45px;}.cls-3{fill:#8fff3c;}.cls-4{stroke:#8fff3c;}.cls-5{fill:#fff;}.cls-6{stroke:#322b80;}.cls-7{fill:#7f67bb;}.cls-8{fill:#0000f9;}.cls-9{opacity:0.17;}.cls-10{clip-path:url(#clip-path);}.cls-11{stroke:#da00f9;}.cls-12{clip-path:url(#clip-path-2);}.cls-13{clip-path:url(#clip-path-3);}.cls-14{clip-path:url(#clip-path-4);}.cls-15{clip-path:url(#clip-path-5);}.cls-16{clip-path:url(#clip-path-6);}.cls-17{clip-path:url(#clip-path-7);}.cls-18{clip-path:url(#clip-path-8);}.cls-19{clip-path:url(#clip-path-9);}.cls-20{clip-path:url(#clip-path-10);}.cls-21{clip-path:url(#clip-path-11);}</style><clipPath id="clip-path" transform="translate(-34.36 -75.64)"><rect class="cls-1" x="977.25" y="502.41" width="7.51" height="19.09"/></clipPath><clipPath id="clip-path-2" transform="translate(-34.36 -75.64)"><rect class="cls-1" x="1.94" y="476.96" width="899.41" height="45.19"/></clipPath><clipPath id="clip-path-3" transform="translate(-34.36 -75.64)"><rect class="cls-1" x="935.17" y="511.39" width="38.4" height="244.48"/></clipPath><clipPath id="clip-path-4" transform="translate(-34.36 -75.64)"><rect class="cls-1" x="977.19" y="509.46" width="72.3" height="244.86"/></clipPath><clipPath id="clip-path-5" transform="translate(-34.36 -75.64)"><rect class="cls-1" x="34.46" y="408.3" width="745.51" height="52.83"/></clipPath><clipPath id="clip-path-6" transform="translate(-34.36 -75.64)"><rect class="cls-1" x="34.52" y="336.76" width="751.11" height="81.1"/></clipPath><clipPath id="clip-path-7" transform="translate(-34.36 -75.64)"><rect class="cls-1" x="34.57" y="246.11" width="758.77" height="99.02"/></clipPath><clipPath id="clip-path-8" transform="translate(-34.36 -75.64)"><rect class="cls-1" x="1026.89" y="285.94" width="45.58" height="108.46"/></clipPath><clipPath id="clip-path-9" transform="translate(-34.36 -75.64)"><rect class="cls-1" x="977.25" y="461.22" width="10.21" height="54.52"/></clipPath><clipPath id="clip-path-10" transform="translate(-34.36 -75.64)"><rect class="cls-1" x="845.14" y="454.48" width="33.03" height="300.33"/></clipPath><clipPath id="clip-path-11" transform="translate(-34.36 -75.64)"><rect class="cls-1" x="751.22" y="448.44" width="91.07" height="305.96"/></clipPath></defs><g id="fondos"><path class="cls-2" d="M935.22,466.1s13.18,27.48,16.58,34c3.63,7-1.54,8.87-1.54,8.87-18.38,8.08-29.7,10.15-29.7,10.15-21.14-1.65-44.5-8.59-44.5-8.59l-.27,4.28s33.26,8.6,44.3,9.21c0,0,21.21-5.66,35.61-7.44a150.8,150.8,0,0,1,24.57-1.21l.34-6.62s-15.89.17-19.67-7.65-17.52-35-17.52-35" transform="translate(-34.36 -75.64)"/><path class="cls-2" d="M875.57,510.07l17-8.64s7.06-3.66,2-11c-4.75-7-18.55-27.44-18.55-27.44" transform="translate(-34.36 -75.64)"/><path class="cls-2" d="M793.25,351s-5.51,25.54-6.72,43.58-5.79,30,2,30.25,69.82,5.84,95.78,3.56,79.24-1.4,87.58-1.4,11.7-1.15,15.06-1.65,1.48-2.42,2.16-8.26,4.84-19.32,5.65-25.42,10.49-60.61,12.64-67.73,7.8-41.81,7.8-41.81,1.75-5.34-3.22-3.94-14.4,4.2-21.53,4.45S960.19,288,946.2,290s-19.23,4.7-27.84,5.85-6.46-.26-31.88,5.84-35.25,4.83-50.72,7.75-31.21,6.1-31.21,6.1-5.78.13-6.46,6.86S793.25,351,793.25,351Zm195,115.82s13.77,1.47,16.39-16.26,10.09-63.09,10.09-63.67,2.83-18.48,5.45-36.4,4.64-21.92,6.06-29,3.83-40.79,3.83-40.79,2.82-13.68-11.91-15.23M791.88,316.19a8.57,8.57,0,0,0,.42-2.06c.13-1.63.91-4.9,4.92-5.11,5.35-.29,27.24-5.43,32.49-7.34s40.15-8.77,49.84-10.48,70-14.87,76.68-15.25,29.25-5.34,37.33-7.05,44.19-10.68,47.82,9.91-5.45,40-5.85,62.14-12.51,62.33-14.13,89.2.81,36.54-26.84,36.66-31.47-1.39-46.4-.82-103.39-5-121.82-8.13-35.91-4.83-40.49-5.09-11.84-.89-11.43-6,2.15-24.27,2.29-28.46a78.82,78.82,0,0,1,3.22-21.61c2.83-8.89,7.3-67,9.82-74.34ZM902.55,499s6.16.1,11.55.81m6.48,19.29a16.2,16.2,0,0,1-.47,4.89" transform="translate(-34.36 -75.64)"/><path class="cls-3" d="M966,355.19c3.18,5.58,1.11,28,1.11,28s-5-2.24-7-3.25-3.89-1.57-3.84-5.58S954.84,362,954.84,362c-.38-2.39,2-3.6,2-3.6,6.61-5,9.09-3.22,9.09-3.22m-36,44.45c-6.09.58-10,4.46-12.29,4.87s-8.24-.86-8.24-.86c3.93-6.81,8.28-7.35,9.52-7.35s6,.61,10.81-.55c5.22-1.26,22.42-12.55,22.42-12.55C951,394,936.08,399.07,930,399.64m53.26-99.85c1,19.71-7,27.82-10.54,25.53s-18-.7-18-.7-1.26,9-3,13.06a24.77,24.77,0,0,0-1,15.07c1.32,5,1,6.71,1,6.71-13.34,11.7-30.94,13.46-31.67,13.52.16-.07,1-1.07,3.7-11.92a53.24,53.24,0,0,0,.36-22.87s-15.9,8.53-19.59,10.91c-5.65,3.65-14.13,8.91-14.13,8.91.74-.34,5.43,1.45,5.43,1.45.1,14-8.53,14.43-11.21,17.49S883,387.3,883,387.3c5.92-6.48,31.3-9.68,31.3-9.68s-1.22,5.48.9,6.91,4.6,5.73,4.6,5.73c-7.52-3.67-19.14,1.61-23.68,4-4.19,2.17-13.67,4.34-13.67,4.34,1.12,2.28.28,11.68.28,11.68-13.6-1.59-26,.44-26.16,1.69s-1.31,7.44-1.31,7.44l27.78-.16c-.27-7,1.24-8.56,1.24-8.56,4.47.7,14.45-.67,16.3-1.62s6.65-2.64,6.65-2.64c-.76,1.81-1.47,12.75-1.47,12.75l9.4-.35c-.3-7,3.43-10.73,3.43-10.73,3.33,4.1,10.2,5.34,13.94,5.72s8-1.29,9.74-2.14a43.36,43.36,0,0,1,7-1.87c-1.7,1.82-3.67,8.86-3.67,8.86s27.78.16,30.1,0,4.19-2.92,4.19-2.92l1-12.15c-9.08-1.81-15.88-.86-19.42.42s-5.75.39-5.75.39c6.21-3.73,10.75-16.8,10.75-16.8,2.37,6.2,15,10.62,15,10.62l.2-1.4a165.79,165.79,0,0,1,4-18.26C987.05,373.61,990,361,990,361s-5.84-1.72-8.72-4.11c-3.14-2.6-13.59-4.82-13.59-4.82-2.42-3.53-2-9.73-2-9.73.21-10.45,8-14.36,8-14.36a37.43,37.43,0,0,0,23,7c.75-.82,3.75-15.27,3.85-16.13s1.82-14,1.82-14c-7-5-19.07-5-19.07-5" transform="translate(-34.36 -75.64)"/><path class="cls-4" d="M921.12,303.15s5.41,16.19,3.28,32.77L924,338.7s16.54-13.23,31-14c0,0,2.44-20.42-2.23-26.46m-84.29,15.43s4.15,48.86-4.1,54.1-12.29,13.56-10,22.63,4.46,10.93.81,29.11m-21-99.7s1.14,11.6,7.22,18.69,4,22.69-8.52,23.87c-6.08.58-9.43-10.14-14-.29,0,0-2.13,4.41,3.05,11.22s9.42,12.87,6.38,45.16m-25.55-83.73a10.67,10.67,0,0,1,6.66-1.66c3.44.51,7.5,3.32,13.66,2s11.9-5.43,17.78-5.3,28.67,3.32,31.58.32,5.21-4.6,8.86-4.6c3.2,0,18.95,1.27,22.83,1.59a20.64,20.64,0,0,0,2.08.06c4.44-.14,20.59-1.37,38.35-11.88,20.9-12.36,23.23-16.29,38.65-16.2a12.36,12.36,0,0,0-2-8.81M798.6,357.42s5.79.79,8.74,0,7.15-2,16.29-1.14,13.8,2.51,17.59.76,4.73-4.67,10.62-4.44,15.41,5.79,19.88,6.23,14.47,1.22,18.66-.95c0,0-6.29-4.8-2.3-8.7s17.79-7.28,20.9-11.37,6.36-9.84-.68-18-1.22-14.34-1.22-14.34m-92.58,15.7s3.39,11.42,1.77,17.05-5.55,4.21-6.09,9.45.4,11.38.81,16.36,2.16,12.28,1.22,21.09.95,15.22,1.15,20.33a106.94,106.94,0,0,1-.75,13.1m-22.49-7.69s28.17,2.86,39.74,2.19,27.28-1.72,27.28-1.72m-63.75-32.86a26.2,26.2,0,0,1,10-1.56c5,.39,21.2,1.92,27.8-1.44S848,369,855.62,373.79s1.93,12.37,12.78,13.61,14.71-.86,14.71-.86l-.61,12.39c-3.75.69-22.72-.12-33.17,1s-41.69-2.3-47-2.3A51.6,51.6,0,0,0,791,399.3m14.92-75.87s3.17,1.92,2,10.22-2.84,16-2.7,18.57-1.09,9.9-2.85,12.8-5.13,16.44-3.11,28.45,3.38,16.61,1.49,25.12m-9.47-23.2s-.94,17.51-1.75,19.56,1.48,3.58,5.81,3.45,9.47.91,17.85,0,36.79,1.66,44.91,1,43.82.77,61.27-.77,46.4,2.3,58.32-.52a3.66,3.66,0,0,0,2.84-3c.36-2.49.51-16.82,4.16-30.62s3.38-11.64,6.9-28.64,8.25-27.35,9.06-33.36,1.76-18.66,3.65-23.39,1.22-12.78,1.22-12.78,4.63-5-52.68,11.89c0,0-3.25,1.24-29.42,4.6s-32,7.77-54.87,10.83-29.42,6.23-41.69,6.91-22.52,0-23,6.61-5.58,33.94-7.51,40A117.08,117.08,0,0,0,791.24,395.39Z" transform="translate(-34.36 -75.64)"/><path class="cls-5" d="M881.74,655.07c0-1-.08-2.09-.13-3.13a19.46,19.46,0,0,1-.08-3.05l-.17.65c-.07.18-.55.2-.07.15l.67-.05c.53,0,1.06,0,1.59,0,1,0,2,0,2.93.06q3.1.09,6.21.27c4,.23,8.1.55,12.15.9a23.88,23.88,0,0,1,6.5,1.06c.11-.85.22-1.7.32-2.54a110.38,110.38,0,0,1-14,.33c-4.62-.19-9.23-.92-13.86-.85a1.31,1.31,0,0,0-1,1.95c1.06,1.62,3.08,1.58,4.75,1.73,1.9.18,3.81.22,5.73.24,3.89.05,7.79.06,11.68.08-.2-.8-.4-1.61-.61-2.41a6.28,6.28,0,0,1-2.64.55c-1.09,0-2.18.07-3.26.07q-3.3,0-6.57-.29a1.26,1.26,0,0,0-1.21,1.29,1.28,1.28,0,0,0,1.21,1.3q3.51.32,7,.29c2.21,0,4.62.1,6.65-1a1.33,1.33,0,0,0-.61-2.42l-10.75-.07c-1.71,0-3.43,0-5.15-.14-.85,0-1.71-.12-2.56-.22-.3,0-1.41,0-1.61-.34l-1,2c4.63-.06,9.24.67,13.86.85a108.54,108.54,0,0,0,14-.33,1.32,1.32,0,0,0,.33-2.55c-2.39-.91-5-1-7.51-1.18s-5.24-.44-7.86-.62-5.25-.34-7.87-.45a50.63,50.63,0,0,0-7.69,0,2,2,0,0,0-1.71.93,4.22,4.22,0,0,0-.22,2.26c.07,1.59.13,3.18.2,4.76a1.21,1.21,0,1,0,2.41,0" transform="translate(-34.36 -75.64)"/><path class="cls-5" d="M883.08,655.86c6.7,1,14.06,2.42,20.85,2.41,1.68,0,2.88-2.8,4.56-2.79a39.28,39.28,0,0,0,4.85-.13c3.61-.47,7-2.14,10.33-3.7s7.25-3.19,9-6.78c.88-1.8.48-4.32-1.3-5.33a3.56,3.56,0,0,0-5,1.4c-.08.18-.18.34-.28.52-.32.61.56-.64.12-.17-.13.14-.25.28-.39.42a3.45,3.45,0,0,1-.28.26l.44-.36a8.29,8.29,0,0,1-2,1.3c-1.66.91-3.35,1.73-5.06,2.51l.87-.39a30.2,30.2,0,0,1-7.45,2.68l1-.14a58.49,58.49,0,0,1-7.49.12c-2.52,0-5,0-7.55,0q-7.62.09-15.22.36a3.82,3.82,0,0,0-3.62,3.89c.08,2,1.59,4,3.62,3.89" transform="translate(-34.36 -75.64)"/><path class="cls-5" d="M933.42,646.8a44,44,0,0,0,2.92-3.73c.18-.25.36-.49.52-.75a6.22,6.22,0,0,0,.74-2.65c.08-.68.08-1.38.11-2.08a4.06,4.06,0,0,0-1.06-2.75,3.44,3.44,0,0,0-5.12,0,4.38,4.38,0,0,0-1.07,2.75c0,.69,0,1.4-.11,2.08,0-.34.09-.69.13-1a1.87,1.87,0,0,1-.08.34c.13-.31.25-.62.37-.93a5.86,5.86,0,0,1-.79,1.23l.57-.78a35.9,35.9,0,0,1-2.26,2.8,4.21,4.21,0,0,0-1.06,2.75,4.16,4.16,0,0,0,1.06,2.75,3.52,3.52,0,0,0,2.57,1.14,3.65,3.65,0,0,0,2.56-1.14" transform="translate(-34.36 -75.64)"/><path class="cls-2" d="M937.19,640.5c0,.88,0,1.16-.34,1.52l-13.11,17.17a1.27,1.27,0,0,1-1.09.48l-42-3.37c-.89-.07-1.22-.6-1.22-1.46" transform="translate(-34.36 -75.64)"/><line class="cls-2" x1="845.02" y1="579.29" x2="845.03" y2="570.32"/><line class="cls-6" x1="845.02" y1="579.39" x2="845.02" y2="579.29"/><line class="cls-2" x1="888.84" y1="584.13" x2="888.84" y2="574.62"/><line class="cls-2" x1="902.79" y1="565.45" x2="902.91" y2="558.36"/><path class="cls-5" d="M889.69,647.63l13.7-8.15a1.27,1.27,0,0,1,.6-.15l29.13.44" transform="translate(-34.36 -75.64)"/><path class="cls-6" d="M889.69,647.63l13.7-8.15a1.27,1.27,0,0,1,.6-.15l29.13.44" transform="translate(-34.36 -75.64)"/><path class="cls-5" d="M932.79,639.62l-9,10.07a1.28,1.28,0,0,1-1.09.47l-42-3a1.42,1.42,0,0,1-.5-2.65l23.12-12.87a1.27,1.27,0,0,1,.6-.15l32.11,1.17a1.42,1.42,0,0,1,1,2.33Z" transform="translate(-34.36 -75.64)"/><path class="cls-2" d="M932.79,639.62l-9,10.07a1.28,1.28,0,0,1-1.09.47l-42-3a1.42,1.42,0,0,1-.5-2.65l23.12-12.87a1.27,1.27,0,0,1,.6-.15l32.11,1.17a1.42,1.42,0,0,1,1,2.33Z" transform="translate(-34.36 -75.64)"/><path class="cls-7" d="M911.49,641.83l8.1,2.19c-1-.68-3.19-2.15-4.77-3.19l-.11-.07.12-.07,5.75-2.17-6.37.09H914c-.26,0-.48-.26-2.37-3.09l-1.53,3.36-.32,0-.15,0c-.43-.15-5.13-1.86-7.1-2.59l3,3.88v.08l-.17,0c-2.23.43-5.29,1-6.89,1.36l8.76.05.16,0,.29.15-.09.05.06,2.68c.74-.57,2.2-1.82,3.18-2.67l0,0,.3-.07Zm3.93-1c5.42,3.58,5.4,3.58,5.14,3.67l-.19.06-.17-.07-9-2.41c-3.48,3.06-3.66,3-3.94,3l-.22,0v-.12l-.06-3-9.7,0-.2,0-.14-.1c-.07-.06-.1-.09.16-.16s.59-.13,1.2-.25l2.74-.54,3.8-.76-3.23-4.18.19-.06a.81.81,0,0,1,.27,0l.11,0,7.42,2.71,1.69-3.67h.46l.08.1c.95,1.43,2,3,2.33,3.36l7.27-.1.19.17-.15.06Z" transform="translate(-34.36 -75.64)"/><path class="cls-8" d="M911.62,635.52c1.89,2.83,2.11,3.05,2.32,3.08l.25,0,6.39-.1-5.75,2.17-.12.07.11.07c1.58,1,3.78,2.51,4.77,3.19l-8.11-2.18-.39-.09-.3.07,0,0c-1,.86-2.44,2.11-3.18,2.68l-.06-2.68.09-.05-.29-.15-.16,0-8.76-.05c1.6-.32,4.66-.93,6.89-1.36l.17,0v-.08l-3-3.88c2,.73,6.67,2.44,7.1,2.59l.15,0,.32,0Z" transform="translate(-34.36 -75.64)"/><path class="cls-2" d="M975.46,466.1s-9,38,17.88,42.23,92.38,16.43,96.85,16.43,1.49,61-4.47,106c0,0-8.2,9.81-29.06,4.93s-26.82-8.75-44-3.52-49.92-9.15-18.63-15.49,46.94-12.67,55.13-2.81,11.15,23.53-16,23.53-35.37-8.14-49.53.36-23.1-.66-46.4-.66" transform="translate(-34.36 -75.64)"/><path class="cls-2" d="M901,652.63c-1.49,2.12-8.94.71-10.43.71s-2.23.7-2,1.59a4.14,4.14,0,0,0,.55,1.22,8.23,8.23,0,0,0,1.2,1.5c8.57,8.61,41.3,11.06,18.09,21.73-24.5,11.26-82.61-9.22-107.2.32s-23.84,37-6,33.47c0,0-.74-2.82.75-2.82a8.09,8.09,0,0,0,3-.7s-.75-2.11,1.49-2.11,2.23,5.63,3,7.74c.33,1-.09,1.47-.72,1.51s-1.85-.66-2.26-2.21l-.75-2.82-.74-2.11" transform="translate(-34.36 -75.64)"/><g class="cls-9"><g class="cls-10"><path class="cls-11" d="M978.8,508.76q-.06,3.19-.06,6.4" transform="translate(-34.36 -75.64)"/></g></g><g id="lineas"><g class="cls-9"><path class="cls-11" d="M35,203.07l2,5c10.36,25.81,35.11,95.84,33.52,172.37C68.59,477,30.7,542.11,51.64,624c12.41,48.56,16.79,94.36,18.3,123.61l0,3.39M71.06,96.85c-9.93,23.32-25.65,81.21,21.49,149.52,61.52,89.15-2.31,51.27,36,219.62s-18,150,20,248.89A325.16,325.16,0,0,1,160.2,751m44.09.06c.66-18.4,4.9-44,19.42-71.91,28.61-55.09-59.26-87.64-51.27-156.66s-7.25-92.11-14.61-149.59-6.62-106.08,0-144.08-39.31-52.77-41.31-138c0,0-.37-12.29-.37-15.17m60.28.67c0,8.42-56.22,62.89,26.81,100.47,0,0,41.1,10-12.83,84.4s29.67,93.25,27.82,285c0,0-1.59,59.62,48.42,77.83s4.31,1.12-7,95.4c-1.38,11.49-2.62,22-3.74,31.48m28.21,1.76c-3.07-14.77-4-39.45,7.48-75.72,20.64-65.27,31.29-53.48,8-102.3s-77.22-64-55.25-175.09-27.34-157-5.16-200.34-28.8-77.07-16.81-108.4m51.92-14.5c-20,10.1-28,21.25,0,78s34.15,111.81,32,173.49-39.73,93.66-15.92,161,33.14,27.61,35.8,126.84,24.18,130.74,14.09,144.21M342.2,76.33s-88.38,28.59-34.2,75.74,68.15,80.83,52.17,116.18-55.92,66.42-30,144.32,69.42,121.68,43.7,153.67,18.21,94,16.22,168.19q-.31,11.45-.5,21.55M384.14,93.72s-16-6.21-8,34.5S423.81,318.76,407,374.32s-.87,79.12,19.11,156.56-2,135.48,0,188.12c.51,13.56,1.32,24.74,2.24,33.88m52.48.06c-10.55-20.28-15.49-56.17,3.19-121,36.77-127.68-25.13-119.62-12.56-177.66S492,378.5,480,349.47s-59.88-8.75-61.91-103.1-24-98.85,0-160.54m59.91,5s-31.95,52.84-10,81.46,30.49,56,25.23,83.56,9.64,19.58,17.6,80.81,26.63,102.23,11.87,159.17C508.88,549.21,500.05,702,543.87,751.4M1157,738.56c-2.17-.6-8-4.53-8-4.53-8-5.61-39.94-30.45-87.87-32.06s-51.44-42.27-115.84,0c-66.21,43.46-104.55,7.63-147,0-37.29-6.7-37.32,36.55-109.6,32.06s-172.13-13-218.73-16-50.59,9.3-82.55-9.78-29.29-2.39-58.58,6.66-42.6,10.17-69.23,4.56-105.19,9-153.12,9c-29.89,0-55.15-2.62-71.21-4M1157,656.29c-2.76,1.74-8,7.59-8,7.59s-23.59,22.78-49.74,13.08-18.26-22.61-75.41-18.69S945,702.61,854.94,685.77s-84.06-1.68-117.66,0-74.88-11.22-128.13,0-124.49,19.64-202.38-14-85.21-3-115.17,5.22S233,708.22,122.51,700.36c-46.7-3.32-72.72-3.54-87.19-2.7m1121.71-72c-2.72-.61-8-1.61-8-1.61-25.65-4.71-55.92-16.27-87.87,0s-91.55,7.05-149.8,11.22-162.07,16.18-247.63,7.35S559.88,660.52,488,657.15s-185.74-20.66-213.7-14.54S142.48,684.09,62.6,675.67c-10.19-1.07-19.23-2.06-27.28-3M1157,570a69.74,69.74,0,0,0-8,4.71s-57.63,43.73-105.49,21.92c-28.11-12.81,6.84-44.34-154.67-10.25-29.59,6.24-135.47,48.81-210.26,21.94s-117.82-5-125.27-3.31-37.62,6.73-85.33,12.61c-95.18,11.72-166-41.42-238.56-1.93-29,15.78-114.81,11.27-194.22-2.27M1157,509.46c-4.63-.88-24.13-7.19-24.13-7.19s-50.82-19.4-56.79,9.16,19.73,52.88-32.56,40.37S907,518,887.47,535.94,801,564.56,762.33,562.87s-169.57-24.9-209,.18S502,535.94,478,547.72s-17.11,18.52-71,20.2-92.86-33.67-150.77-13.47-77.77,10.28-155.66-8.24C74,539.89,52.27,540,35.22,542.93M1157,478.69s-117.24-21.88-154.48,8.42c-13.77,11.2-27,15.5-40.31,16.48M1157,426.3c-2.68.09-24.13-3.22-24.13-3.22s-53.6-9.59-109.23-10.44M596.17,750.92l-.31-3.12c-7.32-69.7-33.31-182.18-30.22-218.6,6.3-74.07,44.69-188.15,1-210.65-52.1-26.84-64.72-111.64-50.15-224.83m24,.08s19.39,154.25,61.92,203.07,10,207.08,26,247.48-2,126.42,0,179.38A146.23,146.23,0,0,0,631.06,748s.62,1.64,1.22,2.93M595.86,98.16c2.58,95.48.63,117.16,43.91,144.84,57.92,37,20.55,60,24.55,137.41s4.46,112.36,24.42,137.88-29,63.1-3,164.11c7.62,29.63-22.17,49.16-25.63,65.59,0,0-.39,1.49-.64,2.93m53.42.27-.21-3.2c-3.24-44.91-.54-113.52,31.24-136.3,39.94-28.62,50.68-44.58,18.39-93.4s-63-113.67-50.68-186.06c11.23-66-90.74-154.43-83-238.43m92.6,0c-16.26,31.06-36.63,85.14-5.66,120.59,43.12,49.35,20.46,177,60.09,216.34M776.71,93.8c-6,27.84-9.16,80.66,17.63,95.33,36.91,20.2,55.34,28.29,60.6,90.91a126.84,126.84,0,0,1,.4,16.35M836.91,93.79c6.79,15.9,23.22,38.92,62.83,52.63,43.81,15.16,2.23,79-16.23,144.74m98-195.34c-1.78,33.7-15.39,91.47-51.62,140.45-15.07,20.37-19.87,35.8-18.19,49M1061.17,85.83c.64,2.25,1.88,5.68,3.4,10m0,0c8,22.7,23.45,69.79-3.4,96.67-32,32,36.32,109.43,38.13,133s-9.09,130.89-23.32,168.36,75.06,70.71,43.1,136.36c-23.42,48.14-8.76,95.66.73,117.6l1.62,2.47M1021.14,95.82c-13.74,36.42-27,91-11.9,143.81a128.6,128.6,0,0,0,10.81,26.95m137,88.34c-5.21.38-24.51,6.89-24.51,6.89-41.1,13.86-71,16.88-102.24,15.77M1157,299.45c-4,2.42-24.13,9.35-24.13,9.35-17.28,5.63-49.9-4.57-91.44-7.57M35.37,109.58c74.18-8.08,230.23-21.24,340.78-4C537.37,130.75,508,76.33,703.72,108.86c96,16,125.78,28.08,259.59,11.24,82.42-10.37,138.38-11.74,169.21-11.27,0,0,13.92.19,24.51,1.56m0,158.55a115.17,115.17,0,0,1-24.51-7.43c-41.22-19.82-16.6-26.58-59.37-27.64-47.93-1.19-59.76,16-120.75,22.76s-139-10.1-160.9,18.52S626.57,207.65,567.87,206s-184.35,55.19-206.32,11.41S276,273.87,186.09,267.5c-56.7-4-110.24,15.23-150.66,16.36M1157,201.28c-5.27,5.23-24.51,21.29-24.51,21.29a16.78,16.78,0,0,1-6.48,3.18c-36.17,8.32-80.48-82.42-110.14-61.17C976,193.2,981.83,234.35,901.67,219.2s-141.32-77.46-229.19-50.52-52.51-20.8-88.36-27.54-48.2,14.09-235.93,10.72-131.81,49.5-211.7,69.36c-47.91,11.92-75.71,7.6-101.06,1.88" transform="translate(-34.36 -75.64)"/></g><g class="cls-9"><g class="cls-12"><path class="cls-11" d="M896.09,497.39c-2.37-.11-4.78-.18-7.21-.18-43.4,0-113.94,13.62-189.45,16.84s-45.82-19-119.57-25.25c-79.89-6.74-80,11.7-189.67,25.25-81.47,10.07,14-55.79-209.76-18.52-37.23,6.2-102.09,4.92-145.11,4" transform="translate(-34.36 -75.64)"/></g></g><g class="cls-9"><g class="cls-13"><path class="cls-11" d="M953.38,518c10.49,26.75,16.16,51.22,13.64,73.52-5.25,46.57,12.92,124.65-27.26,156.31a65.34,65.34,0,0,1-7.65,4.67" transform="translate(-34.36 -75.64)"/></g></g><g class="cls-9"><g class="cls-14"><path class="cls-11" d="M978.68,515.8a224.51,224.51,0,0,0,3,38.08c8.91,51.57,46.44,139,61.84,193.92l.79,2.48" transform="translate(-34.36 -75.64)"/></g></g><g class="cls-9"><g class="cls-15"><path class="cls-11" d="M774.68,443.54q-6,.65-12.35,1.48c-76.63,10.11-165.59-11.78-244.26-26.93s-95.6,44.16-153.51,35.05-243.25-56-329.13-30.06" transform="translate(-34.36 -75.64)"/></g></g><g class="cls-9"><g class="cls-16"><path class="cls-11" d="M780.05,397.45c-85.13,45.32-155.56-38.35-233.81-48-148.63-18.28-153.12,12.29-257,25.76-98.75,12.81-213.6-17-253.84-25.76" transform="translate(-34.36 -75.64)"/></g></g><g class="cls-9"><g class="cls-17"><path class="cls-11" d="M788.09,333c-35-1.16-66.55-5.1-99.35-5.83-75.36-1.69-112.43-103.64-166-65.48C465,302.82,404.22,265.64,279,333.91c-32,17.43-166.45-26-243.54-14.52" transform="translate(-34.36 -75.64)"/></g></g><g class="cls-9"><g class="cls-18"><path class="cls-11" d="M1042.13,292.82c23.59,18.69,40.75,14.63-.93,74.73-4.92,7.09-9.2,13.8-12.91,20.18" transform="translate(-34.36 -75.64)"/></g></g><g class="cls-9"><g class="cls-19"><path class="cls-11" d="M981.5,467.62c-1.28,13.55-2.48,27.54-2.76,41.77" transform="translate(-34.36 -75.64)"/></g></g><g class="cls-9"><g class="cls-20"><path class="cls-11" d="M846.56,461.1C864,497,874,515.94,867.92,553.88c-8.5,53.36-32.23,157,4.49,194.11,0,0,6.33,3.88,9,4.73" transform="translate(-34.36 -75.64)"/></g></g><g class="cls-9"><g class="cls-21"><path class="cls-11" d="M805.32,455.22c28,32.08,28.7,77.7,31,108.69C839,601.59,743.69,679,753.41,711c3.14,10.34,3.18,23.67,1.8,37l-.4,2.93" transform="translate(-34.36 -75.64)"/></g></g></g><path class="cls-2" d="M802.64,716.79" transform="translate(-34.36 -75.64)"/><line class="cls-2" x1="766.77" y1="635.21" x2="770.57" y2="634.37"/><line class="cls-2" x1="767.53" y1="638.68" x2="771.59" y2="637.96"/><path class="cls-2" d="M795.16,713.17s.26,5.52,6,2.86" transform="translate(-34.36 -75.64)"/></g></svg>