<svg xmlns="http://www.w3.org/2000/svg" xmlns:xlink="http://www.w3.org/1999/xlink" viewBox="0 0 1209.09 733.44"><defs><style>.cls-1,.cls-10,.cls-2,.cls-4,.cls-6{fill:none;}.cls-2{stroke:#0000f9;}.cls-10,.cls-2,.cls-4,.cls-6{stroke-miterlimit:10;stroke-width:1.55px;}.cls-3{fill:#8fff3c;}.cls-4{stroke:#8fff3c;}.cls-5{fill:#fff;}.cls-6{stroke:#322b80;}.cls-7{fill:#7f67bb;}.cls-8{fill:#0000f9;}.cls-9{opacity:0.17;}.cls-10{stroke:#da00f9;}.cls-11{clip-path:url(#clip-path);}.cls-12{clip-path:url(#clip-path-2);}.cls-13{clip-path:url(#clip-path-3);}.cls-14{clip-path:url(#clip-path-4);}.cls-15{clip-path:url(#clip-path-5);}.cls-16{clip-path:url(#clip-path-6);}.cls-17{clip-path:url(#clip-path-7);}.cls-18{clip-path:url(#clip-path-8);}.cls-19{clip-path:url(#clip-path-9);}.cls-20{clip-path:url(#clip-path-10);}.cls-21{clip-path:url(#clip-path-11);}</style><clipPath id="clip-path" transform="translate(-0.34 -233.3)"><rect class="cls-1" x="-28.13" y="663.22" width="963.51" height="48.41"/></clipPath><clipPath id="clip-path-2" transform="translate(-0.34 -233.3)"><rect class="cls-1" x="975.23" y="700.11" width="37.53" height="260.63"/></clipPath><clipPath id="clip-path-3" transform="translate(-0.34 -233.3)"><rect class="cls-1" x="1016.63" y="698.05" width="77.46" height="262.31"/></clipPath><clipPath id="clip-path-4" transform="translate(-0.34 -233.3)"><rect class="cls-1" x="1016.63" y="691.17" width="8.04" height="20.45"/></clipPath><clipPath id="clip-path-5" transform="translate(-0.34 -233.3)"><rect class="cls-1" x="6.72" y="589.68" width="798.65" height="56.6"/></clipPath><clipPath id="clip-path-6" transform="translate(-0.34 -233.3)"><rect class="cls-1" x="6.78" y="513.03" width="804.64" height="86.87"/></clipPath><clipPath id="clip-path-7" transform="translate(-0.34 -233.3)"><rect class="cls-1" x="6.84" y="415.93" width="812.85" height="106.08"/></clipPath><clipPath id="clip-path-8" transform="translate(-0.34 -233.3)"><rect class="cls-1" x="1069.87" y="458.6" width="48.83" height="116.19"/></clipPath><clipPath id="clip-path-9" transform="translate(-0.34 -233.3)"><rect class="cls-1" x="1016.69" y="646.36" width="10.94" height="58.41"/></clipPath><clipPath id="clip-path-10" transform="translate(-0.34 -233.3)"><rect class="cls-1" x="875.17" y="639.14" width="35.39" height="321.74"/></clipPath><clipPath id="clip-path-11" transform="translate(-0.34 -233.3)"><rect class="cls-1" x="774.56" y="632.67" width="97.56" height="327.77"/></clipPath></defs><g id="fondos"><path class="cls-2" d="M971.61,652.27s14.11,29.45,17.75,36.46c3.9,7.5-1.65,9.51-1.65,9.51-19.68,8.65-31.81,10.87-31.81,10.87-22.64-1.78-47.67-9.2-47.67-9.2l-.29,4.58s35.63,9.22,47.46,9.86c0,0,22.71-6.06,38.15-8a162.07,162.07,0,0,1,26.32-1.29l.36-7.09s-17,.18-21.08-8.2-18.76-37.53-18.76-37.53" transform="translate(-0.34 -233.3)"/><path class="cls-2" d="M907.7,699.38l18.24-9.26s7.57-3.92,2.2-11.81c-5.08-7.46-19.87-29.4-19.87-29.4" transform="translate(-0.34 -233.3)"/><path class="cls-2" d="M819.52,529s-5.91,27.36-7.21,46.69-6.19,32.13,2.16,32.4,74.8,6.26,102.61,3.81,84.88-1.5,93.82-1.5,12.53-1.22,16.14-1.77,1.58-2.58,2.3-8.84,5.19-20.7,6.06-27.23,11.24-64.94,13.54-72.56,8.36-44.79,8.36-44.79,1.87-5.71-3.46-4.22-15.42,4.5-23.06,4.77-32.42,5.72-47.41,7.89-20.61,5-29.83,6.27-6.92-.28-34.15,6.26-37.76,5.17-54.33,8.3S831.62,491,831.62,491s-6.19.13-6.91,7.35S819.52,529,819.52,529ZM1028.42,653s14.76,1.57,17.57-17.42,10.81-67.59,10.81-68.21,3-19.8,5.83-39,5-23.48,6.49-31,4.1-43.69,4.1-43.69,3-14.66-12.75-16.32M818.05,491.68a9.31,9.31,0,0,0,.44-2.21c.15-1.74,1-5.24,5.28-5.47,5.73-.31,29.18-5.82,34.8-7.86s43-9.4,53.4-11.23,75-15.93,82.14-16.34,31.34-5.72,40-7.55,47.34-11.44,51.23,10.61-5.84,42.89-6.27,66.57-13.4,66.78-15.13,95.57.86,39.14-28.75,39.27-33.72-1.5-49.72-.88S874.71,646.85,855,643.44s-38.48-5.17-43.38-5.44-12.68-1-12.25-6.4,2.31-26,2.45-30.49.43-13.62,3.46-23.15,7.82-71.74,10.52-79.63ZM936.61,687.53s6.59.11,12.37.87m6.94,20.66a17,17,0,0,1-.51,5.24" transform="translate(-0.34 -233.3)"/><path class="cls-3" d="M1004.52,533.46c3.41,6,1.19,30,1.19,30s-5.41-2.4-7.52-3.47-4.16-1.69-4.11-6-1.46-13.24-1.46-13.24c-.4-2.56,2.16-3.86,2.16-3.86,7.09-5.33,9.74-3.45,9.74-3.45M966,581.08c-6.53.62-10.67,4.77-13.16,5.22s-8.84-.92-8.84-.92c4.22-7.3,8.88-7.88,10.21-7.88s6.4.65,11.58-.59c5.59-1.35,24-13.45,24-13.45-1.3,11.59-17.28,17-23.81,17.62m57.06-107c1.06,21.11-7.5,29.8-11.29,27.34s-19.32-.75-19.32-.75-1.35,9.6-3.26,14a26.42,26.42,0,0,0-1.11,16.15c1.4,5.31,1.08,7.19,1.08,7.19-14.3,12.53-33.15,14.41-33.94,14.48.18-.08,1.07-1.15,4-12.77a57,57,0,0,0,.39-24.5s-17,9.13-21,11.68c-6.06,3.92-15.14,9.55-15.14,9.55.8-.36,5.82,1.56,5.82,1.56.11,15-9.14,15.46-12,18.73s-1.61,11.09-1.61,11.09c6.34-6.94,33.53-10.38,33.53-10.38s-1.3,5.88,1,7.42,4.92,6.13,4.92,6.13c-8.06-3.94-20.5,1.72-25.37,4.24-4.49,2.33-14.64,4.65-14.64,4.65,1.21,2.45.31,12.51.31,12.51-14.57-1.7-27.84.47-28,1.81s-1.4,8-1.4,8l29.75-.18c-.29-7.5,1.34-9.17,1.34-9.17,4.78.76,15.47-.71,17.45-1.74s7.13-2.82,7.13-2.82C940.79,590.25,940,602,940,602l10.06-.37c-.32-7.47,3.68-11.49,3.68-11.49,3.57,4.39,10.92,5.72,14.93,6.13s8.6-1.38,10.44-2.3,7.44-2,7.44-2c-1.81,1.94-3.93,9.49-3.93,9.49s29.76.17,32.25,0,4.48-3.13,4.48-3.13l1.12-13c-9.73-1.94-17-.93-20.8.45s-6.17.41-6.17.41c6.65-4,11.52-18,11.52-18,2.54,6.64,16.12,11.37,16.12,11.37l.2-1.5a179.75,179.75,0,0,1,4.35-19.56c1.4-5.23,4.52-18.78,4.52-18.78s-6.25-1.84-9.34-4.4c-3.36-2.79-14.55-5.16-14.55-5.16-2.6-3.79-2.16-10.43-2.16-10.43.21-11.19,8.6-15.39,8.6-15.39a40,40,0,0,0,24.61,7.46c.81-.87,4-16.35,4.13-17.27s2-15,2-15c-7.47-5.32-20.43-5.32-20.43-5.32" transform="translate(-0.34 -233.3)"/><path class="cls-4" d="M956.5,477.71s5.79,17.34,3.51,35.11l-.43,3s17.71-14.17,33.25-15c0,0,2.61-21.88-2.39-28.35M900.14,489s4.45,52.35-4.39,58S882.59,561.48,885,571.19s4.78,11.71.87,31.19M863.38,495.57s1.22,12.42,7.74,20,4.31,24.3-9.13,25.57c-6.52.62-10.1-10.86-15-.3,0,0-2.28,4.72,3.26,12s10.09,13.79,6.84,48.39m-27.38-89.71a11.48,11.48,0,0,1,7.14-1.78c3.69.55,8,3.56,14.63,2.19s12.75-5.82,19-5.68,30.72,3.56,33.83.34,5.58-4.92,9.49-4.92c3.43,0,20.3,1.36,24.47,1.7a20.5,20.5,0,0,0,2.22.06c4.76-.14,22.06-1.46,41.09-12.72,22.38-13.25,24.88-17.46,41.4-17.35a13.29,13.29,0,0,0-2.18-9.45M825.24,535.85s6.21.84,9.37,0,7.67-2.18,17.45-1.22,14.79,2.68,18.84.82,5.08-5,11.38-4.77,16.51,6.21,21.3,6.68,15.5,1.31,20-1c0,0-6.74-5.14-2.46-9.31s19-7.81,22.38-12.19,6.81-10.54-.72-19.24-1.31-15.36-1.31-15.36m-99.18,16.82s3.63,12.23,1.89,18.26-5.94,4.52-6.52,10.13.44,12.19.87,17.53,2.32,13.14,1.31,22.59,1,16.3,1.23,21.77a115.6,115.6,0,0,1-.8,14m-24.1-8.23s30.19,3.07,42.57,2.35S888,593.64,888,593.64m-68.29-35.19a27.88,27.88,0,0,1,10.7-1.68c5.33.41,22.71,2.06,29.78-1.54s18-7,26.18-1.85S888.4,566.63,900,568s15.75-.93,15.75-.93l-.65,13.27c-4,.75-24.34-.12-35.53,1.11S834.94,579,829.28,579a55.41,55.41,0,0,0-12.16,1.75m16-81.27s3.39,2.05,2.09,10.95-3,17.18-2.9,19.89-1.16,10.61-3,13.71-5.51,17.61-3.33,30.48,3.61,17.79,1.59,26.9m-10.14-24.84s-1,18.76-1.89,21,1.6,3.83,6.23,3.69,10.15,1,19.13,0,39.41,1.77,48.1,1.09,46.95.82,65.64-.82,49.71,2.46,62.48-.57a3.92,3.92,0,0,0,3-3.18c.38-2.67.55-18,4.46-32.81s3.62-12.46,7.39-30.67,8.84-29.31,9.71-35.74,1.88-20,3.91-25.06,1.3-13.69,1.3-13.69,5-5.34-56.43,12.73c0,0-3.48,1.34-31.52,4.93s-34.33,8.32-58.78,11.6-31.52,6.68-44.67,7.4-24.12,0-24.66,7.08-6,36.36-8,42.83S818.35,562.28,817.37,576.53Z" transform="translate(-0.34 -233.3)"/><path class="cls-5" d="M914.32,854.71c-.05-1.11-.1-2.23-.14-3.35a19.89,19.89,0,0,1-.09-3.27l-.18.7c-.08.19-.59.21-.08.16.24,0,.48,0,.72-.05.57,0,1.13,0,1.7,0,1,0,2.1,0,3.14.07q3.33.09,6.65.29c4.34.25,8.68.59,13,1a25.39,25.39,0,0,1,7,1.13c.11-.91.23-1.82.34-2.73a116.78,116.78,0,0,1-15,.36c-5-.2-9.89-1-14.85-.91a1.4,1.4,0,0,0-1.12,2.09c1.13,1.74,3.3,1.7,5.08,1.86,2,.18,4.09.23,6.14.25,4.17,0,8.35.06,12.52.09-.22-.86-.43-1.73-.65-2.59a6.76,6.76,0,0,1-2.84.59c-1.16.06-2.33.08-3.49.08-2.35,0-4.7-.11-7-.31a1.34,1.34,0,0,0-1.29,1.38,1.36,1.36,0,0,0,1.29,1.39q3.76.35,7.54.32c2.38,0,4.95.1,7.13-1.05a1.42,1.42,0,0,0-.65-2.59l-11.51-.07c-1.84,0-3.69,0-5.52-.15-.92-.06-1.84-.13-2.75-.24-.32,0-1.51,0-1.73-.36l-1.11,2.09c5-.07,9.89.71,14.85.91a116.78,116.78,0,0,0,15-.36,1.41,1.41,0,0,0,.34-2.73c-2.55-1-5.36-1-8-1.26s-5.62-.47-8.43-.67-5.62-.36-8.43-.47a55.27,55.27,0,0,0-8.24-.06,2.18,2.18,0,0,0-1.82,1,4.45,4.45,0,0,0-.24,2.43l.21,5.09a1.3,1.3,0,1,0,2.59,0" transform="translate(-0.34 -233.3)"/><path class="cls-5" d="M915.75,855.56c7.17,1.07,15.06,2.6,22.34,2.58,1.8,0,3.08-3,4.87-3a39.18,39.18,0,0,0,5.2-.14c3.87-.5,7.53-2.29,11.07-4s7.76-3.42,9.65-7.27c1-1.92.52-4.62-1.39-5.7a3.79,3.79,0,0,0-5.31,1.5c-.09.19-.2.36-.3.55-.35.66.6-.68.13-.18-.15.15-.28.31-.42.45l-.3.28.47-.39a8.31,8.31,0,0,1-2.17,1.4c-1.77,1-3.58,1.85-5.41,2.69l.92-.42a31.67,31.67,0,0,1-8,2.86l1-.14a59.62,59.62,0,0,1-8,.12c-2.7,0-5.39,0-8.09,0q-8.14.09-16.3.39a4.08,4.08,0,0,0-3.88,4.16c.09,2.2,1.71,4.25,3.88,4.17" transform="translate(-0.34 -233.3)"/><path class="cls-5" d="M969.67,845.85a46.57,46.57,0,0,0,3.13-4c.19-.27.39-.53.56-.81a6.74,6.74,0,0,0,.8-2.83c.08-.74.08-1.49.11-2.23a4.39,4.39,0,0,0-1.13-3,3.87,3.87,0,0,0-2.75-1.22,3.83,3.83,0,0,0-2.74,1.22,4.68,4.68,0,0,0-1.14,3c0,.74,0,1.5-.12,2.23.05-.37.09-.74.14-1.11,0,.13,0,.24-.08.37l.39-1a6.47,6.47,0,0,1-.85,1.32l.61-.84a36.89,36.89,0,0,1-2.42,3,4.55,4.55,0,0,0-1.13,2.95,4.4,4.4,0,0,0,1.13,2.94,3.7,3.7,0,0,0,5.49,0" transform="translate(-0.34 -233.3)"/><path class="cls-2" d="M973.72,839.1c0,.95,0,1.25-.37,1.64l-14,18.39a1.35,1.35,0,0,1-1.17.51l-45-3.61c-1-.08-1.31-.64-1.31-1.56" transform="translate(-0.34 -233.3)"/><line class="cls-2" x1="911.44" y1="621.26" x2="911.45" y2="611.65"/><line class="cls-6" x1="911.44" y1="621.37" x2="911.44" y2="621.26"/><line class="cls-2" x1="958.39" y1="626.45" x2="958.39" y2="616.26"/><line class="cls-2" x1="973.33" y1="606.44" x2="973.45" y2="598.84"/><path class="cls-5" d="M922.82,846.74,937.51,838a1.44,1.44,0,0,1,.64-.16l31.21.47" transform="translate(-0.34 -233.3)"/><path class="cls-6" d="M922.82,846.74,937.51,838a1.44,1.44,0,0,1,.64-.16l31.21.47" transform="translate(-0.34 -233.3)"/><path class="cls-5" d="M969,838.17,959.31,849a1.37,1.37,0,0,1-1.17.5l-45-3.17a1.53,1.53,0,0,1-.54-2.85l24.76-13.78a1.34,1.34,0,0,1,.65-.17l34.4,1.25a1.52,1.52,0,0,1,1.06,2.51Z" transform="translate(-0.34 -233.3)"/><path class="cls-2" d="M969,838.17,959.31,849a1.37,1.37,0,0,1-1.17.5l-45-3.17a1.53,1.53,0,0,1-.54-2.85l24.76-13.78a1.34,1.34,0,0,1,.65-.17l34.4,1.25a1.52,1.52,0,0,1,1.06,2.51Z" transform="translate(-0.34 -233.3)"/><path class="cls-7" d="M946.19,840.53l8.67,2.35c-1.06-.73-3.42-2.3-5.11-3.42l-.12-.08.14-.08,6.15-2.32-6.82.1h-.23c-.28,0-.53-.28-2.54-3.31l-1.65,3.59-.34,0-.16,0-7.61-2.77,3.19,4.15v.08l-.18,0-7.37,1.45,9.38,0,.17,0,.31.16-.1,0,.07,2.87c.79-.6,2.36-1.95,3.4-2.86l0-.05.32-.08Zm4.2-1.1c5.81,3.83,5.78,3.84,5.51,3.93l-.2.06-.19-.07-9.59-2.58C942.19,844,942,844,941.7,844l-.24,0v-.12l-.07-3.19L931,840.57l-.21,0-.15-.11c-.08-.07-.11-.1.17-.17l1.28-.27,2.94-.58,4.08-.81-3.46-4.48.2-.07a.87.87,0,0,1,.28,0l.12,0,8,2.91,1.81-3.93h.49l.09.11c1,1.52,2.17,3.22,2.5,3.59l7.78-.11.21.18-.16.08Z" transform="translate(-0.34 -233.3)"/><path class="cls-8" d="M946.33,833.77c2,3,2.26,3.27,2.48,3.3l.27,0,6.84-.11-6.15,2.32-.14.08.12.08c1.69,1.12,4,2.69,5.11,3.42l-8.69-2.33-.42-.11-.32.08,0,.05c-1,.91-2.61,2.26-3.4,2.86l-.07-2.87.1,0-.31-.16-.17,0-9.38,0,7.37-1.45.18,0v-.08l-3.19-4.15,7.61,2.77.16,0,.34,0Z" transform="translate(-0.34 -233.3)"/><path class="cls-2" d="M1014.71,652.27s-9.58,40.72,19.15,45.25,99,17.59,103.76,17.59,1.59,65.36-4.79,113.62c0,0-8.78,10.51-31.13,5.28s-28.73-9.38-47.09-3.77-53.47-9.81-19.95-16.59,50.28-13.58,59.06-3,12,25.21-17.17,25.21-37.9-8.72-53.06.38-24.74-.71-49.71-.71" transform="translate(-0.34 -233.3)"/><path class="cls-2" d="M934.9,852.1c-1.6,2.27-9.58.76-11.18.76s-2.39.75-2.19,1.71a4.34,4.34,0,0,0,.6,1.3,8.11,8.11,0,0,0,1.27,1.6c9.19,9.23,44.25,11.86,19.39,23.29-26.25,12.06-88.5-9.88-114.84.34s-25.54,39.62-6.39,35.85c0,0-.79-3,.8-3a8.53,8.53,0,0,0,3.19-.76s-.79-2.26,1.6-2.26,2.4,6,3.19,8.3c.36,1-.09,1.57-.76,1.61-.83,0-2-.71-2.43-2.37l-.8-3-.8-2.27" transform="translate(-0.34 -233.3)"/><g class="cls-9"><path class="cls-10" d="M9.5,375.14c11.1,27.65,37.61,102.67,35.91,184.65C43.27,663.28,2.68,733,25.12,820.79c13.29,52,18,101.08,19.6,132.42M45.92,256C35.29,281,18.45,343,69,416.2c65.9,95.5-2.48,54.92,38.51,235.27S88.2,812.22,128.85,918.1a349.53,349.53,0,0,1,12.57,38.68m47.22.06c.71-19.72,5.26-47.1,20.81-77,30.66-59-63.48-93.89-54.92-167.83s-7.77-98.68-15.65-160.26-7.1-113.63,0-154.34S96.76,340.85,94.62,249.57c0,0-.4-13.16-.4-16.24m64.59.71c0,9-60.23,67.38,28.72,107.63,0,0,44,10.72-13.75,90.42s31.78,99.9,29.8,305.32c0,0-1.7,63.87,51.87,83.38S260.07,822,248,923c-1.48,12.31-2.81,23.52-4,33.72m30.22,1.88c-3.29-15.82-4.28-42.25,8-81.11,22.11-69.92,33.52-57.29,8.56-109.59S208,699.35,231.55,580.32,202.26,412.08,226,365.7s-30.85-82.56-18-116.13M263.64,234c-21.39,10.82-29.95,22.77,0,83.52S300.22,437.35,298,503.42s-42.57,100.34-17.06,172.49,35.49,29.57,38.35,135.88,25.91,140.06,15.09,154.48m2-732.23s-94.67,30.63-36.64,81.14,73,86.59,55.9,124.46-59.91,71.15-32.09,154.61,74.36,130.35,46.81,164.62,19.51,100.65,17.37,180.18q-.33,12.26-.53,23.08m-5.89-709.46s-17.11-6.65-8.56,37,51.06,204.12,33,263.64S404.85,638,426.24,721s-2.14,145.13,0,201.52c.55,14.53,1.42,26.51,2.41,36.3m56.22.06c-11.3-21.72-16.6-60.17,3.42-129.66,39.38-136.79-26.93-128.15-13.46-190.32s22-81.14,9.18-112.24-64.15-9.37-66.33-110.45-25.67-105.89,0-172m64.19,5.35s-34.23,56.61-10.7,87.27,32.67,60,27,89.52,10.33,21,18.86,86.56,28.52,109.52,12.71,170.52C515,740.63,505.49,904.3,552.43,957.23m648.3-18.61c-8.55-6-42.79-32.62-94.13-34.34s-55.11-45.29-124.09,0c-70.93,46.55-112,8.17-157.48,0-39.95-7.19-40,39.15-117.4,34.34s-184.4-13.9-234.32-17.17-54.2,10-88.43-10.48-31.38-2.56-62.76,7.13S276.48,929,248,923s-112.68,9.62-164,9.62c-36.47,0-66.51-3.64-82.89-4.89m1199.7-64.25s-25.27,24.41-53.28,14-19.57-24.22-80.79-20-84.56,47.49-181,29.46-90-1.8-126,0-80.22-12-137.27,0-133.36,21-216.8-15-91.29-3.25-123.38,5.59S219.42,911,101,902.55C42.4,898.38,14.2,898.77.68,900.22m1200.05-79.43c-27.47-5-59.9-17.43-94.13,0s-98.07,7.55-160.47,12-173.63,17.33-265.29,7.88-111.25,19.18-188.28,15.57-199-22.13-228.92-15.57S122.43,885.12,36.85,876.1c-14.06-1.48-26.1-2.82-36.42-4m1200.3-104.22s-61.74,46.85-113,23.48c-30.12-13.72,7.32-47.5-165.7-11-31.7,6.69-145.13,52.29-225.25,23.5s-126.21-5.34-134.19-3.54-40.31,7.21-91.42,13.51c-102,12.55-177.81-44.37-255.56-2.07C183.75,829.13,87.87,823.6,1,808.23m1182.41-117.9s-54.44-20.77-60.84,9.82,21.14,56.65-34.87,43.25-146.26-36.22-167.21-17-92.63,30.66-134.06,28.86-181.66-26.68-223.87.19S507.54,726.4,481.87,739s-18.33,19.84-76.1,21.64S306.3,724.6,244.25,746.24s-83.31,11-166.75-8.83c-32-7.6-57.33-6.49-76.47-2.24m1208.26-70.09s-125.6-23.44-165.49,9c-14.75,12-28.88,16.61-43.18,17.65m182.82-86.25s-57.42-10.27-117-11.18m-458.3,359c-7.83-74.67-35.68-195.16-32.36-234.18,6.74-79.35,47.87-201.56,1.07-225.67C521,464.77,507.49,373.93,523.1,252.67m25.69.08S569.56,418,615.12,470.3s10.69,221.84,27.81,265.12-2.14,135.43,0,192.16a158,158,0,0,0,2.9,26M608.12,257.43c2.77,102.28.68,125.51,47,155.16,62,39.68,22,64.24,26.29,147.2s4.79,120.37,26.17,147.71-31.07,67.6-3.2,175.81C712.6,915.05,680.68,936,677,953.57m56.31,0c-3.47-48.11-.58-121.61,33.47-146,42.79-30.66,54.29-47.75,19.7-100.06S719,585.73,732.17,508.18c12-70.72-97.21-165.44-89-255.43m99.2,0C725,286,703.16,344,736.33,381.93c46.19,52.87,21.92,189.6,64.37,231.76m1.17-360.94c-6.45,29.83-9.81,86.42,18.88,102.13,39.54,21.64,59.28,30.31,64.92,97.39a138.13,138.13,0,0,1,.43,17.52m-19.74-217c7.27,17,24.87,41.69,67.3,56.38,46.93,16.24,2.39,84.6-17.38,155.06m105-209.27c-1.91,36.1-16.49,98-55.3,150.46-16.14,21.83-21.28,38.36-19.48,52.46M1106.6,244.22c.68,2.41,2,6.08,3.65,10.7m0,0c8.56,24.32,25.11,74.77-3.65,103.56-34.23,34.27,38.91,117.23,40.85,142.48s-9.74,140.22-25,180.36,80.4,75.74,46.17,146.08c-25.09,51.57-9.39,102.48.78,126m-105.7-698.45C1049,293.94,1034.8,352.37,1051,409a137.6,137.6,0,0,0,11.58,28.87m120.49,102c-44,14.84-76.06,18.08-109.53,16.89m109.93-73.68c-18.51,6-53.46-4.89-98-8.11M7.69,269.66c79.47-8.65,246.64-22.75,365.06-4.27C545.47,292.34,514,234,723.68,268.89,826.5,286,858.42,299,1001.76,280.93c88.3-11.11,148.25-12.58,181.28-12.07m0,163.56c-44.16-21.23-17.79-28.48-63.61-29.61-51.34-1.27-64,17.17-129.35,24.39S841.19,416.37,817.71,447,641,374.72,578.14,372.91s-197.49,59.12-221,12.23-91.69,60.52-188,53.7c-60.74-4.3-118.1,16.31-161.39,17.53M1183,390.7a18.1,18.1,0,0,1-6.94,3.41c-38.76,8.91-86.23-88.29-118-65.53-42.79,30.66-36.5,74.75-122.37,58.52s-151.39-83-245.52-54.13S634,310.69,595.55,303.48,543.91,318.56,342.8,315,201.6,368,116,389.26c-51.33,12.76-81.11,8.14-108.26,2" transform="translate(-0.34 -233.3)"/></g><g class="cls-9"><g class="cls-11"><path class="cls-10" d="M929.76,685.11c-2.55-.12-5.12-.19-7.73-.19-46.5,0-122.06,14.59-202.95,18S670,682.57,591,675.91c-85.58-7.22-85.7,12.53-203.18,27.05-87.28,10.78,15-59.77-224.72-19.84-41.84,7-116.25,5.12-162,4.08" transform="translate(-0.34 -233.3)"/></g></g><g class="cls-9"><g class="cls-12"><path class="cls-10" d="M991.12,707.16c11.25,28.65,17.31,54.87,14.62,78.76-5.63,49.89,13.85,133.54-29.2,167.45" transform="translate(-0.34 -233.3)"/></g></g><g class="cls-9"><g class="cls-13"><path class="cls-10" d="M1018.23,704.83a240.18,240.18,0,0,0,3.25,40.8c9.54,55.24,49.74,148.9,66.25,207.74" transform="translate(-0.34 -233.3)"/></g></g><g class="cls-9"><g class="cls-14"><path class="cls-10" d="M1018.29,698q-.06,3.42-.06,6.86" transform="translate(-0.34 -233.3)"/></g></g><g class="cls-9"><g class="cls-15"><path class="cls-10" d="M799.69,627.42c-4.28.47-8.68,1-13.23,1.59-82.09,10.82-177.39-12.62-261.66-28.85s-102.42,47.3-164.46,37.55S99.76,577.71,7.76,605.5" transform="translate(-0.34 -233.3)"/></g></g><g class="cls-9"><g class="cls-16"><path class="cls-10" d="M805.44,578.05C714.25,626.6,638.79,537,555,526.65c-159.22-19.58-164,13.17-275.28,27.6C173.9,568,50.86,536,7.76,526.65" transform="translate(-0.34 -233.3)"/></g></g><g class="cls-9"><g class="cls-17"><path class="cls-10" d="M814.06,509c-37.51-1.24-71.29-5.47-106.43-6.25-80.74-1.81-120.45-111-177.86-70.15C467.9,476.68,402.82,436.85,268.65,510,234.39,528.66,90.34,482.17,7.76,494.43" transform="translate(-0.34 -233.3)"/></g></g><g class="cls-9"><g class="cls-18"><path class="cls-10" d="M1086.2,466c25.27,20,43.66,15.68-1,80.06-5.26,7.59-9.85,14.78-13.83,21.61" transform="translate(-0.34 -233.3)"/></g></g><g class="cls-9"><g class="cls-19"><path class="cls-10" d="M1021.25,653.22c-1.37,14.51-2.66,29.51-3,44.75" transform="translate(-0.34 -233.3)"/></g></g><g class="cls-9"><g class="cls-20"><path class="cls-10" d="M876.69,646.24c18.63,38.44,29.37,58.74,22.89,99.39-9.11,57.16-34.53,168.19,4.81,207.94" transform="translate(-0.34 -233.3)"/></g></g><g class="cls-9"><g class="cls-21"><path class="cls-10" d="M832.52,639.94c30,34.37,30.74,83.24,33.16,116.43,2.94,40.37-99.18,123.33-88.77,157.6,3.36,11.08,3.41,25.35,1.92,39.61" transform="translate(-0.34 -233.3)"/></g></g><path class="cls-2" d="M829.58,920.83" transform="translate(-0.34 -233.3)"/><line class="cls-2" x1="827.61" y1="681.16" x2="831.69" y2="680.27"/><line class="cls-2" x1="828.43" y1="684.89" x2="832.77" y2="684.12"/><path class="cls-2" d="M821.56,917s.28,5.92,6.39,3.06" transform="translate(-0.34 -233.3)"/></g></svg>