<svg id="fondos" xmlns="http://www.w3.org/2000/svg" xmlns:xlink="http://www.w3.org/1999/xlink" viewBox="0 0 1596 1086.18"><defs><style>.cls-1,.cls-13,.cls-4,.cls-6,.cls-8{fill:none;}.cls-2{clip-path:url(#clip-path);}.cls-3{clip-path:url(#clip-path-2);}.cls-4{stroke:#0000f9;}.cls-13,.cls-4,.cls-6,.cls-8{stroke-miterlimit:10;stroke-width:2px;}.cls-5{fill:#8fff3c;}.cls-6{stroke:#8fff3c;}.cls-7{fill:#fff;}.cls-8{stroke:#322b80;}.cls-9{fill:#7f67bb;}.cls-10{fill:#0000f9;}.cls-11{opacity:0.17;}.cls-12{clip-path:url(#clip-path-4);}.cls-13{stroke:#da00f9;}.cls-14{clip-path:url(#clip-path-5);}.cls-15{clip-path:url(#clip-path-6);}.cls-16{clip-path:url(#clip-path-7);}.cls-17{clip-path:url(#clip-path-8);}.cls-18{clip-path:url(#clip-path-9);}.cls-19{clip-path:url(#clip-path-10);}.cls-20{clip-path:url(#clip-path-11);}.cls-21{clip-path:url(#clip-path-12);}.cls-22{clip-path:url(#clip-path-13);}.cls-23{clip-path:url(#clip-path-14);}.cls-24{clip-path:url(#clip-path-15);}</style><clipPath id="clip-path" transform="translate(230 -66.22)"><rect class="cls-1" x="-230" y="66.22" width="1596" height="1086.18"/></clipPath><clipPath id="clip-path-2" transform="translate(230 -66.22)"><rect class="cls-1" x="-230" y="66.22" width="1596" height="1086.18"/></clipPath><clipPath id="clip-path-4" transform="translate(230 -66.22)"><rect class="cls-1" x="-231" y="57.22" width="1604" height="1104.18"/></clipPath><clipPath id="clip-path-5" transform="translate(230 -66.22)"><rect class="cls-1" x="-184.63" y="636.31" width="1207.24" height="64.2"/></clipPath><clipPath id="clip-path-6" transform="translate(230 -66.22)"><rect class="cls-1" x="1072.54" y="685.23" width="47.02" height="345.63"/></clipPath><clipPath id="clip-path-7" transform="translate(230 -66.22)"><rect class="cls-1" x="1124.41" y="682.49" width="97.05" height="347.85"/></clipPath><clipPath id="clip-path-8" transform="translate(230 -66.22)"><rect class="cls-1" x="1124.41" y="673.38" width="10.08" height="27.12"/></clipPath><clipPath id="clip-path-9" transform="translate(230 -66.22)"><rect class="cls-1" x="-140.97" y="538.78" width="1000.67" height="75.06"/></clipPath><clipPath id="clip-path-10" transform="translate(230 -66.22)"><rect class="cls-1" x="-140.89" y="437.14" width="1008.18" height="115.21"/></clipPath><clipPath id="clip-path-11" transform="translate(230 -66.22)"><rect class="cls-1" x="-140.82" y="308.37" width="1018.46" height="140.67"/></clipPath><clipPath id="clip-path-12" transform="translate(230 -66.22)"><rect class="cls-1" x="1191.12" y="364.96" width="61.18" height="154.08"/></clipPath><clipPath id="clip-path-13" transform="translate(230 -66.22)"><rect class="cls-1" x="1124.49" y="613.96" width="13.71" height="77.46"/></clipPath><clipPath id="clip-path-14" transform="translate(230 -66.22)"><rect class="cls-1" x="947.17" y="604.38" width="44.34" height="426.66"/></clipPath><clipPath id="clip-path-15" transform="translate(230 -66.22)"><rect class="cls-1" x="821.11" y="595.8" width="122.24" height="434.66"/></clipPath></defs><g class="cls-2"><g class="cls-3"><path class="cls-4" d="M1068,621.8s17.68,39,22.24,48.34c4.88,9.94-2.07,12.61-2.07,12.61-24.66,11.48-39.86,14.41-39.86,14.41-28.37-2.35-59.72-12.2-59.72-12.2l-.36,6.08s44.63,12.22,59.45,13.08c0,0,28.47-8,47.8-10.57a193,193,0,0,1,33-1.72l.45-9.4s-21.32.25-26.4-10.87S1079,621.8,1079,621.8" transform="translate(230 -66.22)"/><path class="cls-4" d="M987.93,684.26,1010.78,672s9.48-5.19,2.75-15.66c-6.37-9.9-24.89-39-24.89-39" transform="translate(230 -66.22)"/><path class="cls-4" d="M877.43,458.26s-7.4,36.29-9,61.92-7.76,42.61,2.71,43,93.72,8.3,128.56,5.05,106.36-2,117.55-2,15.71-1.63,20.22-2.35,2-3.43,2.89-11.73,6.5-27.44,7.59-36.11,14.08-86.11,17-96.22,10.47-59.39,10.47-59.39,2.35-7.59-4.33-5.6-19.32,6-28.89,6.32-40.63,7.58-59.41,10.47-25.82,6.68-37.37,8.3-8.67-.36-42.8,8.31-47.3,6.86-68.07,11-41.89,8.67-41.89,8.67-7.76.18-8.67,9.74S877.43,458.26,877.43,458.26Zm261.75,164.55s18.49,2.08,22-23.1,13.54-89.64,13.54-90.45,3.79-26.27,7.31-51.72,6.23-31.14,8.13-41.16,5.15-57.95,5.15-57.95,3.79-19.44-16-21.63m-303.75,72a12.75,12.75,0,0,0,.56-2.93c.19-2.31,1.23-6.95,6.61-7.26,7.18-.4,36.56-7.71,43.61-10.42s53.89-12.46,66.89-14.9,94-21.12,102.93-21.66,39.27-7.58,50.1-10,59.32-15.16,64.19,14.08-7.31,56.87-7.85,88.28-16.79,88.55-19,126.73,1.08,51.9-36,52.08-42.26-2-62.3-1.17-138.76-7-163.5-11.55-48.21-6.86-54.35-7.22-15.89-1.27-15.35-8.49,2.89-34.48,3.07-40.44.54-18.05,4.34-30.69,9.79-95.14,13.18-105.61Zm148.55,259.73a146.9,146.9,0,0,1,15.51,1.15m8.69,27.39a24.1,24.1,0,0,1-.64,6.95" transform="translate(230 -66.22)"/><path class="cls-5" d="M1109.23,464.24c4.27,7.93,1.49,39.78,1.49,39.78s-6.77-3.18-9.42-4.6-5.22-2.24-5.15-7.94-1.83-17.55-1.83-17.55c-.5-3.4,2.71-5.12,2.71-5.12,8.88-7.07,12.2-4.57,12.2-4.57M1061,527.39c-8.18.81-13.37,6.32-16.49,6.91s-11.07-1.22-11.07-1.22c5.28-9.67,11.11-10.44,12.79-10.44s8,.86,14.5-.79c7-1.78,30.1-17.83,30.1-17.83-1.63,15.37-21.65,22.55-29.83,23.37m71.49-141.85c1.33,28-9.4,39.52-14.14,36.26s-24.21-1-24.21-1-1.69,12.72-4.09,18.55a37,37,0,0,0-1.39,21.41c1.76,7.05,1.35,9.53,1.35,9.53-17.91,16.63-41.53,19.12-42.52,19.21.23-.11,1.34-1.52,5-16.94a79.82,79.82,0,0,0,.49-32.48s-21.34,12.11-26.29,15.49c-7.59,5.19-19,12.65-19,12.65,1-.47,7.3,2.07,7.3,2.07.13,19.9-11.46,20.51-15.05,24.84s-2,14.72-2,14.72c8-9.22,42-13.77,42-13.77s-1.63,7.8,1.22,9.83,6.17,8.14,6.17,8.14c-10.1-5.22-25.69,2.28-31.79,5.62-5.62,3.09-18.35,6.17-18.35,6.17,1.51,3.24.39,16.59.39,16.59-18.26-2.26-34.89.62-35.12,2.4s-1.75,10.57-1.75,10.57l37.27-.23c-.36-9.94,1.68-12.16,1.68-12.16,6,1,19.38-.95,21.87-2.3s8.92-3.75,8.92-3.75c-1,2.57-2,18.11-2,18.11l12.61-.5c-.41-9.9,4.6-15.24,4.6-15.24,4.48,5.83,13.7,7.59,18.71,8.13s10.78-1.83,13.08-3.05,9.32-2.64,9.32-2.64c-2.27,2.58-4.91,12.59-4.91,12.59s37.28.22,40.4,0,5.62-4.15,5.62-4.15l1.39-17.26c-12.18-2.57-21.32-1.23-26.06.6s-7.73.54-7.73.54c8.34-5.28,14.44-23.86,14.44-23.86,3.19,8.81,20.19,15.09,20.19,15.09l.26-2c.87-7.27,3.68-19,5.44-25.94s5.67-24.9,5.67-24.9-7.84-2.45-11.7-5.84c-4.21-3.7-18.23-6.85-18.23-6.85-3.26-5-2.71-13.83-2.71-13.83.27-14.84,10.77-20.4,10.77-20.4a48.06,48.06,0,0,0,30.84,9.89c1-1.16,5-21.69,5.17-22.9s2.45-19.93,2.45-19.93c-9.36-7-25.6-7-25.6-7" transform="translate(230 -66.22)"/><path class="cls-6" d="M1049.07,390.3s7.25,23,4.39,46.56l-.54,3.95s22.19-18.79,41.66-19.88c0,0,3.27-29-3-37.59M978.44,405.27S984,474.68,973,482.12s-16.5,19.27-13.43,32.14,6,15.54,1.09,41.37M932.39,414s1.53,16.47,9.7,26.55,5.4,32.23-11.44,33.91c-8.17.82-12.66-14.41-18.79-.41,0,0-2.86,6.27,4.09,15.94s12.65,18.28,8.57,64.16m-34.3-119s4.31-3.08,8.94-2.36,10.07,4.72,18.33,2.91,16-7.72,23.87-7.54,38.49,4.72,42.39.46,7-6.54,11.89-6.54c4.29,0,25.44,1.81,30.65,2.26a23.64,23.64,0,0,0,2.79.08c6-.19,27.64-1.93,51.48-16.87,28-17.56,31.18-23.15,51.87-23a18.51,18.51,0,0,0-2.72-12.53m-245.1,95.37s7.78,1.11,11.73,0,9.61-2.9,21.87-1.63,18.52,3.57,23.61,1.09,6.35-6.64,14.25-6.32,20.69,8.23,26.68,8.86,19.43,1.73,25.06-1.36c0,0-8.44-6.81-3.09-12.35s23.87-10.35,28-16.16,8.53-14-.91-25.51-1.64-20.38-1.64-20.38M906,416s4.54,16.23,2.36,24.22-7.44,6-8.17,13.44.55,16.16,1.09,23.24,2.91,17.43,1.64,30,1.28,21.61,1.54,28.87a160.9,160.9,0,0,1-1,18.61m-30.2-10.92s37.83,4.07,53.35,3.11S963.19,544,963.19,544m-85.57-46.67a33.37,33.37,0,0,1,13.4-2.22c6.68.55,28.47,2.73,37.32-2s22.6-9.26,32.81-2.45,2.59,17.57,17.16,19.34,19.74-1.23,19.74-1.23l-.82,17.6c-5,1-30.5-.17-44.52,1.47s-56-3.27-63-3.27a65.72,65.72,0,0,0-15.24,2.33m20-107.78s4.24,2.72,2.61,14.52-3.81,22.79-3.63,26.37-1.46,14.07-3.82,18.18-6.89,23.36-4.17,40.43,4.53,23.6,2,35.68m-12.7-32.95s-1.27,24.87-2.36,27.78,2,5.08,7.8,4.9,12.71,1.29,24,0,49.38,2.35,60.27,1.44,58.82,1.09,82.24-1.09,62.29,3.27,78.29-.75a5,5,0,0,0,3.81-4.22c.47-3.54.68-23.9,5.58-43.51s4.54-16.52,9.26-40.67,11.07-38.86,12.16-47.4,2.36-26.51,4.9-33.23,1.64-18.15,1.64-18.15,6.21-7.09-70.71,16.88c0,0-4.36,1.77-39.49,6.54s-43,11-73.66,15.39-39.48,8.85-56,9.8-30.22,0-30.9,9.4-7.49,48.21-10.08,56.79S876,502.46,874.74,521.35Z" transform="translate(230 -66.22)"/><path class="cls-7" d="M996.21,890.26c-.05-1.48-.11-3-.17-4.45a28.52,28.52,0,0,1-.12-4.33l-.22.93c-.1.24-.74.27-.1.2.3,0,.6-.05.91-.06.7,0,1.41,0,2.12,0,1.32,0,2.63,0,3.94.09,2.78.08,5.56.22,8.33.38,5.44.33,10.88.79,16.31,1.29,2.93.27,5.93.37,8.73,1.5.15-1.2.29-2.41.43-3.62a138.08,138.08,0,0,1-18.75.48c-6.2-.27-12.39-1.31-18.6-1.21a1.87,1.87,0,0,0-1.4,2.77c1.42,2.3,4.13,2.25,6.37,2.46,2.55.25,5.12.32,7.69.35,5.23.06,10.46.07,15.69.11-.28-1.15-.55-2.29-.82-3.43a8,8,0,0,1-3.55.77c-1.46.08-2.92.11-4.38.11-3,0-5.89-.14-8.82-.41-.88-.09-1.62.9-1.62,1.84a1.77,1.77,0,0,0,1.62,1.84,90.28,90.28,0,0,0,9.45.41c3,0,6.2.15,8.93-1.38,1.49-.84.72-3.42-.81-3.44l-14.43-.1c-2.31,0-4.61-.05-6.92-.19-1.15-.07-2.29-.17-3.44-.31-.4-.05-1.89,0-2.16-.49L999,885.1c6.21-.09,12.4.95,18.6,1.21a139.71,139.71,0,0,0,18.75-.47,1.9,1.9,0,0,0,.43-3.62c-3.2-1.3-6.71-1.37-10.07-1.68-3.51-.32-7-.62-10.55-.88s-7-.48-10.56-.63a63.63,63.63,0,0,0-10.33-.07,2.69,2.69,0,0,0-2.28,1.32,6.25,6.25,0,0,0-.31,3.22l.27,6.76a1.63,1.63,0,1,0,3.24,0" transform="translate(230 -66.22)"/><path class="cls-7" d="M998,891.38c9,1.42,18.87,3.44,28,3.42,2.25,0,3.85-4,6.11-4a45.64,45.64,0,0,0,6.51-.18c4.85-.66,9.43-3,13.86-5.25s9.73-4.54,12.1-9.64c1.19-2.55.65-6.12-1.74-7.56a4.62,4.62,0,0,0-6.66,2c-.11.25-.25.49-.37.73-.44.88.74-.89.15-.23-.17.19-.34.4-.52.59l-.37.38.59-.52a10.73,10.73,0,0,1-2.72,1.85c-2.22,1.29-4.49,2.47-6.78,3.57l1.16-.56c-3.2,1.53-6.54,3.24-10,3.8l1.29-.19c-3.31.46-6.73.17-10,.17s-6.76,0-10.14.05q-10.21.12-20.42.51a5.31,5.31,0,0,0-4.87,5.53c.12,2.91,2.14,5.63,4.87,5.52" transform="translate(230 -66.22)"/><path class="cls-7" d="M1065.57,878.51a62.53,62.53,0,0,0,3.92-5.3c.24-.35.48-.7.7-1.07a9.25,9.25,0,0,0,1-3.75c.1-1,.1-2,.15-3a6.1,6.1,0,0,0-1.43-3.91,4.46,4.46,0,0,0-6.88,0,6.38,6.38,0,0,0-1.42,3.91c0,1,0,2-.15,3,.06-.49.12-1,.17-1.47a4.1,4.1,0,0,1-.1.48c.16-.44.32-.88.49-1.32a9.38,9.38,0,0,1-1.06,1.75l.76-1.12a47.9,47.9,0,0,1-3,4,6.2,6.2,0,0,0-1.42,3.91,6,6,0,0,0,1.42,3.91,4.64,4.64,0,0,0,3.44,1.62,4.72,4.72,0,0,0,3.44-1.62" transform="translate(230 -66.22)"/><path class="cls-4" d="M1070.64,869.55c0,1.26-.05,1.65-.46,2.17l-17.59,24.39a1.66,1.66,0,0,1-1.47.68L994.68,892c-1.19-.1-1.65-.85-1.65-2.06" transform="translate(230 -66.22)"/></g><line class="cls-4" x1="1223.04" y1="823.84" x2="1223.04" y2="811.1"/><line class="cls-8" x1="1223.04" y1="823.98" x2="1223.04" y2="823.84"/><line class="cls-4" x1="1281.86" y1="830.71" x2="1281.86" y2="817.21"/><line class="cls-4" x1="1300.58" y1="804.18" x2="1300.73" y2="794.1"/><g class="cls-3"><path class="cls-7" d="M1006.87,879.69l18.4-11.58a1.67,1.67,0,0,1,.81-.22l39.09.63" transform="translate(230 -66.22)"/><path class="cls-8" d="M1006.87,879.69l18.4-11.58a1.67,1.67,0,0,1,.81-.22l39.09.63" transform="translate(230 -66.22)"/><path class="cls-7" d="M1064.73,868.31l-12.14,14.3a1.68,1.68,0,0,1-1.47.67l-56.44-4.21c-1.79-.15-2.28-2.86-.67-3.77L1025,857a1.62,1.62,0,0,1,.8-.21l43.11,1.66c1.53,0,2.34,2,1.33,3.32Z" transform="translate(230 -66.22)"/><path class="cls-4" d="M1064.73,868.31l-12.14,14.3a1.68,1.68,0,0,1-1.47.67l-56.44-4.21c-1.79-.15-2.28-2.86-.67-3.77L1025,857a1.62,1.62,0,0,1,.8-.21l43.11,1.66c1.53,0,2.34,2,1.33,3.32Z" transform="translate(230 -66.22)"/><path class="cls-9" d="M1036.14,871.45l10.87,3.11c-1.33-1-4.28-3-6.4-4.53l-.15-.1.17-.11,7.71-3.08-8.55.13h-.29c-.35,0-.65-.36-3.18-4.38l-2.07,4.76-.42.06-.2-.06-9.54-3.68,4,5.51,0,.11-.23,0-9.24,1.94,11.75.06.22,0,.38.21-.11.07.08,3.81c1-.81,3-2.59,4.26-3.8l0-.07.4-.1Zm5.27-1.47c7.28,5.09,7.25,5.1,6.9,5.22l-.25.09-.24-.11-12-3.42c-4.66,4.34-4.91,4.31-5.28,4.26l-.31,0v-.17l-.08-4.23-13-.07-.28,0-.18-.15c-.1-.09-.14-.13.21-.22l1.61-.36,3.68-.77,5.11-1.07-4.34-5.94.26-.09a.82.82,0,0,1,.35,0l.15,0,10,3.85,2.26-5.21h.62l.11.14c1.27,2,2.72,4.27,3.13,4.77l9.75-.14.26.24-.2.09Z" transform="translate(230 -66.22)"/><path class="cls-10" d="M1036.32,862.49c2.53,4,2.83,4.33,3.11,4.37l.34,0,8.57-.15-7.71,3.08-.17.11.15.1c2.12,1.48,5.07,3.56,6.4,4.53l-10.89-3.09-.52-.14-.4.1,0,.07c-1.3,1.21-3.27,3-4.26,3.8l-.08-3.81.11-.07-.38-.21-.22,0-11.75-.07,9.24-1.93.23,0,0-.11-4-5.51,9.54,3.68.2.06.42-.06Z" transform="translate(230 -66.22)"/><path class="cls-4" d="M1122,621.8s-12,54,24,60,124,23.33,130,23.33,2,86.67-6,150.67c0,0-11,13.93-39,7s-36-12.44-59-5-67-13-25-22,63-18,74-4,15,33.43-21.52,33.43-47.48-11.56-66.48.5-31-.93-62.29-.93" transform="translate(230 -66.22)"/><path class="cls-4" d="M1022,886.8c-2,3-12,1-14,1s-3,1-2.75,2.26a6.11,6.11,0,0,0,.75,1.74,11.46,11.46,0,0,0,1.6,2.12c11.51,12.23,55.44,15.72,24.28,30.88C999,940.8,921,911.69,888,925.25s-32,52.55-8,47.55c0,0-1-4,1-4a10.34,10.34,0,0,0,4-1s-1-3,2-3,3,8,4,11-3,3-4-1l-1-4-1-3" transform="translate(230 -66.22)"/><g class="cls-11"><g class="cls-12"><path class="cls-13" d="M-143.44,239.37s53.63,122.55,51,259.78S-146,728.87-117.92,845.27s25.53,221.63,25.53,221.63m7.94-986.23S-145.58,182.08-63,308.73s-3.1,72.83,48.25,312S-38.87,833.91,12.06,974.32s0,150,0,150m77.74-57.4S74.63,1001.8,113,923.53,33.5,799,44.23,701,34.5,570.12,24.62,488.45s-8.89-150.69,0-204.67-52.77-75-55.45-196M49.59,67.17c0,12-75.47,89.35,36,142.73,0,0,55.16,14.22-17.22,119.9s39.82,132.48,37.34,404.89c0,0-2.14,84.7,65,110.58s5.78,1.59-9.41,135.53-17.87,170-17.87,170m59.18-98.23s-26.12-39.39,1.58-132.1,42-76,10.73-145.34-103.66-90.88-74.17-248.74-36.7-223.1-6.92-284.61-38.65-109.48-22.57-154m69.7-20.59c-26.8,14.35-37.53,30.19,0,110.76s45.83,158.85,43,246.47-53.33,133.07-21.37,228.74,44.48,39.22,48,180.2,32.46,185.73,18.91,204.86m2.54-971s-118.62,40.62-45.91,107.6,91.48,114.83,70,165-75.06,94.35-40.21,205,93.18,172.86,58.65,218.3,24.45,133.48,21.77,238.94.09,150.25.09,150.25M328.38,91.88s-21.45-8.83-10.72,49,64,270.69,41.37,349.62-1.16,112.41,25.64,222.43-2.68,192.46,0,267.23,11.34,98.7,11.34,98.7m102.46-12c-11.93-7.17-85.41-29.08-36.06-210.47S428.68,686.49,445.55,604s27.59-107.59,11.5-148.83S376.68,442.77,374,308.73s-32.17-140.42,0-228.06m80.42,7.09S411.48,162.84,441,203.49s40.93,79.58,33.87,118.72S487.77,350,498.47,437s35.73,145.24,15.92,226.13-32,322.45,41.12,375.07S546,1116,546,1116m809.11-114.46c-10.72-8-53.61-43.26-117.95-45.55s-69-60.05-155.48,0c-88.87,61.74-140.33,10.84-197.31,0-50.05-9.52-50.09,51.93-147.1,45.55s-231-18.44-293.59-22.78-67.91,13.21-110.8-13.9-39.32-3.39-78.64,9.47S197,988.77,161.28,980.8,20.1,993.56-44.24,993.56-156.93,984-164,987.18m1519.11-85.31s-31.67,32.36-66.77,18.58-24.51-32.13-101.22-26.55-105.95,63-226.77,39.07-112.83-2.4-157.93,0-100.5-16-172,0S463.31,960.86,358.76,913s-114.38-4.31-154.59,7.42-78.63,44.4-227,33.24S-164,956-164,956M1355.08,845.27c-34.43-6.69-75.06-23.12-117.95,0s-122.88,10-201.06,15.94-217.54,23-332.4,10.44-139.39,25.44-235.9,20.66S218.47,863,180.94,871.65,4,930.57-103.21,918.61s-120.63-16.74-126-9.56M1355.08,775.11s-77.36,62.14-141.59,31.15c-37.73-18.2,9.17-63-207.62-14.57C966.16,800.56,824,861,723.65,822.86s-158.14-7.09-168.14-4.7S505,827.73,441,836.08c-127.75,16.65-222.79-58.85-320.21-2.74-41.88,24.12-172,14.87-284.79-7.83M1333.41,672.27s-68.21-27.55-76.23,13,26.49,75.12-43.69,57.36-183.26-48-209.5-22.55-116.07,40.66-168,38.27-227.6-35.38-280.5.25-69-38.52-101.14-21.77-23,26.3-95.34,28.7-124.64-47.84-202.38-19.14S52.27,761-52.28,734.69s-152.8,26.07-152.8,26.07m1570.88-122s-157.37-31.09-207.35,12c-18.48,15.92-36.18,22-54.1,23.41m229.06-114.38s-71.94-13.62-146.61-14.83M612.56,1021.09c-9.82-99-44.71-258.81-40.55-310.55,8.45-105.24,60-267.3,1.34-299.27C503.42,373.15,486.47,252.67,506,91.88m32.19.1s26,219.14,83.1,288.5,13.4,294.18,34.85,351.58-2.68,179.59,0,254.83a219.41,219.41,0,0,0,3.63,34.47M612.56,98.18c3.47,135.64.86,166.45,59,205.77,77.74,52.61,27.58,85.19,32.94,195.2s6,159.63,32.79,195.89-38.93,89.64-4,233.14c10.24,42.09-29.76,69.83-34.39,93.18m70.56,0c-4.35-63.8-.73-161.28,41.93-193.63,53.61-40.66,68-63.33,24.68-132.69s-84.55-161.49-68-264.33C783.07,336.92,646.19,211.32,656.51,92m124.3,0c-21.83,44.12-49.17,121-7.6,171.31,57.87,70.11,27.46,251.43,80.65,307.34M855.32,92C847.23,131.54,843,206.58,879,227.41c49.54,28.7,74.28,40.19,81.34,129.15a192.88,192.88,0,0,1,.54,23.24M936.12,92c9.11,22.58,31.16,55.28,84.33,74.76,58.8,21.54,3,112.2-21.78,205.63M1130.2,94.86c-2.39,47.87-20.67,129.94-69.29,199.52-20.23,28.95-26.67,50.87-24.41,69.58M1237.13,80.67c.86,3.19,2.53,8.06,4.57,14.19m0,0c10.73,32.25,31.47,99.15-4.57,137.33-42.89,45.45,48.75,155.47,51.18,189s-12.2,186-31.29,239.17S1357.76,760.76,1314.87,854c-31.44,68.38-11.76,135.89,1,167.05M1183.4,94.86c-18.44,51.74-36.22,129.23-16,204.3A189,189,0,0,0,1182,337.45m151,135.29c-55.17,19.68-95.3,24-137.24,22.4M-139.67,843.6q-4.19,1-7.55,1.67M1333.41,397.43c-23.19,8-67-6.49-122.74-10.76M-143.25,114.81l3.5-.4m0,0c99.57-11.48,309-30.17,457.41-5.67,216.4,35.74,176.92-41.57,439.69,4.64,128.83,22.66,168.82,39.89,348.43,16,110.63-14.73,185.75-16.68,227.13-16m0,216.9c-55.33-28.16-22.28-37.76-79.7-39.26-64.33-1.69-80.21,22.77-162.07,32.33s-186.56-14.35-216,26.31S653.79,253.72,575,251.33s-247.45,78.4-276.93,16.21S183.18,347.81,62.55,338.76c-76.11-5.71-148,21.63-202.22,23.24m1472.58-87.08a22.15,22.15,0,0,1-8.7,4.52c-48.56,11.81-108-117.09-147.84-86.9-53.62,40.66-45.73,99.12-153.33,77.6s-189.68-110-307.63-71.78-70.48-29.55-118.61-39.11-64.69,20-316.67,15.22S103.2,244.79-4,273c-64.31,16.92-101.63,10.79-135.65,2.66" transform="translate(230 -66.22)"/></g></g><g class="cls-11"><g class="cls-14"><path class="cls-13" d="M1015.56,665.35q-4.78-.26-9.69-.26c-58.25,0-152.93,19.34-254.28,23.92s-61.5-27-160.5-35.87C483.86,643.57,483.71,669.76,336.51,689,227.15,703.31,355.33,609.75,55,662.7c-65.75,11.59-195.69,4.79-238.58,4.79" transform="translate(230 -66.22)"/></g></g><g class="cls-11"><g class="cls-15"><path class="cls-13" d="M1092.45,694.58c14.09,38,21.69,72.77,18.31,104.45-7,66.16,17.35,177.08-36.59,222.06" transform="translate(230 -66.22)"/></g></g><g class="cls-11"><g class="cls-16"><path class="cls-13" d="M1126.41,691.5a336,336,0,0,0,4.07,54.1c12,73.26,62.33,197.46,83,275.49" transform="translate(230 -66.22)"/></g></g><g class="cls-11"><g class="cls-17"><path class="cls-13" d="M1126.49,682.4c-.06,3-.09,6.06-.08,9.1" transform="translate(230 -66.22)"/></g></g><g class="cls-11"><g class="cls-18"><path class="cls-13" d="M852.58,588.84q-8,.92-16.57,2.11c-102.85,14.35-222.26-16.74-327.85-38.27s-128.32,62.74-206.06,49.8-326.5-79.57-441.77-42.71" transform="translate(230 -66.22)"/></g></g><g class="cls-11"><g class="cls-19"><path class="cls-13" d="M859.8,523.36C745.54,587.74,651,468.88,546,455.21c-199.5-26-205.53,17.46-344.92,36.59C68.5,510-85.66,467.64-139.67,455.21" transform="translate(230 -66.22)"/></g></g><g class="cls-11"><g class="cls-20"><path class="cls-13" d="M870.6,431.82c-47-1.64-89.33-7.25-133.36-8.29-101.16-2.39-150.92-147.23-222.85-93-77.52,58.42-159.06,5.6-327.17,102.59-42.93,24.76-223.41-36.88-326.89-20.63" transform="translate(230 -66.22)"/></g></g><g class="cls-11"><g class="cls-21"><path class="cls-13" d="M1211.57,374.72c31.67,26.55,54.71,20.79-1.25,106.17Q1200.44,496,1193,509.55" transform="translate(230 -66.22)"/></g></g><g class="cls-11"><g class="cls-22"><path class="cls-13" d="M1130.2,623.05c-1.72,19.24-3.33,39.13-3.71,59.35" transform="translate(230 -66.22)"/></g></g><g class="cls-11"><g class="cls-23"><path class="cls-13" d="M949.07,613.8c23.34,51,36.8,77.89,28.68,131.8-11.42,75.8-43.27,223,6,275.76" transform="translate(230 -66.22)"/></g></g><g class="cls-11"><g class="cls-24"><path class="cls-13" d="M893.72,605.44c37.53,45.57,38.52,110.39,41.55,154.41C939,813.38,811,923.4,824,968.84c4.22,14.69,4.27,33.62,2.42,52.52" transform="translate(230 -66.22)"/></g></g></g></g></svg>