<svg id="fondos" xmlns="http://www.w3.org/2000/svg" xmlns:xlink="http://www.w3.org/1999/xlink" viewBox="0 0 1329.46 1952.04"><defs><style>.cls-1,.cls-6{fill:none;}.cls-2{clip-path:url(#clip-path);}.cls-3{clip-path:url(#clip-path-2);}.cls-4{opacity:0.21;}.cls-5{clip-path:url(#clip-path-3);}.cls-6{stroke:#da00f9;stroke-miterlimit:10;stroke-width:5px;}</style><clipPath id="clip-path" transform="translate(344.56 523.95)"><rect class="cls-1" x="-344.56" y="-523.95" width="1329.46" height="1952.04"/></clipPath><clipPath id="clip-path-2" transform="translate(344.56 523.95)"><rect class="cls-1" x="-344.56" y="-523.95" width="1329.46" height="1952.04"/></clipPath><clipPath id="clip-path-3" transform="translate(344.56 523.95)"><rect class="cls-1" x="-361.56" y="-536.95" width="1363.46" height="1966.04"/></clipPath></defs><g class="cls-2"><g class="cls-3"><g class="cls-4"><g class="cls-5"><path class="cls-6" d="M-226.39,1223.34s6.19-66.12,43.35-66.12-13.94-39.07,18.58-103.68,52.63-58.6,55.73-72.13m564-1034L959,300M465.42-61.67l518.26,287M429.53-74.39-318-513.83M440.63-81-193.09-521.9M502.23-69c-46.21,4.13-49.66,7.48-53.91,52.33-4.25-44.85-7.7-48.2-53.91-52.33,46.21-4.12,49.66-7.47,53.91-52.32C452.57-76.49,456-73.14,502.23-69ZM209.51,139.66s-29-13.77-31.65-10,0,7.71,0,7.71M250.45,353.8s-27.87-4.34-47.82-37.73-15.14-62.11,4.82-91.5,20-14,1.37-36.06-12.38-19.37-24.08-40.07-25.46-30.72-7.57-40.74M-66.21,1248.76s-7.43,40.7,14.25,47.71,48.51-2,52.64,0,13.41,29,6.19,41.07-8.26,21-29.93,13-81.54-23-37.16-71.12S-11.71,1375.38,69.83,1390s183,51.71,185.92,27.66,40.11-51.09-27-52.09-125.92,0-129-71.12-9.12-218.39-3.53-230.41-18.14-26-12-58.1,31-159.29,34.06-185.33,145.53-34.06,142.43-9S221.55,963.88,205,982.92s24.77,67.11,31,84.14-3.1,131.24-36.12,159.29,37.15,75.13,44.38,89.15-9.29,104.19,18.58,103.19,28.9-44.08-28.9-144.26,55-59.1,21.81-208.37c0,0-31.1-34.06-23.88-79.14s71.22-170.3,42.32-238.42,6.19-76.13,29.93-108.19,33-118.21,16.52-168.3,12.38-74.13-12.39-91.16-52.64-31.05-57.8-27.05,72.29,14,64.53,183.33c0,0,1.8,38.06-59.23,24s-100.25-22-111.61-22-91.79,63.43-78.44-13S27.51,499.06,88.41,341.78c0,0,13.41-19.53,47.47-38.57s41.81-39.57,41.81-48.08,3.61-36.07-22.71-35.56c0,0-10.32.5-9.81-7.52s-6.7-17-16.51-18.53,3.61-22.54-26.32-27.05m331.83,58.1s-44.38-4.34-47.48-5-27.52-2.34-32.34-1.34-26.49-5-30.27-6.68c0,0-8.6-3.84-8.95,5.68s0,18.2,0,18.2v34.29a30.15,30.15,0,0,0,.49,5.44l.06.37c5.75,31.46,65.85,17.16,65.85,17.16,55.74-20,72.25,24.05,11.35,28.05s-71.21,48.09-88.76,101.18S344.37,490,353.66,526.11s73.28,36.4,62.28,69.12-11.7,144.92-10.33,202.07,79.82,36.35,73.63,105.14,23.39,66.12,31.65,104.85,0,69.46,77.07,118.88,83.26,124.22,91.51,167.63-140.37,90.83-103.73,30.72,2.58-79.47,22.54-134.24-22.54-64.78-22.54-64.78c-97.53-44.08-55.9-114.87-87.56-135.57s-20.64-82.15-23.39-104.19S394.6,827.64,402.86,821s191.29-12,195.42,14.69S661.58,973.23,683.6,1016s-21.33,17.37.69,38.07,79.82,215.72,79.82,232.41-103.9,50.09-151.38,56.77-27.53,19.37.69,40.07,53-12,100.46-22,103.9-42.07,121.79-54.1,17.89-73.46,17.89-84.81-6.2-8.68-6.2-8.68c12.39-68.12-43.34-175-61.23-183.66s-14.45-12.69-14.45-12.69c20.64-107.52-55.74-205-67.44-218.39S688.59,765,699.43,753s-24.77-309.55-93.89-293-8.29,82.65-.55,50.4-69-116.18-65.54-131.54,6.88-48.09-18.93-59.11-70.18-41.4-75.34-45.75-13.42-11.68-20.64-14-40.94-4.67-66.4-9.68-36.47-11-36.47-11c-20.64-14.7-23.74-24.38-23.74-24.38.52-10.57,8.07-10.71,11.76-10.13,0,0,4.92,1.57,5.29-1.89l.15-3.59c0-8.44-.05-12.11-.05-19.95m.4-39.67s-26.15,2.1-23.74,16.46S301,176.49,301,176.49s20.29,5.68,29.93,9,13.41,6.34,28.21,8.68,61.58,16,67.43,19.36,3.44,11,3.44,11M315.75,143.41c-.18-.13-.67-.23-.67-.31m196,4.34s-72.76-64.62-80.5-71.63-15.48-12-22.19-11-60.9-5.51-60.9-5.51-27.52.34-30.27,0c-2.41-.29-10-.11-8.05,7.14,0,0,.07,2,3.1,1.63a2,2,0,0,1,2.32,2.63c-.27,1.63-3,2-3,2H311c-37.5-.17-79.4-41.77-56.11-54.14S315,20.71,315,20.71s11.54-1.83,0-8.51c0,0,4.62.5-37.69-7.51s-66.06-58.61-82.06-62.11S168.57-49,168.57-49c-1.13,1.11-3.1-.86-3.1-.86S151-59.26,160.66,16.21,204,50.27,213,64.29s-40.34,6-55.61,22-43.13,42.07-55,80.14c0,0-12.21,8-16.34-.67s-14.45-20-27.52-15c-5,1.91-20.55,25-37.87,52.88-28,45.08-60.7,102.56-60.7,102.56s-18.58,20-21.16,0,1.55-58.6-16-63.61-45.93-1-67.6,58.1-72.25,334.59-92.9,350.62-35.09,67.12-28.9,95.17-26.83,91.16-29.93,133.23S-344,951.86-342,972.9s98.05,220.39,115.6,250.44A1991.34,1991.34,0,0,0-22,1253.39s22.71,7,21.67-55.09-21.67-48.09-14.45-78.14S-8.61,1054-5.52,1029s-1-65.12,13.42-80.15,16.52-50.08,20.64-62.11,4.13-37.06,4.13-76.13,21.68-267.47,33-284.5S88.41,341.78,88.41,341.78,74,320.24,56.93,368.33,36.8,505.07,18.22,533.62s-17,81.14-27.87,114.2S-51.45,735-66.93,781.56s-106.82,162.29-140.88,76.63-100.64-88.65-32.52-169.8,87.5-413.34,130.57-455.13c33-32.06,127.57-25.09,127.57-25.09m474.38-77.5A206.66,206.66,0,0,0,461,95.85c-19.62-17.53-53.16-58.61-58.84-65.12S383.6,21.88,374,11.86s-2.75-18-1.72-18.69,15.83,0,15.83,0c17.2.66,29.59,10.51,45.58,22.53s36.64,30.56,36.64,30.56S528.09,103,537,107.7s21.33,28.05,21.33,28.05S648.51,262,658.14,275.33s9.64,37.4,9.64,37.4v52.76s-55-10.69-40.6,13.36,97,20,74.31-56.1-167.89-138.91-169.27-203c-.62-28.82-1.1-77-1.44-121.21M315,83.2c0,34.64,0,32.46.07,59.9m124.59,28.43c2.75-.34,7.57-20.75-2.75-24.09S391.16,103,383.6,99.69s-26.15-8.69-37.51-10A82.38,82.38,0,0,1,324,83.2c-3.46-1.54-8.51-1.38-8.51-1.38S253,82.82,226.2,12.2s-46.07-55.7-46.07-55.7c-2.6,1.46-.48,2.34,1.55,2.8a10.2,10.2,0,0,1,5.17,3C210.29-12.63,205,42.14,203.32,87.67c-2.07,56.09,27.52,85.48,27.52,85.48s57.46,79.47,70.87,84.48a35,35,0,0,1,5.2,2.41s57.83,10.62,110.61-12.42,57.42-54.86,50.71-65.5c0,0-5.16-8.3-20.64-9,0,0-62.62-12.69-69.16-15.69s-39.9-7-44-7.68c-3.8-.62-16.79-5-18.82-6.46" transform="translate(344.56 523.95)"/><path class="cls-6" d="M437.69-36.82c-20.6,1.84-22.14,3.33-24,23.33-1.9-20-3.43-21.49-24-23.33,20.6-1.84,22.13-3.34,24-23.33C415.55-40.16,417.09-38.66,437.69-36.82Z" transform="translate(344.56 523.95)"/><path class="cls-6" d="M334.16-133.52c-4.93.9-20.37,5.2-20.7,23.89-.18,10.3-.2,86.41-.16,165.2" transform="translate(344.56 523.95)"/><path class="cls-6" d="M532.94-25.54c-.3-44.1-.45-79.15-.45-79.15s1.92-29.09-23-29.1H366.19" transform="translate(344.56 523.95)"/></g></g></g></g></svg>