<svg xmlns="http://www.w3.org/2000/svg" xmlns:xlink="http://www.w3.org/1999/xlink" viewBox="0 0 1131.28 2429.25"><defs><style>.cls-1,.cls-11,.cls-18,.cls-2,.cls-4,.cls-6{fill:none;}.cls-2{stroke:#0000f9;}.cls-11,.cls-18,.cls-2,.cls-4,.cls-6{stroke-miterlimit:10;stroke-width:1.45px;}.cls-3{fill:#8fff3c;}.cls-4{stroke:#8fff3c;}.cls-5{fill:#fff;}.cls-6{stroke:#322b80;}.cls-7{fill:#7f67bb;}.cls-8{fill:#0000f9;}.cls-9{opacity:0.17;}.cls-10{clip-path:url(#clip-path);}.cls-11,.cls-18{stroke:#da00f9;}.cls-12{clip-path:url(#clip-path-2);}.cls-13{clip-path:url(#clip-path-3);}.cls-14{clip-path:url(#clip-path-4);}.cls-15{clip-path:url(#clip-path-5);}.cls-16{clip-path:url(#clip-path-6);}.cls-17{clip-path:url(#clip-path-7);}.cls-18{opacity:0.17;}.cls-19{clip-path:url(#clip-path-8);}.cls-20{clip-path:url(#clip-path-9);}.cls-21{clip-path:url(#clip-path-10);}.cls-22{clip-path:url(#clip-path-11);}</style><clipPath id="clip-path" transform="translate(-32.42 -79.14)"><rect class="cls-1" x="977.25" y="502.41" width="7.51" height="19.09"/></clipPath><clipPath id="clip-path-2" transform="translate(-32.42 -79.14)"><rect class="cls-1" y="480.45" width="899.41" height="45.19"/></clipPath><clipPath id="clip-path-3" transform="translate(-32.42 -79.14)"><rect class="cls-1" x="32.53" y="411.8" width="745.51" height="52.83"/></clipPath><clipPath id="clip-path-4" transform="translate(-32.42 -79.14)"><rect class="cls-1" x="32.59" y="340.26" width="751.11" height="81.1"/></clipPath><clipPath id="clip-path-5" transform="translate(-32.42 -79.14)"><rect class="cls-1" x="32.64" y="249.61" width="758.77" height="99.02"/></clipPath><clipPath id="clip-path-6" transform="translate(-32.42 -79.14)"><rect class="cls-1" x="1024.95" y="289.44" width="45.58" height="108.46"/></clipPath><clipPath id="clip-path-7" transform="translate(-32.42 -79.14)"><rect class="cls-1" x="975.31" y="464.72" width="10.21" height="54.52"/></clipPath><clipPath id="clip-path-8" transform="translate(-32.42 -79.14)"><polygon class="cls-1" points="870.89 2515.84 983.57 2515.84 971.64 514.89 911.4 510.07 870.89 2515.84"/></clipPath><clipPath id="clip-path-9" transform="translate(-32.42 -79.14)"><polygon class="cls-1" points="948.86 2485.34 1069.69 2546.33 1069.69 512.96 975.25 512.96 948.86 2485.34"/></clipPath><clipPath id="clip-path-10" transform="translate(-32.42 -79.14)"><polygon class="cls-1" points="784.47 2504.6 983.37 2504.17 920.11 457.97 791.01 444.25 784.47 2504.6"/></clipPath><clipPath id="clip-path-11" transform="translate(-32.42 -79.14)"><polygon class="cls-1" points="717.77 2513.56 828.77 2515.84 840.36 451.94 737.09 449.66 717.77 2513.56"/></clipPath></defs><g id="fondos"><path class="cls-2" d="M935.22,466.1s13.18,27.48,16.58,34c3.63,7-1.54,8.87-1.54,8.87-18.38,8.08-29.7,10.15-29.7,10.15-21.14-1.65-44.5-8.59-44.5-8.59l-.27,4.28s33.26,8.6,44.3,9.21c0,0,21.21-5.66,35.61-7.44a150.8,150.8,0,0,1,24.57-1.21l.34-6.62s-15.89.17-19.67-7.65-17.52-35-17.52-35" transform="translate(-32.42 -79.14)"/><path class="cls-2" d="M875.57,510.07l17-8.64s7.06-3.66,2-11c-4.75-7-18.55-27.44-18.55-27.44" transform="translate(-32.42 -79.14)"/><path class="cls-2" d="M793.25,351s-5.51,25.54-6.72,43.58-5.79,30,2,30.25,69.82,5.84,95.78,3.56,79.24-1.4,87.58-1.4,11.7-1.15,15.06-1.65,1.48-2.42,2.16-8.26,4.84-19.32,5.65-25.42,10.49-60.61,12.64-67.73,7.8-41.81,7.8-41.81,1.75-5.34-3.22-3.94-14.4,4.2-21.53,4.45S960.19,288,946.2,290s-19.23,4.7-27.84,5.85-6.46-.26-31.88,5.84-35.25,4.83-50.72,7.75-31.21,6.1-31.21,6.1-5.78.13-6.46,6.86S793.25,351,793.25,351Zm195,115.82s13.77,1.47,16.39-16.26,10.09-63.09,10.09-63.67,2.83-18.48,5.45-36.4,4.64-21.92,6.06-29,3.83-40.79,3.83-40.79,2.82-13.68-11.91-15.23M791.88,316.19a8.57,8.57,0,0,0,.42-2.06c.13-1.63.91-4.9,4.92-5.11,5.35-.29,27.24-5.43,32.49-7.34s40.15-8.77,49.84-10.48,70-14.87,76.68-15.25,29.25-5.34,37.33-7.05,44.19-10.68,47.82,9.91-5.45,40-5.85,62.14-12.51,62.33-14.13,89.2.81,36.54-26.84,36.66-31.47-1.39-46.4-.82-103.39-5-121.82-8.13-35.91-4.83-40.49-5.09-11.84-.89-11.43-6,2.15-24.27,2.29-28.46a78.82,78.82,0,0,1,3.22-21.61c2.83-8.89,7.3-67,9.82-74.34ZM902.55,499s6.16.1,11.55.81m6.48,19.29a16.2,16.2,0,0,1-.47,4.89" transform="translate(-32.42 -79.14)"/><path class="cls-3" d="M966,355.19c3.18,5.58,1.11,28,1.11,28s-5-2.24-7-3.25-3.89-1.57-3.84-5.58S954.84,362,954.84,362c-.38-2.39,2-3.6,2-3.6,6.61-5,9.09-3.22,9.09-3.22m-36,44.45c-6.09.58-10,4.46-12.29,4.87s-8.24-.86-8.24-.86c3.93-6.81,8.28-7.35,9.52-7.35s6,.61,10.81-.55c5.22-1.26,22.42-12.55,22.42-12.55C951,394,936.08,399.07,930,399.64m53.26-99.85c1,19.71-7,27.82-10.54,25.53s-18-.7-18-.7-1.26,9-3,13.06a24.77,24.77,0,0,0-1,15.07c1.32,5,1,6.71,1,6.71-13.34,11.7-30.94,13.46-31.67,13.52.16-.07,1-1.07,3.7-11.92a53.24,53.24,0,0,0,.36-22.87s-15.9,8.53-19.59,10.91c-5.65,3.65-14.13,8.91-14.13,8.91.74-.34,5.43,1.45,5.43,1.45.1,14-8.53,14.43-11.21,17.49S883,387.3,883,387.3c5.92-6.48,31.3-9.68,31.3-9.68s-1.22,5.48.9,6.91,4.6,5.73,4.6,5.73c-7.52-3.67-19.14,1.61-23.68,4-4.19,2.17-13.67,4.34-13.67,4.34,1.12,2.28.28,11.68.28,11.68-13.6-1.59-26,.44-26.16,1.69s-1.31,7.44-1.31,7.44l27.78-.16c-.27-7,1.24-8.56,1.24-8.56,4.47.7,14.45-.67,16.3-1.62s6.65-2.64,6.65-2.64c-.76,1.81-1.47,12.75-1.47,12.75l9.4-.35c-.3-7,3.43-10.73,3.43-10.73,3.33,4.1,10.2,5.34,13.94,5.72s8-1.29,9.74-2.14a43.36,43.36,0,0,1,7-1.87c-1.7,1.82-3.67,8.86-3.67,8.86s27.78.16,30.1,0,4.19-2.92,4.19-2.92l1-12.15c-9.08-1.81-15.88-.86-19.42.42s-5.75.39-5.75.39c6.21-3.73,10.75-16.8,10.75-16.8,2.37,6.2,15,10.62,15,10.62l.2-1.4a165.79,165.79,0,0,1,4-18.26C987.05,373.61,990,361,990,361s-5.84-1.72-8.72-4.11c-3.14-2.6-13.59-4.82-13.59-4.82-2.42-3.53-2-9.73-2-9.73.21-10.45,8-14.36,8-14.36a37.43,37.43,0,0,0,23,7c.75-.82,3.75-15.27,3.85-16.13s1.82-14,1.82-14c-7-5-19.07-5-19.07-5" transform="translate(-32.42 -79.14)"/><path class="cls-4" d="M921.12,303.15s5.41,16.19,3.28,32.77L924,338.7s16.54-13.23,31-14c0,0,2.44-20.42-2.23-26.46m-84.29,15.43s4.15,48.86-4.1,54.1-12.29,13.56-10,22.63,4.46,10.93.81,29.11m-21-99.7s1.14,11.6,7.22,18.69,4,22.69-8.52,23.87c-6.08.58-9.43-10.14-14-.29,0,0-2.13,4.41,3.05,11.22s9.42,12.87,6.38,45.16m-25.55-83.73a10.67,10.67,0,0,1,6.66-1.66c3.44.51,7.5,3.32,13.66,2s11.9-5.43,17.78-5.3,28.67,3.32,31.58.32,5.21-4.6,8.86-4.6c3.2,0,18.95,1.27,22.83,1.59a20.64,20.64,0,0,0,2.08.06c4.44-.14,20.59-1.37,38.35-11.88,20.9-12.36,23.23-16.29,38.65-16.2a12.36,12.36,0,0,0-2-8.81M798.6,357.42s5.79.79,8.74,0,7.15-2,16.29-1.14,13.8,2.51,17.59.76,4.73-4.67,10.62-4.44,15.41,5.79,19.88,6.23,14.47,1.22,18.66-.95c0,0-6.29-4.8-2.3-8.7s17.79-7.28,20.9-11.37,6.36-9.84-.68-18-1.22-14.34-1.22-14.34m-92.58,15.7s3.39,11.42,1.77,17.05-5.55,4.21-6.09,9.45.4,11.38.81,16.36,2.16,12.28,1.22,21.09.95,15.22,1.15,20.33a106.94,106.94,0,0,1-.75,13.1m-22.49-7.69s28.17,2.86,39.74,2.19,27.28-1.72,27.28-1.72m-63.75-32.86a26.2,26.2,0,0,1,10-1.56c5,.39,21.2,1.92,27.8-1.44S848,369,855.62,373.79s1.93,12.37,12.78,13.61,14.71-.86,14.71-.86l-.61,12.39c-3.75.69-22.72-.12-33.17,1s-41.69-2.3-47-2.3A51.6,51.6,0,0,0,791,399.3m14.92-75.87s3.17,1.92,2,10.22-2.84,16-2.7,18.57-1.09,9.9-2.85,12.8-5.13,16.44-3.11,28.45,3.38,16.61,1.49,25.12m-9.47-23.2s-.94,17.51-1.75,19.56,1.48,3.58,5.81,3.45,9.47.91,17.85,0,36.79,1.66,44.91,1,43.82.77,61.27-.77,46.4,2.3,58.32-.52a3.66,3.66,0,0,0,2.84-3c.36-2.49.51-16.82,4.16-30.62s3.38-11.64,6.9-28.64,8.25-27.35,9.06-33.36,1.76-18.66,3.65-23.39,1.22-12.78,1.22-12.78,4.63-5-52.68,11.89c0,0-3.25,1.24-29.42,4.6s-32,7.77-54.87,10.83-29.42,6.23-41.69,6.91-22.52,0-23,6.61-5.58,33.94-7.51,40A117.08,117.08,0,0,0,791.24,395.39Z" transform="translate(-32.42 -79.14)"/><path class="cls-5" d="M881.74,655.07c0-1-.08-2.09-.13-3.13a19.46,19.46,0,0,1-.08-3.05l-.17.65c-.07.18-.55.2-.07.15l.67-.05c.53,0,1.06,0,1.59,0,1,0,2,0,2.93.06q3.1.09,6.21.27c4,.23,8.1.55,12.15.9a23.88,23.88,0,0,1,6.5,1.06c.11-.85.22-1.7.32-2.54a110.38,110.38,0,0,1-14,.33c-4.62-.19-9.23-.92-13.86-.85a1.31,1.31,0,0,0-1,1.95c1.06,1.62,3.08,1.58,4.75,1.73,1.9.18,3.81.22,5.73.24,3.89.05,7.79.06,11.68.08-.2-.8-.4-1.61-.61-2.41a6.28,6.28,0,0,1-2.64.55c-1.09,0-2.18.07-3.26.07q-3.3,0-6.57-.29a1.26,1.26,0,0,0-1.21,1.29,1.28,1.28,0,0,0,1.21,1.3q3.51.32,7,.29c2.21,0,4.62.1,6.65-1a1.33,1.33,0,0,0-.61-2.42l-10.75-.07c-1.71,0-3.43,0-5.15-.14-.85,0-1.71-.12-2.56-.22-.3,0-1.41,0-1.61-.34l-1,2c4.63-.06,9.24.67,13.86.85a108.54,108.54,0,0,0,14-.33,1.32,1.32,0,0,0,.33-2.55c-2.39-.91-5-1-7.51-1.18s-5.24-.44-7.86-.62-5.25-.34-7.87-.45a50.63,50.63,0,0,0-7.69,0,2,2,0,0,0-1.71.93,4.22,4.22,0,0,0-.22,2.26c.07,1.59.13,3.18.2,4.76a1.21,1.21,0,1,0,2.41,0" transform="translate(-32.42 -79.14)"/><path class="cls-5" d="M883.08,655.86c6.7,1,14.06,2.42,20.85,2.41,1.68,0,2.88-2.8,4.56-2.79a39.28,39.28,0,0,0,4.85-.13c3.61-.47,7-2.14,10.33-3.7s7.25-3.19,9-6.78c.88-1.8.48-4.32-1.3-5.33a3.56,3.56,0,0,0-5,1.4c-.08.18-.18.34-.28.52-.32.61.56-.64.12-.17-.13.14-.25.28-.39.42a3.45,3.45,0,0,1-.28.26l.44-.36a8.29,8.29,0,0,1-2,1.3c-1.66.91-3.35,1.73-5.06,2.51l.87-.39a30.2,30.2,0,0,1-7.45,2.68l1-.14a58.49,58.49,0,0,1-7.49.12c-2.52,0-5,0-7.55,0q-7.62.09-15.22.36a3.82,3.82,0,0,0-3.62,3.89c.08,2,1.59,4,3.62,3.89" transform="translate(-32.42 -79.14)"/><path class="cls-5" d="M933.42,646.8a44,44,0,0,0,2.92-3.73c.18-.25.36-.49.52-.75a6.22,6.22,0,0,0,.74-2.65c.08-.68.08-1.38.11-2.08a4.06,4.06,0,0,0-1.06-2.75,3.44,3.44,0,0,0-5.12,0,4.38,4.38,0,0,0-1.07,2.75c0,.69,0,1.4-.11,2.08,0-.34.09-.69.13-1a1.87,1.87,0,0,1-.08.34c.13-.31.25-.62.37-.93a5.86,5.86,0,0,1-.79,1.23l.57-.78a35.9,35.9,0,0,1-2.26,2.8,4.21,4.21,0,0,0-1.06,2.75,4.16,4.16,0,0,0,1.06,2.75,3.52,3.52,0,0,0,2.57,1.14,3.65,3.65,0,0,0,2.56-1.14" transform="translate(-32.42 -79.14)"/><path class="cls-2" d="M937.19,640.5c0,.88,0,1.16-.34,1.52l-13.11,17.17a1.27,1.27,0,0,1-1.09.48l-42-3.37c-.89-.07-1.22-.6-1.22-1.46" transform="translate(-32.42 -79.14)"/><line class="cls-2" x1="846.96" y1="575.79" x2="846.96" y2="566.83"/><line class="cls-6" x1="846.96" y1="575.89" x2="846.96" y2="575.79"/><line class="cls-2" x1="890.78" y1="580.63" x2="890.78" y2="571.13"/><line class="cls-2" x1="904.73" y1="561.95" x2="904.84" y2="554.86"/><path class="cls-5" d="M889.69,647.63l13.7-8.15a1.27,1.27,0,0,1,.6-.15l29.13.44" transform="translate(-32.42 -79.14)"/><path class="cls-6" d="M889.69,647.63l13.7-8.15a1.27,1.27,0,0,1,.6-.15l29.13.44" transform="translate(-32.42 -79.14)"/><path class="cls-5" d="M932.79,639.62l-9,10.07a1.28,1.28,0,0,1-1.09.47l-42-3a1.42,1.42,0,0,1-.5-2.65l23.12-12.87a1.27,1.27,0,0,1,.6-.15l32.11,1.17a1.42,1.42,0,0,1,1,2.33Z" transform="translate(-32.42 -79.14)"/><path class="cls-2" d="M932.79,639.62l-9,10.07a1.28,1.28,0,0,1-1.09.47l-42-3a1.42,1.42,0,0,1-.5-2.65l23.12-12.87a1.27,1.27,0,0,1,.6-.15l32.11,1.17a1.42,1.42,0,0,1,1,2.33Z" transform="translate(-32.42 -79.14)"/><path class="cls-7" d="M911.49,641.83l8.1,2.19c-1-.68-3.19-2.15-4.77-3.19l-.11-.07.12-.07,5.75-2.17-6.37.09H914c-.26,0-.48-.26-2.37-3.09l-1.53,3.36-.32,0-.15,0c-.43-.15-5.13-1.86-7.1-2.59l3,3.88v.08l-.17,0c-2.23.43-5.29,1-6.89,1.36l8.76.05.16,0,.29.15-.09.05.06,2.68c.74-.57,2.2-1.82,3.18-2.67l0,0,.3-.07Zm3.93-1c5.42,3.58,5.4,3.58,5.14,3.67l-.19.06-.17-.07-9-2.41c-3.48,3.06-3.66,3-3.94,3l-.22,0v-.12l-.06-3-9.7,0-.2,0-.14-.1c-.07-.06-.1-.09.16-.16s.59-.13,1.2-.25l2.74-.54,3.8-.76-3.23-4.18.19-.06a.81.81,0,0,1,.27,0l.11,0,7.42,2.71,1.69-3.67h.46l.08.1c.95,1.43,2,3,2.33,3.36l7.27-.1.19.17-.15.06Z" transform="translate(-32.42 -79.14)"/><path class="cls-8" d="M911.62,635.52c1.89,2.83,2.11,3.05,2.32,3.08l.25,0,6.39-.1-5.75,2.17-.12.07.11.07c1.58,1,3.78,2.51,4.77,3.19l-8.11-2.18-.39-.09-.3.07,0,0c-1,.86-2.44,2.11-3.18,2.68l-.06-2.68.09-.05-.29-.15-.16,0-8.76-.05c1.6-.32,4.66-.93,6.89-1.36l.17,0v-.08l-3-3.88c2,.73,6.67,2.44,7.1,2.59l.15,0,.32,0Z" transform="translate(-32.42 -79.14)"/><path class="cls-2" d="M975.46,466.1s-9,38,17.88,42.23,92.38,16.43,96.85,16.43,1.49,61-4.47,106c0,0-8.2,9.81-29.06,4.93s-26.82-8.75-44-3.52-49.92-9.15-18.63-15.49,46.94-12.67,55.13-2.81,11.15,23.53-16,23.53-35.37-8.14-49.53.36-23.1-.66-46.4-.66" transform="translate(-32.42 -79.14)"/><path class="cls-2" d="M901,652.63c-1.49,2.12-8.94.71-10.43.71s-2.23.7-2,1.59a4.14,4.14,0,0,0,.55,1.22,8.23,8.23,0,0,0,1.2,1.5c8.57,8.61,41.3,11.06,18.09,21.73-24.5,11.26-82.61-9.22-107.2.32s-23.84,37-6,33.47c0,0-.74-2.82.75-2.82a8.09,8.09,0,0,0,3-.7s-.75-2.11,1.49-2.11,2.23,5.63,3,7.74c.33,1-.09,1.47-.72,1.51s-1.85-.66-2.26-2.21l-.75-2.82-.74-2.11" transform="translate(-32.42 -79.14)"/><g class="cls-9"><g class="cls-10"><path class="cls-11" d="M978.8,508.76q-.06,3.19-.06,6.4" transform="translate(-32.42 -79.14)"/></g></g><g class="cls-9"><g class="cls-12"><path class="cls-11" d="M894.16,500.89c-2.38-.11-4.78-.18-7.22-.18-43.4,0-113.94,13.62-189.45,16.84s-45.81-19-119.57-25.26c-79.89-6.73-80,11.71-189.66,25.26-81.48,10.06,14-55.79-209.77-18.52-37.23,6.2-102.09,4.92-145.1,4" transform="translate(-32.42 -79.14)"/></g></g><g class="cls-9"><g class="cls-13"><path class="cls-11" d="M772.74,447q-6,.66-12.35,1.49c-76.62,10.1-165.58-11.78-244.25-26.93s-95.6,44.15-153.52,35.05-243.24-56-329.12-30.07" transform="translate(-32.42 -79.14)"/></g></g><g class="cls-9"><g class="cls-14"><path class="cls-11" d="M778.11,401C693,446.26,622.55,362.6,544.3,353c-148.62-18.28-153.11,12.29-257,25.76-98.75,12.81-213.6-17-253.83-25.76" transform="translate(-32.42 -79.14)"/></g></g><g class="cls-9"><g class="cls-15"><path class="cls-11" d="M786.16,336.51c-35-1.16-66.55-5.1-99.35-5.84C611.44,329,574.37,227,520.78,265.19,463,306.32,402.28,269.14,277,337.41c-32,17.43-166.45-26-243.54-14.52" transform="translate(-32.42 -79.14)"/></g></g><g class="cls-9"><g class="cls-16"><path class="cls-11" d="M1040.19,296.32c23.59,18.68,40.76,14.63-.93,74.73-4.92,7.08-9.2,13.8-12.91,20.17" transform="translate(-32.42 -79.14)"/></g></g><g class="cls-9"><g class="cls-17"><path class="cls-11" d="M979.57,471.11c-1.29,13.55-2.49,27.55-2.77,41.78" transform="translate(-32.42 -79.14)"/></g></g><path class="cls-2" d="M802.64,716.79" transform="translate(-32.42 -79.14)"/><line class="cls-2" x1="768.71" y1="631.71" x2="772.51" y2="630.87"/><line class="cls-2" x1="769.47" y1="635.18" x2="773.52" y2="634.47"/><path class="cls-2" d="M795.16,713.17s.26,5.52,6,2.86" transform="translate(-32.42 -79.14)"/><path class="cls-18" d="M33.09,206.56l2,5c10.35,25.81,35.1,95.84,33.52,172.37-2,96.6-39.89,161.7-19,243.63C62.11,676.1,66.49,721.9,68,751.15l0,3.39S62.4,896.6,77.72,980.86s4.87,147.06-19.31,209.87,64.71,183.83,55.8,199.15-31.89,15.32-18.1,38.3,10.72,162.38,1.53,225.19,42.89,277.28,24.51,442.72S63.94,2227.84,67,2287.58s36.77,87.32,39.83,118,4.6,102.13,4.6,102.13M69.12,100.34c-9.92,23.33-25.64,81.21,21.5,149.52,61.52,89.15-2.31,51.27,35.95,219.63s-18,150,20,248.89a326.59,326.59,0,0,1,11.73,36.1s41.4,76.25,12.6,133.44-37,110.3-28.81,151.15,43.27,126.64,39,187.92-29.72,116.42-25.17,200.17,11.1,145,15,169.53-23.62,151.15-15,177.7,55.62,147.06,53.58,218.55-18.38,157.28-20.43,190,18.39,134.81,6.13,177.7-2,147.07-2,147.07m68.42,0c0-27.58,1-211.41,5.11-245.11s-14.3-219.57-9.19-239,0-70.47,0-98S240.11,1773.37,234,1736.6s0-150.12,0-189.95-11.24-262.47-12.21-305.37-21.49-180.76-12.24-228.76,5-87.83,0-128.68-7.18-129.3-7.18-129.3c.66-18.41,4.91-44,19.42-71.91C250.39,627.54,162.51,595,170.5,526s-7.25-92.1-14.61-149.59-6.62-106.07,0-144.07-39.31-52.77-41.31-138c0,0-.37-12.28-.37-15.16m60.29.67c0,8.41-56.23,62.89,26.81,100.47,0,0,41.09,10-12.83,84.4s29.66,93.25,27.81,285c0,0-1.59,59.63,48.43,77.84s4.31,1.12-7,95.4c-1.38,11.49-2.62,22-3.74,31.48,0,0,9.8,66.1,13.29,96.74s-15.75,69.44,0,140.93-15.75,198.13,0,271.66,28.71,359.49,30.39,402.39,63,206.29,32.33,300.25-21.92,167.49-19.13,206.3,23.21,286,17.09,310.47l-6.13,24.51m61.28,0c-12.26-40.85,9.19-151.15,9.19-230.81s-26.56-200.17-30.64-213.45-7.15-18.38-8.17-50,23.49-15.32,29.62-59.23-33.71-207.32-38.81-231.83,10.21-38.81,16.34-81.71-32.68-213.44-37.1-254.29-5.8-158.3-1.71-194,1-105.19-11-147.06-4.36-144,0-180.77-3.34-47-13.2-66.38-15.46-41.88-15.46-41.88c-3.08-14.76-4-39.44,7.48-75.71,20.63-65.27,31.28-53.48,8-102.31s-77.22-64-55.25-175.08-27.34-157-5.16-200.35-28.79-77.06-16.81-108.4m51.93-14.49c-20,10.1-28,21.25,0,78s34.14,111.82,32.05,173.5-39.74,93.66-15.92,161,33.13,27.61,35.79,126.85,24.19,130.74,14.09,144.2c0,0-17.91,0,2.68,43.9s18.55,80.68,15.48,115.41,2,64.34,4.09,114.38,27.57,174.46,15.32,267-10.22,120.08-4.09,135.4,64.34,144,41.87,198.13-39.83,65.36-21.44,86.81,42.89,31.66,30.63,48,23.49,149.1,13.28,192-3.06,227.74-3.06,227.74,28.59,177.71,18.38,232.85,7.15,71.49,7.15,71.49,8.17,3.07-5.11,11.24M340.26,79.83s-88.37,28.59-34.2,75.74,68.15,80.83,52.17,116.18-55.92,66.42-30,144.32S397.7,537.75,372,569.74s18.22,94,16.22,168.19q-.3,11.45-.49,21.55s-12.79,18.14-6.66,39.59,25.12,49,21.24,102.13-14.09,94-10,140.94,35.74,153.19,30.63,188.93S387.15,1270.73,405,1304s38.25,36.34,27.56,57.79,17.87,113.36,16.87,146,2.05,158.3,7.16,191,42.89,228.76,36.76,272.68-10.21,270.64-7.15,299.23S522,2407.58,503.6,2457.62s-2.05,50.05-2.05,50.05M382.2,97.22s-16-6.21-8,34.49S421.87,322.26,405,377.81s-.86,79.13,19.11,156.57-2,135.48,0,188.11c.51,13.56,1.32,24.75,2.24,33.88,0,0,31.74,147.89,23.08,198.45s-12.78,108.76,0,168.51,20.43,263.49,20.43,283.4,10.73,277.28,19.92,307.92,3.5,122.55,19.36,145.53,22,52.08,20.47,70.47-16.85,186.89-13.79,216,36.77,274.21,23,301.78-6.13,59.24-6.13,59.24m29.11,0c-3.07-23.49,9.19-111.32,10.72-140.43s3.07-52.08-6.5-111.83-14.94-170-11.88-186.89,0-79.66,9.19-121-7.66-142.47-13.79-167-10.72-33.7-7.42-76.6-4.83-38.3-26.68-88.85-7.26-413.62-15.3-484.08-2.68-136.34,8.77-197.62,5.4-99.57.25-125.62-28.55-42.89-30.3-51.31c-4.66-22.38-15.49-56.17,3.19-121,36.76-127.69-25.13-119.62-12.57-177.66S490.05,382,478.06,353s-59.87-8.75-61.91-103.11-24-98.84,0-160.53m59.92,5s-32,52.85-10,81.47,30.49,56,25.23,83.56,9.64,19.58,17.61,80.81,26.62,102.23,11.86,159.17c-13.84,53.38-22.67,206.16,21.16,255.57,0,0,13.19.77,9.64,59s-2.57,114.89,0,131.74,32.42,72,22.09,114.9-32.84,223.66-31.54,266.55-.78,79.66,9.45,116.43,38.32,208.34,34.23,252.76-1.23,44.43.41,78.13,11.21,269.62,8.72,314-9.76,33.71,0,82.73,22,243.57,6.7,278.81-6.7,57.7-6.7,57.7M1155.09,742.05c-2.16-.59-8-4.52-8-4.52-8-5.61-39.95-30.45-87.88-32.06s-51.44-42.27-115.83,0c-66.21,43.46-104.55,7.63-147,0-37.29-6.7-37.32,36.55-109.59,32.06s-172.13-13-218.73-16-50.6,9.3-82.55-9.78-29.29-2.39-58.59,6.66-42.6,10.17-69.23,4.56-105.18,9-153.11,9c-29.89,0-55.15-2.62-71.22-4m1121.71-68.08c-2.76,1.73-8,7.59-8,7.59s-23.6,22.78-49.75,13.08-18.26-22.62-75.41-18.69S943,706.1,853,689.27s-84-1.68-117.66,0-74.87-11.23-128.13,0-124.49,19.63-202.38-14-85.21-3-115.16,5.22-58.59,31.26-169.1,23.4c-46.7-3.32-72.72-3.55-87.19-2.7m1121.71-72c-2.71-.61-8-1.61-8-1.61-25.65-4.71-55.92-16.28-87.88,0s-91.54,7.05-149.79,11.22-162.07,16.18-247.64,7.35S558,664,486.05,660.65,300.32,640,272.36,646.11s-131.81,41.48-211.7,33.06c-10.18-1.08-19.23-2.07-27.27-3m1121.7-102.75a69.81,69.81,0,0,0-8,4.7s-57.64,43.74-105.49,21.93c-28.11-12.81,6.83-44.34-154.68-10.26-29.58,6.25-135.47,48.82-210.26,21.94s-117.81-5-125.26-3.3-37.63,6.73-85.34,12.61c-95.17,11.72-166-41.42-238.56-1.93-29,15.78-114.81,11.27-194.22-2.27M1155.09,513c-4.63-.88-24.13-7.2-24.13-7.2s-50.81-19.39-56.79,9.17,19.73,52.87-32.55,40.37-136.53-33.81-156.08-15.87-86.48,28.62-125.15,26.94-169.57-24.91-209,.17S500,539.43,476.07,551.22s-17.11,18.52-71,20.2S312.18,537.75,254.26,558s-77.77,10.27-155.65-8.25c-26.58-6.31-48.28-6.19-65.32-3.27m1121.8-64.24s-117.24-21.88-154.48,8.42c-13.76,11.2-27,15.5-40.3,16.47m194.78-77.28c-2.67.08-24.13-3.23-24.13-3.23s-53.6-9.58-109.23-10.44M635.34,2507.67c-11.23-76.94,17.86-151.15,17.86-151.15,14.79-40.85-6.63-22.47-10.38-57.19s5.8-53.11,9.88-128.68-18.38-96-19.61-128.68,5.31-181.79,9.73-245.11-22.8-116.43-33.94-165.45,17.27-140.93,17.37-212.42-24.61-134.81-32.33-196.09,13.85-136.85,15-171.57,3-108.26-13.94-159.32-.7-137.59-.7-137.59l-.32-3.12c-7.32-69.7-33.31-182.18-30.21-218.6,6.29-74.08,44.69-188.15,1-210.66C512.61,295.21,500,210.41,514.56,97.22m24,.07s19.39,154.26,61.91,203.08,10,207.08,26,247.48-2,126.42,0,179.37a146.23,146.23,0,0,0,2.71,24.27s.62,1.64,1.22,2.93c0,0,8.16,19.63,2.75,58.69S630,910.39,634.94,941s21.49,141.7,7.88,196.08,10.14,216,7.07,242.81,24.26,260.68,21.2,314.81,20.42,489.19,21.44,577,32.68,94,16.34,125.62-28.59,44.94-29.61,61.28,0,49,0,49m-85.34-2406c2.58,95.47.64,117.16,43.91,144.84,57.92,37,20.56,60,24.55,137.41s4.47,112.36,24.43,137.88-29,63.1-3,164.11c7.63,29.63-22.17,49.15-25.62,65.59,0,0-.39,1.49-.65,2.93v4.31a179.15,179.15,0,0,0,12.51,48.51c10.73,26,4.09,60.26,4.09,85.79s3,227.74,2,286-13.7,39.83-8.89,75.57,6.23,62.3,9.1,77.62,36.73,346.21,37.16,411.57,4.51,377.87,8.6,418.73-2,26.55,0,67.4,6.13,28.6,16.34,69.45,2,91.91,0,128.68,5,79.66,5,79.66m20.5,0c-17.36-62.3-5.11-105.19-5.11-105.19s9.2-14.3,10.22-49S748.7,2170.65,757.89,2141s0-17.36-9.19-32.68-4.08-25.53,8.17-59.24-11.23-213.44-13.35-232.85-8.09-37.78-7.07-60.25-9.19-226.73,1-258.39-16.34-13.27-16.34-48,2-28.59-7.58-72.51-8.51-124.34-10.74-146.55,2.23-138.64,6.06-167-.76-176.17-6.06-195.32,4.53-30.64,10.74-52.08S711,754.69,711,754.69l-.22-3.2c-3.24-44.91-.54-113.52,31.25-136.3,39.94-28.62,50.67-44.58,18.38-93.4s-63-113.67-50.67-186.07C721,269.71,619,181.3,626.66,97.29m92.61,0c-16.26,31.06-36.64,85.14-5.67,120.59,43.12,49.35,20.46,177,60.09,216.34m1.09-336.93c-6,27.85-9.16,80.67,17.63,95.33,36.9,20.21,55.33,28.3,60.59,90.91a128.92,128.92,0,0,1,.41,16.36M835,97.29c6.79,15.9,23.22,38.92,62.83,52.63,43.81,15.16,2.23,79-16.22,144.74m98-195.34c-1.79,33.7-15.4,91.47-51.62,140.44-15.08,20.38-19.87,35.81-18.19,49M1059.23,89.33c.64,2.24,1.89,5.68,3.41,10m0,0c8,22.7,23.44,69.79-3.41,96.67-32,32,36.32,109.43,38.13,133s-9.09,130.89-23.31,168.35,75,70.71,43.1,136.37c-23.43,48.14-8.77,95.66.73,117.59l1.61,2.48s16.17,25.45-1.19,77.54S1102,941.62,1103,995.74s-2,76.6,8.17,122.56,9.19,66.38,4.08,90.89-42,193.75-17.92,273.56,64.64,73.68,29,168.65-36.69,85.79-34.62,171.58-20.35,119.49-21.19,205.28,79.16,147.06,55.81,202.21-43.3,104.17-37.93,144,3.93,129.7,3.93,129.7M1019.2,99.32c-13.74,36.42-27,91-11.89,143.81a128.06,128.06,0,0,0,10.81,26.95m137,88.33c-5.2.39-24.5,6.9-24.5,6.9-41.1,13.85-71,16.87-102.25,15.77M1155.09,303c-4,2.42-24.13,9.35-24.13,9.35-17.28,5.63-49.9-4.57-91.44-7.57M33.44,113.08c74.18-8.08,230.23-21.24,340.77-4C535.43,134.25,506,79.83,701.79,112.36c96,15.94,125.77,28.07,259.58,11.24,82.42-10.37,138.39-11.75,169.22-11.27,0,0,13.91.19,24.5,1.55m0,158.56a115.34,115.34,0,0,1-24.5-7.44c-41.22-19.81-16.6-26.57-59.38-27.63-47.93-1.19-59.75,16-120.75,22.76s-139-10.1-160.9,18.52-164.93-67.51-223.62-69.19-184.35,55.18-206.32,11.41S274,277.37,184.15,271c-56.7-4-110.24,15.23-150.65,16.36m1121.59-82.58c-5.27,5.23-24.5,21.28-24.5,21.28a16.94,16.94,0,0,1-6.48,3.19c-36.18,8.31-80.49-82.42-110.15-61.17C974,196.7,979.89,237.85,899.73,222.7s-141.31-77.46-229.19-50.53S618,151.38,582.18,144.64,534,158.72,346.25,155.36s-131.81,49.49-211.7,69.36c-47.91,11.91-75.7,7.6-101.05,1.87" transform="translate(-32.42 -79.14)"/><g class="cls-9"><g class="cls-19"><path class="cls-11" d="M951.44,521.47c10.5,26.75,16.16,51.22,13.64,73.52C959.83,641.56,978,719.64,937.83,751.3a67.43,67.43,0,0,1-7.66,4.67s-11.74-1.7-13.68,1.85,0,8.14,0,8.14,13.82,22.22,15.16,65.32,36.84,67.57,20.79,110.34-35.08,67.4-15.29,130.72,19.4,212.29,15.29,255.32-37.58,57.19-31.86,120.51,41-12.26,17.25,102.13-57,108.25-39.38,187.91,34.56,155.24,39.38,202.22-42.17,100.08-21.74,187.91,51.06,126.64,51.06,157.28-26.68,14.29-36.83,85.78,0,132.77,0,132.77" transform="translate(-32.42 -79.14)"/></g></g><g class="cls-9"><g class="cls-20"><path class="cls-11" d="M976.74,519.3a224.51,224.51,0,0,0,3,38.08c8.91,51.57,46.44,139,61.85,193.92l.78,2.48s10.54,9.11-4.78,48.94-7.15,58.22,1,96,8.17,33.71-1,82.73-31.35,31.66-22.83,130.72,66.19,159.32,32.76,217.53-67.12,23.49-47.72,84.77,3.06,224.68,3.06,224.68-13.27,51.06,4.09,68.42,0,207.32,0,207.32-3.07,47,4.08,70.47-42.31,86.79-29.83,136.84,55.37,113.37,42.09,160.35-35.75,17.36-20.43,49,1,125.62,3.07,146,0,26.55,0,26.55" transform="translate(-32.42 -79.14)"/></g></g><g class="cls-9"><g class="cls-21"><path class="cls-11" d="M844.62,464.6C862,500.49,872,519.43,866,557.38c-8.51,53.36-32.24,157,4.49,194.11,0,0,6.33,3.88,9,4.73,0,0,36.64,6.67-19.54,38.33s-53.1,98.05-35.74,147.07,37.74,53.08,25.15,104.17,11.62,238,11.62,238,65.66,9.2,28.75,82.73-93.8,69.44-83.75,130.72,18.23,59.24,18.23,128.68,9.46,263.49,25.15,312.51-17.66,63.31-17.91,108.25,6.3,77.63,17.91,114.39,19.79,120.47,0,169.53-23.41,75.58-9,100.09,10.36,71.49,10.36,71.49" transform="translate(-32.42 -79.14)"/></g></g><g class="cls-9"><g class="cls-22"><path class="cls-11" d="M803.39,458.72c28,32.08,28.69,77.7,31,108.69,2.75,37.68-92.58,115.12-82.86,147.11,3.14,10.34,3.18,23.67,1.79,37l-.4,2.93s-11,13.67-5.87,26.61,6.81,25.53,4.77,35.06c0,0-6.92,33.95-4.2,49.27a246,246,0,0,1,3.75,37.79c.34,10.89,6.13,19.4,4.77,31.32s-13.23,29.62-12.57,36.42,0,63,0,76.6-14,201,0,224,20.14,20.68,13.25,38.3-10.73,21.44-5.37,36.76S741,1388.68,743.52,1394s22.44,94.22,20.14,125.62,1.53,34.47,2.3,55.91-21.45,134-6.9,157.79,16.85,29.11,15.32,43.66,2.32,185.36,5,208.34-8.64,21.45-.3,37.53,16,12.26,11.4,23-9.19,90.39-6.9,104.94,10.73,219.83,3.83,256.59-6.89,36.77-2.29,46.73,4.59,50,4.59,50" transform="translate(-32.42 -79.14)"/></g></g><path class="cls-18" d="M1157.78,1172.52c-2.17-.6-8-4.52-8-4.52-8-5.62-39.94-30.46-87.87-32.07s-51.44-42.27-115.84,0c-66.21,43.47-104.55,7.63-147,0-37.29-6.7-37.32,36.55-109.6,32.07s-172.13-13-218.73-16-50.59,9.3-82.55-9.78-29.29-2.39-58.58,6.66S287,1159,260.4,1153.4s-105.19,9-153.12,9c-29.89,0-55.15-2.61-71.21-4" transform="translate(-32.42 -79.14)"/><path class="cls-18" d="M1157.78,1090.25c-2.76,1.74-8,7.6-8,7.6s-23.59,22.78-49.74,13.07-18.26-22.61-75.41-18.68-78.94,44.33-169,27.49-84.06-1.68-117.66,0-74.88-11.22-128.13,0-124.49,19.64-202.38-14-85.21-3-115.17,5.22-58.58,31.26-169.09,23.4c-46.71-3.32-72.72-3.54-87.19-2.7" transform="translate(-32.42 -79.14)"/><path class="cls-18" d="M1157.78,1059.61c-2.72-.61-8-1.61-8-1.61-25.65-4.71-55.92-16.27-87.87,0s-91.55,7-149.8,11.23-162.07,16.17-247.63,7.35-103.86,17.9-175.75,14.53S303,1070.46,275,1076.58s-131.81,41.47-211.7,33.05c-10.18-1.07-19.22-2.06-27.27-3" transform="translate(-32.42 -79.14)"/><path class="cls-18" d="M1157.78,1003.91a69.74,69.74,0,0,0-8,4.71s-57.63,43.74-105.49,21.92c-28.11-12.81,6.84-44.33-154.67-10.25-29.59,6.24-135.47,48.82-210.27,21.94s-117.81-5-125.26-3.31-37.63,6.74-85.33,12.61c-95.18,11.72-166-41.42-238.56-1.92-29,15.78-114.82,11.26-194.22-2.28" transform="translate(-32.42 -79.14)"/><path class="cls-18" d="M1157.78,943.43c-4.63-.88-24.13-7.2-24.13-7.2s-50.82-19.4-56.79,9.16,19.73,52.88-32.56,40.38S907.77,952,888.22,969.9s-86.47,28.62-125.15,26.93-169.56-24.9-209,.18-51.38-27.11-75.35-15.33-17.11,18.52-71,20.21-92.86-33.68-150.78-13.47-77.76,10.27-155.65-8.25C74.71,973.85,53,974,36,976.89" transform="translate(-32.42 -79.14)"/><path class="cls-18" d="M36.12,768.48c74.18-8.07,230.23-21.23,340.78-4,161.22,25.16,131.81-29.27,327.57,3.26,96,16,125.78,28.08,259.59,11.24,82.42-10.37,138.38-11.74,169.21-11.27,0,0,13.92.2,24.51,1.56" transform="translate(-32.42 -79.14)"/><path class="cls-18" d="M1157.78,927.84a115.17,115.17,0,0,1-24.51-7.43c-41.22-19.82-16.6-26.58-59.37-27.64-47.93-1.18-59.76,16-120.75,22.77s-139-10.11-160.9,18.51-164.93-67.5-223.63-69.19S384.27,920.05,362.3,876.28s-85.59,56.5-175.46,50.13c-56.7-4-110.24,15.22-150.66,16.36" transform="translate(-32.42 -79.14)"/><path class="cls-18" d="M1157.78,860.18c-5.27,5.24-24.51,21.29-24.51,21.29a16.78,16.78,0,0,1-6.48,3.18c-36.17,8.32-80.48-82.42-110.14-61.17-39.94,28.62-34.07,69.78-114.23,54.62S761.1,800.64,673.23,827.58s-52.51-20.8-88.36-27.53-48.2,14.08-235.93,10.71-131.81,49.5-211.7,69.36C89.33,892,61.53,887.72,36.18,882" transform="translate(-32.42 -79.14)"/><path class="cls-18" d="M1157.89,1605.3c-2.17-.59-8-4.52-8-4.52-8-5.61-40-30.45-87.88-32.06s-51.44-42.27-115.83,0c-66.21,43.46-104.55,7.63-147,0-37.29-6.7-37.32,36.55-109.59,32.06s-172.13-13-218.73-16-50.6,9.3-82.55-9.78-29.29-2.39-58.58,6.66-42.61,10.17-69.24,4.56-105.18,9-153.11,9c-29.89,0-55.15-2.62-71.21-4.05" transform="translate(-32.42 -79.14)"/><path class="cls-18" d="M1157.89,1523c-2.77,1.74-8,7.59-8,7.59s-23.59,22.78-49.74,13.08-18.27-22.61-75.42-18.69-78.93,44.34-169,27.5-84-1.68-117.65,0-74.88-11.22-128.14,0-124.49,19.63-202.37-14-85.22-3-115.17,5.22-58.59,31.26-169.09,23.4c-46.71-3.32-72.72-3.55-87.19-2.7" transform="translate(-32.42 -79.14)"/><path class="cls-18" d="M1157.89,1492.4c-2.72-.61-8-1.61-8-1.61-25.65-4.71-55.92-16.27-87.88,0s-91.54,7-149.79,11.22-162.07,16.18-247.64,7.35-103.85,17.91-175.75,14.54-185.73-20.66-213.69-14.54-131.81,41.48-211.7,33.06c-10.18-1.07-19.23-2.07-27.27-3" transform="translate(-32.42 -79.14)"/><path class="cls-18" d="M1157.89,1436.7a69.74,69.74,0,0,0-8,4.71s-57.64,43.73-105.49,21.92c-28.11-12.81,6.83-44.34-154.68-10.25-29.58,6.24-135.47,48.81-210.26,21.94s-117.81-5-125.26-3.31-37.63,6.73-85.34,12.61c-95.17,11.72-166-41.42-238.55-1.93-29,15.78-114.82,11.27-194.23-2.27" transform="translate(-32.42 -79.14)"/><path class="cls-18" d="M1157.89,1376.21c-4.64-.88-24.14-7.2-24.14-7.2s-50.81-19.39-56.79,9.17,19.73,52.87-32.55,40.37-136.53-33.81-156.08-15.86-86.47,28.62-125.15,26.93-169.57-24.9-209,.18-51.39-27.11-75.35-15.33-17.11,18.52-71,20.2S315,1401,257.05,1421.2s-77.76,10.27-155.65-8.24c-26.58-6.32-48.27-6.19-65.32-3.28" transform="translate(-32.42 -79.14)"/><path class="cls-18" d="M36.23,1201.27c74.18-8.08,230.23-21.24,340.77-4,161.22,25.16,131.81-29.26,327.58,3.27,96,15.94,125.77,28.08,259.58,11.24,82.43-10.37,138.39-11.74,169.22-11.27,0,0,13.91.19,24.51,1.55" transform="translate(-32.42 -79.14)"/><path class="cls-18" d="M1157.89,1293c-5.28,5.23-24.51,21.29-24.51,21.29a16.85,16.85,0,0,1-6.48,3.18c-36.18,8.31-80.49-82.42-110.15-61.17-39.94,28.62-34.07,69.77-114.23,54.62s-141.31-77.46-229.18-50.52-52.51-20.8-88.37-27.54-48.2,14.09-235.93,10.72-131.81,49.5-211.69,69.36c-47.92,11.92-75.71,7.6-101.06,1.87" transform="translate(-32.42 -79.14)"/><path class="cls-18" d="M1157.89,1759.55c-2.17-.6-8-4.52-8-4.52-8-5.61-39.94-30.45-87.87-32.06s-51.44-42.28-115.84,0c-66.21,43.46-104.55,7.63-147,0-37.3-6.71-37.32,36.55-109.6,32.06s-172.13-13-218.73-16-50.59,9.29-82.55-9.79-29.29-2.38-58.58,6.67-42.61,10.17-69.23,4.56-105.19,9-153.12,9c-29.89,0-55.15-2.62-71.21-4.05" transform="translate(-32.42 -79.14)"/><path class="cls-18" d="M1157.89,1677.29c-2.76,1.73-8,7.59-8,7.59s-23.59,22.78-49.74,13.07-18.26-22.61-75.41-18.68-78.94,44.33-169,27.5-84.06-1.69-117.66,0-74.88-11.23-128.13,0-124.49,19.63-202.38-14-85.21-3-115.17,5.22-58.58,31.26-169.09,23.41c-46.71-3.32-72.72-3.55-87.19-2.7" transform="translate(-32.42 -79.14)"/><path class="cls-18" d="M1157.89,1662.38a115.17,115.17,0,0,1-24.51-7.43c-41.22-19.82-16.6-26.58-59.37-27.64-47.93-1.19-59.76,16-120.75,22.76s-139-10.1-160.9,18.52-164.93-67.51-223.63-69.19-184.35,55.19-206.32,11.41-85.59,56.5-175.46,50.13c-56.7-4-110.24,15.23-150.66,16.36" transform="translate(-32.42 -79.14)"/><path class="cls-18" d="M1158,1920c-2.77,1.73-8,7.59-8,7.59s-23.59,22.78-49.74,13.08-18.27-22.61-75.42-18.69-78.93,44.34-168.95,27.5-84-1.68-117.65,0-74.88-11.22-128.14,0-124.49,19.63-202.37-14-85.22-3-115.17,5.22-58.59,31.26-169.09,23.4c-46.71-3.32-72.72-3.55-87.19-2.7" transform="translate(-32.42 -79.14)"/><path class="cls-18" d="M1158,1889.37c-2.72-.61-8-1.61-8-1.61-25.65-4.71-55.92-16.27-87.88,0s-91.54,7-149.79,11.22-162.07,16.18-247.64,7.35S560.85,1924.24,489,1920.87s-185.73-20.66-213.69-14.54-131.81,41.48-211.7,33.06c-10.18-1.07-19.23-2.07-27.27-3" transform="translate(-32.42 -79.14)"/><path class="cls-18" d="M1158,1833.67a69.74,69.74,0,0,0-8,4.71s-57.64,43.73-105.49,21.92c-28.11-12.81,6.83-44.34-154.68-10.25-29.58,6.24-135.47,48.81-210.26,21.94s-117.81-5-125.26-3.31-37.63,6.73-85.34,12.61c-95.17,11.72-166-41.42-238.56-1.93-29,15.78-114.81,11.27-194.22-2.27" transform="translate(-32.42 -79.14)"/><path class="cls-18" d="M1158,1773.18c-4.64-.88-24.14-7.2-24.14-7.2s-50.81-19.39-56.79,9.17,19.73,52.87-32.55,40.37S908,1781.71,888.44,1799.65s-86.47,28.62-125.15,26.94-169.57-24.9-209,.17-51.39-27.11-75.35-15.32-17.11,18.52-71,20.2-92.85-33.67-150.77-13.47-77.76,10.27-155.65-8.24c-26.58-6.32-48.27-6.19-65.32-3.28" transform="translate(-32.42 -79.14)"/><path class="cls-18" d="M1157.89,1345.79c-2.17-.6-32.7,5.36-32.7,5.36-8-5.61-18,6.16-66,4.55s-51.44-42.27-115.83,0c-66.21,43.46-104.55,7.63-147,0-37.29-6.7-37.32,36.55-109.59,32.06s-172.13-13-218.73-16-50.6,9.29-82.55-9.79-29.29-2.38-58.58,6.67-42.61,10.17-69.24,4.56-105.18,9-153.11,9c-29.89,0-55.15-2.62-71.22-4.05" transform="translate(-32.42 -79.14)"/><path class="cls-18" d="M1155.09,1310c-2.76,1.73-8,7.59-8,7.59s-23.59,22.78-49.74,13.07S1079.1,1308.07,1022,1312s-78.93,44.33-169,27.5-84-1.69-117.65,0-74.88-11.23-128.14,0-124.49,19.63-202.38-14-85.21-3-115.16,5.22-58.59,31.26-169.09,23.41c-46.71-3.32-72.72-3.55-87.2-2.7" transform="translate(-32.42 -79.14)"/><path class="cls-18" d="M1157.8,2079c-2.72-.61-8-1.61-8-1.61-25.64-4.71-55.92-16.27-87.87,0s-91.54,7.05-149.79,11.23-162.08,16.17-247.64,7.34-103.85,17.91-175.75,14.54S303,2089.89,275.07,2096s-131.82,41.48-211.7,33.06c-10.18-1.07-19.23-2.06-27.28-3" transform="translate(-32.42 -79.14)"/><path class="cls-18" d="M1157.8,2023.34a69.74,69.74,0,0,0-8,4.71s-57.63,43.73-105.48,21.92c-28.11-12.81,6.83-44.34-154.68-10.25-29.59,6.24-135.47,48.81-210.26,21.94s-117.81-5-125.26-3.31-37.63,6.74-85.34,12.61c-95.18,11.72-166-41.42-238.56-1.93-29,15.79-114.81,11.27-194.22-2.27" transform="translate(-32.42 -79.14)"/><path class="cls-18" d="M1157.8,1962.85c-4.63-.88-24.13-7.19-24.13-7.19s-50.81-19.4-56.79,9.16,19.73,52.88-32.55,40.37-136.53-33.81-156.08-15.86S801.77,2018,763.1,2016.26s-169.57-24.9-209,.18-51.39-27.11-75.36-15.33-17.11,18.52-71,20.2-92.85-33.67-150.77-13.46-77.77,10.27-155.66-8.25c-26.57-6.32-48.27-6.19-65.32-3.28" transform="translate(-32.42 -79.14)"/><path class="cls-18" d="M1157.81,2181.88c-2.17-.59-8-4.52-8-4.52-8-5.61-39.94-30.45-87.88-32.06s-51.43-42.27-115.83,0c-66.21,43.46-104.55,7.63-147,0-37.29-6.7-37.32,36.55-109.59,32.06s-172.13-13-218.73-16-50.59,9.3-82.55-9.78-29.29-2.39-58.58,6.66-42.61,10.17-69.24,4.56-105.18,9-153.11,9c-29.89,0-55.15-2.62-71.21-4.05" transform="translate(-32.42 -79.14)"/><path class="cls-18" d="M1157.79,2253.48c-2.72-.61-8-1.61-8-1.61-25.65-4.71-55.92-16.28-87.88,0s-91.54,7.05-149.79,11.22-162.07,16.18-247.64,7.35S560.64,2288.35,488.74,2285,303,2264.32,275.05,2270.44s-131.81,41.47-211.7,33.06c-10.18-1.08-19.23-2.07-27.27-3" transform="translate(-32.42 -79.14)"/><path class="cls-18" d="M1145.58,2228.44c-4.63-.88-13.24-23.5-13.24-23.5s-16.49-28.56-22.47,0-13.27,17.85-65.56,5.35-136.53-33.81-156.08-15.87-86.47,28.62-125.15,26.94-169.56-24.91-209,.17-51.39-27.11-75.35-15.32-17.11,18.51-71,20.2-92.86-33.67-150.78-13.47-77.76,10.27-155.65-8.25c-26.58-6.32-48.27-6.19-65.32-3.28" transform="translate(-32.42 -79.14)"/><path class="cls-18" d="M1157.58,2490.27c-2.16-.6-8-4.52-8-4.52-8-5.62-39.94-30.45-87.87-32.06s-51.44-42.28-115.84,0c-66.2,43.46-104.55,7.62-147,0-37.29-6.71-37.32,36.55-109.59,32.06s-172.14-13-218.74-16S420,2479,388,2459.93s-29.3-2.39-58.59,6.66-42.6,10.18-69.23,4.57-105.18,9-153.12,9c-29.88,0-55.14-2.61-71.21-4" transform="translate(-32.42 -79.14)"/><path class="cls-18" d="M1157.58,2408c-2.76,1.74-8,7.6-8,7.6s-23.59,22.78-49.74,13.07-18.26-22.61-75.41-18.68-78.93,44.33-169,27.49-84.06-1.68-117.66,0-74.87-11.22-128.13,0-124.49,19.64-202.38-14-85.21-3-115.17,5.22-58.58,31.26-169.09,23.41c-46.7-3.33-72.72-3.55-87.19-2.71" transform="translate(-32.42 -79.14)"/><path class="cls-18" d="M1157.58,2377.36c-2.72-.61-8-1.61-8-1.61-25.64-4.71-55.92-16.27-87.87,0s-91.55,7.06-149.8,11.23-162.07,16.17-247.63,7.35-103.85,17.9-175.75,14.53-185.74-20.65-213.7-14.53S143,2435.8,63.15,2427.38c-10.19-1.07-19.23-2.06-27.28-3" transform="translate(-32.42 -79.14)"/><path class="cls-18" d="M1163.58,2358.28a115.53,115.53,0,0,1-24.51-7.44c-41.21-19.81-16.6-26.57-59.37-27.63-47.93-1.19-59.76,16-120.75,22.76s-139-10.1-160.9,18.52S633.12,2297,574.42,2295.3s-184.35,55.18-206.32,11.41-85.59,56.5-175.46,50.13c-56.7-4-110.24,15.23-150.66,16.36" transform="translate(-32.42 -79.14)"/></g></svg>