<svg id="fondos" xmlns="http://www.w3.org/2000/svg" xmlns:xlink="http://www.w3.org/1999/xlink" viewBox="0 0 1721.5 2295.28"><defs><style>.cls-1,.cls-6{fill:none;}.cls-2{clip-path:url(#clip-path);}.cls-3{clip-path:url(#clip-path-2);}.cls-4{opacity:0.2;}.cls-5{clip-path:url(#clip-path-3);}.cls-6{stroke:#0000f9;stroke-miterlimit:10;stroke-width:2px;}</style><clipPath id="clip-path" transform="translate(436.04 612.16)"><rect class="cls-1" x="-436.04" y="-612.15" width="1721.5" height="2295.28"/></clipPath><clipPath id="clip-path-2" transform="translate(436.04 612.16)"><rect class="cls-1" x="-436.04" y="-612.16" width="1721.5" height="2295.28"/></clipPath><clipPath id="clip-path-3" transform="translate(436.04 612.16)"><rect class="cls-1" x="-445.04" y="-619.15" width="1739.5" height="2303.28"/></clipPath></defs><g class="cls-2"><g class="cls-3"><g class="cls-4"><g class="cls-5"><path class="cls-6" d="M1277.74,1560s45.32-197.46-99.47-216.45-438.14-15.22-561.52-140.49c0,0-49.1-47.62,11.33-63.57s118.77-44.49,108.7-92.75c0,0-8-43.85-35-79.11S624.3,828.5,681.59,834.8s88.76,128.42,135.34,90.65,73-78.69,95.69-64.21,13.4,38.88-6.72,61.69c-43.85,49.73-151.92,80-153.81,146-1.89,66.32,55.4,129.68,146,104.5s206.69-130.93,239.22-180c0,0,39.25-66.72,108.27-85.61l25.18-149.38s-132.19,22.22-207.74,171.41-192.63,185.08-232.29,187-126.53-38,26.44-123.39,164.31-190.11,85-198.2-109.54,85.52-128.42,91.19S783.57,746.67,658.93,745.68s-64.21,120-3.78,188,100.09,149.19-13.22,185.08-91.59,72.93-91.59,72.93c30.53,110.07,347.17,146.76,505.81,194.61s50.36,204,50.36,204ZM-236.71,634.61s112.52-15.1,108.75-94.42-56-120.87-37.77-136,50.36,34,73,32.1,44.07-7.55,55.4-74.28c0,0,3.77-18.26,19.51-15.11s21.4,22.66,0,56S-137.41,569.78-82,578.59s173-136,229.77-124c151.3,31.89,173.75,193.88,278.88,176.89S608.57,508.08,633.75,508.71s8.81,29.59-6.3,53.51c-6.07,9.62-30.3,36.23-63.38,70.33-75.75,78.1-100.5,117.47-124,193s71.34,161.15,32.73,189.69-91.49-37.77-125.06-42.81-65.47,35.25-109.12,47-32.73-54.55,61.28-73.86,95.68-60.43,94-104.92S275.55,789.47,213.44,797c0,0-71.34-8.19,18.05-90.65s-13.85-150.45-62.32-124,5,98-51.62,88.76c0,0-100.54-19.52-158.85,89.81-20.14,37.77,6.71,61.69-14.69,83.93-58.53,60.83-185.92,30.22-185.92,30.22-130.3,30.21-170,116.94-170,116.94-103.87,290.69,175.16,244.81,175.16,244.81s150.9-32.6,216.81,56.24-15.94,111.63-15.94,111.63S-184.3,1441-173.5,1553.63c0,0,12.47,143.41,111.64,127.22,212.14-34.62,327.34-127.22,327.34-127.22s90.65-77.57,68-132.13S145.12,1303.22,179,1265c32.73-36.93,78.9,36.51,105.76,25.6,23.85-9.69,9.84-39.49,22.84-69,4.76-10.81,15.23-18.35,27-18.5,5.66-.07,12.5.85,18.52,6.08,23.09,20-77.22,200.61,26.86,205.64,0,0,18.47.42,34.42-5.87s70.5-19.31,103.24,16.37c0,0,55,52.12,65,128.35,0,0,7.55,107.08,130.93,94.49s158.64-53.51,158.64-53.51-179.41,39.66-253.06-83.09-149.2-154.86-204-117.09-60.44-45.33-26.44-126.53S383.2,1156.48,336,1154.59s-41.55,98.2-52.88,102-113.31-102-187-34,158.64,102,215.3,194.52S26.27,1609.72-30.39,1624.83s-81.21-162.41,24.55-196.41,68-192.63-164.3-277.61c-184.12-67.36-166.69-163.57-66.58-214.49,0,0,101.83-31,158.07-21S39.7,868.37-.59,818s66.47-140.23,120-128.42,47-49.52,89.82-40.12-25.18,88.8-25.18,88.8c-82.59,94.9,29.37,96,29.37,96a301.42,301.42,0,0,0,39.45-4.75c89.39-16.65,124.65,11.61,104.5,55.32s-133.46,18-231.66,118.71S234,1106.74,291.92,1072.75s151.08,15.11,222.85,19.79,107-72.67,1.26-184.72,41.09-232.53,41.09-232.53c170.57-138.34,141-276.65,30-177.37C441.58,628.23,341.65,401.07,205.68,374.63S-39.83,565.37-68.16,547.47s69.88-138.85,85-186.06-79.31-100.09-75.54-12.14-30.21,49.55-30.21,49.55-58.55-82.74-107.65-31.75,73.65,98.21,52.88,180.4S-275.9,595.59-281.56,597ZM1231,151.06s-167.29,134.81-220.17,34.09S1154.35,3.85,1231-133.17s21.57-238.17-38.87-301.12-206.48-55.39-347.49-45.32-239.21-83.1-239.21-83.1l-282-47.84S502.18-462,801.83-424.22,1116.58-122,1048.6-31.4s-136,168.7-60.44,299.64S1231,321.12,1231,321.12ZM-242.53-307.44c127.94-3.78,200.81-77.12,276.35-109.22s130.31,20.77,246.94,111.42S500.5-286.56,545-301.67s143.77-36.82,237.53,0S883.24-206.83,818.61-185s-117.51-72.19-196.4-84.78-45.33,71.35-64.63,104.08-51.2-22.66-157-36.93-150.25,64.63-186.34,94-97.36-6.72-132.62-30.22-111.63-85.61-188-80.58-92.33,95.69-15.11,109.12,30.22,31.05,30.22,31.05C-219.22-24.6-228.06,72.68-228.06,72.68c-24.34,269.42,372.68-47.85,394.5-59.6S319.2-56.58,272.2,94.5,424.37,334.75,424.37,334.75c30.92,11.6,61.11,15,87.58,4.47,0,0,30.34-11.22,33.91-68,2.62-41.67,4.16-258.16,62.45-230.8S591.66,174.3,665.42,148.72,762.67,99.2,777,111.25c11.59,9.78,32.42,36.28-78.22,104.09S564.89,293.86,560.13,304c0,0-38.07,47,20.23,46.4s184.54-27.21,255.48,39.7,66.31,188.48,101.72,254c30.63,56.67,138,166.27,305,86l28.22-113.76c-22.75,36.13-64.24,52.2-64.24,52.2C1039.39,739.39,975,495.81,888,398.23S617.68,328,617.68,328s-60.22,3.19,34.8-58.38,282.4-124,301.14-208.78c6.33-28.67-87-107.07-231.1,26.76-44.08,40.94-43.27,0-43.27,0s8.26-43.67-9.37-68.25C647.16-12.33,453.06-118.95,524.44,277.2c10.85,60.22-42.09,46.26-100.07-3.42,0,0-101.6-95.56-67.61-178.65s-94.43-167-183.19-112.8S-226.38,167.52-133.21-2c0,0,35.25-47.84,81.42-81.41s-37.77-30.63-60.44-49.73,7.56-53.09,50.37-48.06S149.51-47.13,226.45-85.54C504.7-224.45,575.2-16.7,605.42-170.1c23.21-117.81,107.37,8.48,190.19,27.78,133.8,31.18,346.15-151-114-196.91C523.51-355,500.29-259.28,387-315.94s-94.43-170-198.3-217.18S7.38-510.46-104-423.59s-206.78,86.88-206.78,86.88Z" transform="translate(436.04 612.16)"/></g></g></g></g></svg>