<svg id="fondos" xmlns="http://www.w3.org/2000/svg" xmlns:xlink="http://www.w3.org/1999/xlink" viewBox="0 0 1413.04 2132.14"><defs><style>.cls-1,.cls-10,.cls-24,.cls-6,.cls-8{fill:none;}.cls-2{clip-path:url(#clip-path);}.cls-3{clip-path:url(#clip-path-2);}.cls-4{opacity:0.21;}.cls-5{clip-path:url(#clip-path-3);}.cls-10,.cls-24,.cls-6{stroke:#0000f9;}.cls-10,.cls-24,.cls-6,.cls-8{stroke-miterlimit:10;}.cls-6,.cls-8{stroke-width:3.27px;}.cls-7{fill:#0000f9;}.cls-8{stroke:#da00f9;}.cls-9{fill:#f9eb37;}.cls-10{stroke-width:6.54px;}.cls-11{clip-path:url(#clip-path-4);}.cls-12{fill:url(#Degradado_sin_nombre_7);}.cls-13{clip-path:url(#clip-path-5);}.cls-14{fill:url(#Degradado_sin_nombre_2);}.cls-15{clip-path:url(#clip-path-6);}.cls-16{fill:url(#Degradado_sin_nombre_3);}.cls-17{clip-path:url(#clip-path-7);}.cls-18{fill:url(#Degradado_sin_nombre_4);}.cls-19{clip-path:url(#clip-path-8);}.cls-20{fill:url(#Degradado_sin_nombre_5);}.cls-21{clip-path:url(#clip-path-9);}.cls-22{fill:url(#Degradado_sin_nombre_6);}.cls-23{clip-path:url(#clip-path-10);}.cls-24{stroke-width:10px;}</style><clipPath id="clip-path" transform="translate(448.84 646.21)"><rect class="cls-1" x="-483.88" y="-646.21" width="1448.08" height="2132.14"/></clipPath><clipPath id="clip-path-2" transform="translate(448.84 646.21)"><rect class="cls-1" x="-483.88" y="-646.21" width="1448.08" height="2132.14"/></clipPath><clipPath id="clip-path-3" transform="translate(448.84 646.21)"><rect class="cls-1" x="-622.6" y="-669.35" width="1329.94" height="1976.94"/></clipPath><clipPath id="clip-path-4" transform="translate(448.84 646.21)"><path class="cls-1" d="M422-415.22l-11.73,60.35a129.51,129.51,0,0,0,104.6,120.22A129.45,129.45,0,0,0,666.63-337c12-61.51-17.49-120.47-72.19-143.29l-33.06-6.43-17.65-3.43c-51.23.22-100.07,29.5-121.76,74.95"/></clipPath><radialGradient id="Degradado_sin_nombre_7" cx="418.75" cy="1185.63" r="1" gradientTransform="matrix(-129.46, 0, 0, 132.22, 54760.6, -157113.86)" gradientUnits="userSpaceOnUse"><stop offset="0" stop-color="#c52270"/><stop offset="0.72" stop-color="#efc0d6"/><stop offset="1" stop-color="#fff"/></radialGradient><clipPath id="clip-path-5" transform="translate(448.84 646.21)"><path class="cls-1" d="M-403.65,1049l-.1.51a90.79,90.79,0,0,0,71.84,106.19,90.77,90.77,0,0,0,106.38-71.55l.09-.46c9.4-49.07-28.15-97.6-77.18-107.25l-.4-.07a87.45,87.45,0,0,0-16.61-1.61c-41.65,0-75.47,30.88-84,74.24"/></clipPath><radialGradient id="Degradado_sin_nombre_2" cx="420.26" cy="1182.78" r="1" gradientTransform="matrix(-90.78, 0, 0, 90.78, 37838.92, -106299.76)" gradientUnits="userSpaceOnUse"><stop offset="0" stop-color="#db9022"/><stop offset="1" stop-color="#fff"/></radialGradient><clipPath id="clip-path-6" transform="translate(448.84 646.21)"><path class="cls-1" d="M71.65,196,61.53,248.1A64.75,64.75,0,0,0,112,296.82l.51.1a64.73,64.73,0,0,0,24.64-127.09l-.39-.08A64.68,64.68,0,0,0,71.65,196"/></clipPath><radialGradient id="Degradado_sin_nombre_3" cx="422.3" cy="1179.11" r="1" gradientTransform="matrix(-64.73, 0, 0, 64.73, 27465.86, -76087.25)" gradientUnits="userSpaceOnUse"><stop offset="0" stop-color="#68a6dd"/><stop offset="0.75" stop-color="#d9e8f6"/><stop offset="1" stop-color="#fff"/></radialGradient><clipPath id="clip-path-7" transform="translate(448.84 646.21)"><path class="cls-1" d="M150.63,540.75l-11.72,60.33a85.81,85.81,0,0,0,68,69.3l.21,0a85.78,85.78,0,1,0-56.48-129.67"/></clipPath><radialGradient id="Degradado_sin_nombre_4" cx="420.56" cy="1182.24" r="1" gradientTransform="matrix(-85.78, 0, 0, 85.78, 36304.27, -100817.65)" gradientUnits="userSpaceOnUse"><stop offset="0" stop-color="#b29fc9"/><stop offset="1" stop-color="#fff"/></radialGradient><clipPath id="clip-path-8" transform="translate(448.84 646.21)"><path class="cls-1" d="M-163.85,762-172,803.87a42.87,42.87,0,0,0,32.42,28.27,42.9,42.9,0,0,0,50.28-33.92,42.89,42.89,0,0,0-33.92-50.29,43.57,43.57,0,0,0-8.22-.79A43,43,0,0,0-163.85,762"/></clipPath><radialGradient id="Degradado_sin_nombre_5" cx="425.92" cy="1172.61" r="1" gradientTransform="matrix(-42.89, 0, 0, 42.89, 18140.06, -49497.34)" gradientUnits="userSpaceOnUse"><stop offset="0" stop-color="#b3d3c2"/><stop offset="1" stop-color="#fff"/></radialGradient><clipPath id="clip-path-9" transform="translate(448.84 646.21)"><path class="cls-1" d="M246.74-73.61,237.67-27a52.54,52.54,0,0,0,40.49,37.17h0a52.51,52.51,0,0,0,61.56-41.53,52.51,52.51,0,0,0-41.48-61.57l-.1,0a52.88,52.88,0,0,0-10-1,52.58,52.58,0,0,0-41.39,20.26"/></clipPath><radialGradient id="Degradado_sin_nombre_6" cx="423.95" cy="1176.14" r="1" gradientTransform="matrix(-52.52, 0, 0, 52.52, 22558.26, -61805.6)" gradientUnits="userSpaceOnUse"><stop offset="0" stop-color="#f6e088"/><stop offset="1" stop-color="#fff"/></radialGradient><clipPath id="clip-path-10" transform="translate(448.84 646.21)"><rect class="cls-1" x="58.03" y="-673.2" width="1204.91" height="2251.18"/></clipPath></defs><g class="cls-2"><g class="cls-3"><g class="cls-4"><g class="cls-5"><path class="cls-6" d="M-105.89-82.6s-13.51-2.29-12.34-.43c17.51,28,156.27,260.7,104.77,525.47q-4.51,23.25-11,46.8C-66.6,640-153.49,729.46-229.88,781.3a498,498,0,0,1-99.78,52.42c-13,5-23.62,8.39-31,10.52-3.67,1.07-6.54,1.82-8.48,2.3-1,.25-1.71.42-2.2.54l-.74.17.29,1.33,1.3.4s19.93-65.07,30.81-121c2.71-14,4.87-27.41,6-39.12s1.27-21.72-.14-29c-1.28-6.57-5.45-18.59-10.49-35.83-15.13-51.66-38-149.67-12.85-279.35,22-113.19,80.69-250.53,213.43-402.21l-1-.9,1,.93,28.84-30.19-3.22-.62-27.63,29,0,0c-133,152-192,289.8-214.06,403.49-16.88,86.82-12.27,159.56-2.82,213.77a605.76,605.76,0,0,0,15.72,66.87c5.06,17.27,9.25,29.42,10.44,35.58,1.32,6.78,1.23,16.61.1,28.19s-3.26,24.94-6,38.87c-5.41,27.87-13.1,58.06-19.43,81.28-3.16,11.61-6,21.48-8,28.44s-3.28,11-3.28,11l-.68,2.23,2.27-.49c.12,0,66.33-14.25,143.14-66.36S-64.15,641.43-21.88,490q6.6-23.64,11.11-47C44.34,159.21-112.25-83.72-112.31-83.85Z" transform="translate(448.84 646.21)"/><path class="cls-7" d="M-85.12,632.44S-43.22,585.28-17,516.1C74,276.48,23.84,174.43,96.93-84.47S281-489.64,281-489.64s-283.95,172.4-399.9,403c0,0,241.76,375.69,33.75,719" transform="translate(448.84 646.21)"/><path class="cls-7" d="M-85.12,632.44l1,.9C-84,633.27-42,586-15.69,516.59,7.17,456.35,21.13,404.78,30.37,357.23,52.53,243.17,47.58,152.42,73.21,20.61c6.25-32.15,14.31-66.74,25-104.71,36.52-129.35,81.12-230.83,116.58-300,17.73-34.57,38.75-60,49.76-77.8,5.5-8.91,9.9-15.66,12.92-20.19,1.5-2.26,2.67-4,3.45-5.1s1.19-1.69,1.19-1.7l4-5.59-5.83,3.64s-75.25,42.34-159.42,114.61S-62-202.8-120.09-87.2l-.35.69.42.66s.62,1,1.78,2.86C-100.78-54.57,37.58,181.82-13.16,442.66A573.77,573.77,0,0,1-86.29,631.73l2.19,1.61-1-.9,1.17.7a576.65,576.65,0,0,0,73.48-190C43.82,163.6-117.67-87.2-117.72-87.33l-1.15.74,1.22.61C-59.81-201,38.66-302,122.67-374.12c42-36.06,86-63.85,113.85-83.7,13.94-9.92,25.25-17.59,33.08-22.78,3.91-2.59,6.95-4.56,9-5.89s3.13-2,3.13-2l-.72-1.16-1.11-.8c-.07.1-111.16,146.49-184.31,405.6C84.87-46.8,76.79-12.13,70.53,20.09,44.85,152.23,49.79,243,27.69,356.71c-9.22,47.4-23.13,98.81-45.94,158.91A418,418,0,0,1-62,599.45c-6.86,10.18-12.9,18.21-17.21,23.69-2.16,2.74-3.9,4.84-5.08,6.25-.6.71-1.06,1.25-1.37,1.6l-.46.54,1,.91,1.17.7Z" transform="translate(448.84 646.21)"/><path class="cls-6" d="M-88.29-30.93c-.11.1-170.62,135.55-216.27,370.31q-3.57,18.38-6.08,37.54c-12.81,98.69-12.71,158.57-11,202.12s4.89,70.68-1.59,104c-3.94,20.27-8.16,40.75-21.85,70.84l-.83,3.29h0a10.8,10.8,0,0,1,3.13-3.64c2.13-1.58,5.36-2.92,10.48-1.94,3.75.73,8.53,2.76,14.46,7,11.47,8.25,15.58,13,19.15,17s6.72,7.47,15.6,12.3c7,3.82,10.3,7.71,11.83,10.86a11.05,11.05,0,0,1,1.1,6.88,5.11,5.11,0,0,1-.15.6l0,.13v0l.47.18-.46-.19h0l.47.18-.46-.19,2.54,1a8.22,8.22,0,0,0,.33-1.24,13.66,13.66,0,0,0-1.32-8.59c-1.82-3.77-5.61-8.06-13-12.07-8.69-4.76-11.29-7.68-14.87-11.71s-8-9.12-19.6-17.45c-6.16-4.42-11.27-6.65-15.52-7.48-6-1.19-10.29.54-12.91,2.62s-1,5.44-1,5.56l-.2.09c13.75-30.22,21.37-53.08,25.36-73.62,6.57-33.82,3.31-61.2,1.65-104.63s-1.77-103.11,11-201.67q2.48-19.08,6.05-37.37c22.71-116.84,76.54-209,124.71-272a679,679,0,0,1,63.38-72c8.31-8.15,15.12-14.33,19.85-18.47,2.36-2.07,4.21-3.63,5.46-4.67s1.89-1.56,1.89-1.56Z" transform="translate(448.84 646.21)"/><path class="cls-7" d="M-188,391.25a68.68,68.68,0,0,0,54.32,80.53,68.68,68.68,0,0,0,80.53-54.32,68.68,68.68,0,0,0-54.32-80.53A68.69,68.69,0,0,0-188,391.25" transform="translate(448.84 646.21)"/><path class="cls-6" d="M-70.57,603.81a205.16,205.16,0,0,1-88.32,2.1A205.77,205.77,0,0,1-317,462.23l-3.06.91A209,209,0,0,0-159.5,609a208.32,208.32,0,0,0,89.69-2.13Z" transform="translate(448.84 646.21)"/><path class="cls-6" d="M-289.53,287.79A205.79,205.79,0,0,1-80.37,202,205.05,205.05,0,0,1-7,231.67L-5.26,229a208.32,208.32,0,0,0-74.5-30.18A209,209,0,0,0-292.17,286Z" transform="translate(448.84 646.21)"/><path class="cls-8" d="M-133.7,474.2a70.2,70.2,0,0,1-55.51-82.3,70.18,70.18,0,0,1,82.29-55.5,70.19,70.19,0,0,1,55.51,82.29A70.2,70.2,0,0,1-133.7,474.2Z" transform="translate(448.84 646.21)"/><path class="cls-7" d="M-133.7,474.2l.32-1.66A68.28,68.28,0,0,1-177.1,443.6a68.29,68.29,0,0,1-10.45-51.37,68.26,68.26,0,0,1,28.94-43.72,68.24,68.24,0,0,1,51.37-10.45A68.31,68.31,0,0,1-63.52,367a68.3,68.3,0,0,1,10.45,51.38A68.24,68.24,0,0,1-82,462.08a68.25,68.25,0,0,1-51.37,10.46l-.32,1.66-.33,1.65A71.88,71.88,0,0,0-49.75,419a71.88,71.88,0,0,0-56.85-84.27,71.87,71.87,0,0,0-84.27,56.84A71.88,71.88,0,0,0-134,475.85Z" transform="translate(448.84 646.21)"/><path class="cls-6" d="M-133.7,474.2l.32-1.66A68.28,68.28,0,0,1-177.1,443.6a68.29,68.29,0,0,1-10.45-51.37,68.26,68.26,0,0,1,28.94-43.72,68.24,68.24,0,0,1,51.37-10.45A68.31,68.31,0,0,1-63.52,367a68.3,68.3,0,0,1,10.45,51.38A68.24,68.24,0,0,1-82,462.08a68.25,68.25,0,0,1-51.37,10.46l-.32,1.66-.33,1.65A71.88,71.88,0,0,0-49.75,419a71.88,71.88,0,0,0-56.85-84.27,71.87,71.87,0,0,0-84.27,56.84A71.88,71.88,0,0,0-134,475.85Z" transform="translate(448.84 646.21)"/><path class="cls-7" d="M-189.63,470.26c4.37-43.49,1.8-47.3-40.15-59.53,43.48,4.37,47.29,1.8,59.53-40.15-4.38,43.48-1.81,47.29,40.15,59.53-43.49-4.38-47.29-1.81-59.53,40.15" transform="translate(448.84 646.21)"/><path class="cls-9" d="M-189.63,470.26l2,.2c1.09-10.89,1.77-19.34,1.48-26.21a36.09,36.09,0,0,0-2.61-13.14,21.82,21.82,0,0,0-5.15-7.27c-3.34-3.15-7.78-5.61-13.55-7.94s-12.92-4.55-21.79-7.14l-.57,2-.21,2c10.9,1.09,19.35,1.77,26.22,1.48a36,36,0,0,0,13.13-2.61,22.11,22.11,0,0,0,7.28-5.15c3.15-3.34,5.6-7.78,7.94-13.55s4.55-12.92,7.13-21.79l-2-.57-2-.21c-1.1,10.9-1.77,19.35-1.48,26.22a36,36,0,0,0,2.6,13.13A22.25,22.25,0,0,0-166,417c3.35,3.15,7.78,5.6,13.55,7.94s12.93,4.55,21.79,7.13l.58-2,.2-2.05c-10.89-1.09-19.34-1.76-26.21-1.47a36.09,36.09,0,0,0-13.14,2.6,22.11,22.11,0,0,0-7.27,5.15c-3.15,3.35-5.61,7.78-7.94,13.55s-4.55,12.93-7.14,21.8l2,.57,2,.2-2-.2,2,.57c3-10.46,5.57-18.43,8.25-24.31a32.11,32.11,0,0,1,6.46-10,18.13,18.13,0,0,1,6.13-3.94c3.56-1.39,8.08-2,14-2s13.31.6,22.46,1.53l.78-4c-10.46-3.05-18.43-5.58-24.31-8.25a32.29,32.29,0,0,1-10-6.46,18.17,18.17,0,0,1-3.94-6.14c-1.39-3.55-2-8.08-2-14s.61-13.32,1.53-22.47l-4-.78c-3.05,10.47-5.58,18.43-8.25,24.32a32.05,32.05,0,0,1-6.46,9.95,17.87,17.87,0,0,1-6.14,3.94c-3.55,1.39-8.08,2-14,2s-13.32-.6-22.47-1.52l-.78,4c10.47,3.05,18.43,5.57,24.32,8.24a31.94,31.94,0,0,1,9.95,6.47,17.83,17.83,0,0,1,3.94,6.13c1.39,3.56,2,8.08,2,14s-.6,13.31-1.52,22.46l4,.78Z" transform="translate(448.84 646.21)"/><path class="cls-7" d="M-79,391.69c1.9-18.95.79-20.61-17.5-25.94,19,1.9,20.61.79,25.94-17.5-1.9,18.95-.78,20.61,17.5,25.94-19-1.9-20.61-.78-25.94,17.5" transform="translate(448.84 646.21)"/><path class="cls-9" d="M-79,391.69l1.36.14A86.83,86.83,0,0,0-77,380.34a16.32,16.32,0,0,0-1.18-5.9,11.93,11.93,0,0,0-6-5.82,74,74,0,0,0-11.91-4.18l-.38,1.31-.14,1.36a87,87,0,0,0,11.5.65,16.31,16.31,0,0,0,5.89-1.18,11.93,11.93,0,0,0,5.82-6,73.88,73.88,0,0,0,4.19-11.91l-1.32-.38-1.36-.14a86.78,86.78,0,0,0-.64,11.5,16.32,16.32,0,0,0,1.17,5.89,11.91,11.91,0,0,0,6,5.82,73.71,73.71,0,0,0,11.9,4.19l.38-1.32.14-1.36a86.56,86.56,0,0,0-11.49-.64,16.12,16.12,0,0,0-5.9,1.17,12,12,0,0,0-5.82,6.05,74.82,74.82,0,0,0-4.18,11.9l1.31.38,1.36.14-1.36-.14,1.31.39a85.52,85.52,0,0,1,3.57-10.54,13.54,13.54,0,0,1,2.72-4.19c1.47-1.42,3.21-2.11,6.11-2.37a73.13,73.13,0,0,1,12.1.57l.52-2.67a83.85,83.85,0,0,1-10.54-3.57,13.54,13.54,0,0,1-4.19-2.72c-1.42-1.46-2.11-3.21-2.37-6.1a73.24,73.24,0,0,1,.57-12.11l-2.67-.51a84.18,84.18,0,0,1-3.57,10.53,13.72,13.72,0,0,1-2.72,4.2c-1.46,1.41-3.21,2.11-6.1,2.36a70.93,70.93,0,0,1-12.1-.57l-.52,2.67a85.86,85.86,0,0,1,10.53,3.57,13.72,13.72,0,0,1,4.2,2.72c1.41,1.46,2.11,3.21,2.36,6.1a71,71,0,0,1-.57,12.11l2.67.52Z" transform="translate(448.84 646.21)"/><path class="cls-10" d="M208.06-151.11s-.89,3.85-2.29,11.06C198.86-104.48,179.28,13.4,190,161.58c4.07,56.22-.19,121.76-13.54,190.41C151.89,478.4,96.54,615.35,5.9,724.3S-210.59,914.19-376.38,928.85l.24,2.72C-209.57,916.86-83,835.44,8,726.05S154.5,479.31,179.15,352.51c13.38-68.87,17.67-134.62,13.58-191.13-10.7-147.83,8.84-265.5,15.73-300.91.7-3.59,1.26-6.34,1.66-8.18s.6-2.78.6-2.78Z" transform="translate(448.84 646.21)"/><g class="cls-11"><rect class="cls-12" x="386.7" y="-512.98" width="315.43" height="314.78" transform="translate(1238.42 892.88) rotate(-79)"/></g><g class="cls-13"><rect class="cls-14" x="-426.9" y="955.12" width="224.61" height="229.84" transform="translate(-856.12 1203.26) rotate(-79)"/></g><g class="cls-15"><rect class="cls-16" x="49.24" y="157.74" width="157.96" height="156.7" transform="translate(320.85 963.11) rotate(-79)"/></g><g class="cls-17"><rect class="cls-18" x="122.96" y="485.6" width="209.63" height="208.63" transform="translate(54.08 1347.15) rotate(-79)"/></g><g class="cls-19"><rect class="cls-20" x="-180.63" y="740.54" width="104.52" height="102.7" transform="translate(-432.38 1160.99) rotate(-79)"/></g><g class="cls-21"><rect class="cls-22" x="227.41" y="-102.34" width="128.13" height="126.54" transform="translate(723.05 900.71) rotate(-79)"/></g></g></g><g class="cls-4"><g class="cls-23"><path class="cls-24" d="M783.2-642.51s46.74,539.69,15,637.45S259.66,829.08,160.82,1109.76,252.7,1382,325,1475.19s585.17-978.27,623.43-1049S920.61-450,783.46-643.32" transform="translate(448.84 646.21)"/></g></g></g></g></svg>