<svg id="agz" xmlns="http://www.w3.org/2000/svg" xmlns:xlink="http://www.w3.org/1999/xlink" viewBox="0 0 463.58 467.82"><defs><style>.cls-1,.cls-8{fill:none;}.cls-2{opacity:0.55;}.cls-3{clip-path:url(#clip-path);}.cls-4{clip-path:url(#clip-path-2);}.cls-5{clip-path:url(#clip-path-3);}.cls-6{clip-path:url(#clip-path-4);}.cls-7{clip-path:url(#clip-path-5);}.cls-8,.cls-9{stroke:#a0bf38;stroke-miterlimit:10;stroke-width:0.72px;}.cls-9{fill:#a0bf38;}</style><clipPath id="clip-path" transform="translate(-621.25 -509.35)"><path class="cls-1" d="M1078.06,833a68.58,68.58,0,0,0-136.92-5.83c-.16,1.92-.25,3.87-.25,5.83V833c-2.15.08-4.28.27-6.38.54a68.58,68.58,0,0,0,6.21,136.51,9.77,9.77,0,0,0,1.08.06h126.42a9.83,9.83,0,0,0,9.84-9.84V833.87c0-.07,0-.13,0-.19C1078.06,833.44,1078.06,833.2,1078.06,833Z"/></clipPath><clipPath id="clip-path-2" transform="translate(-621.25 -509.35)"><path class="cls-1" d="M771.51,833.22c-2-.17-4-.27-6-.27h-.06c-.07-1.94-.23-3.87-.46-5.77a68.58,68.58,0,0,0-136.59,5.6,9.82,9.82,0,0,0-.06,1.09V960.28a9.83,9.83,0,0,0,9.84,9.84H765.47a68.58,68.58,0,0,0,6-136.9Z"/></clipPath><clipPath id="clip-path-3" transform="translate(-621.25 -509.35)"><path class="cls-1" d="M1055.72,714.29c-11.45,9.36-27.72,17.07-49.75,15.77h-.36l-.22,0h-.17a75.57,75.57,0,0,1-11.43-1.55l-.45-.1-.84-.19a71.31,71.31,0,0,1-35.63-19.82,74.86,74.86,0,0,1-17-26c-3.2-7.82-4.61-14.77-4.63-19.1,0,0-52.77-2.41-66.37-53.84l0-.1a74.62,74.62,0,0,1-2.93-19,68.25,68.25,0,0,1,6.74-33,75.13,75.13,0,0,1,34.5-35.76c.73-.43,1.44-.85,2.13-1.24H794.09s.95.4,2.57,1.23a75,75,0,0,1,19.79,14.34c10.23,10,20.33,25.2,21.41,46.74h0c.16,1.94.23,3.9.23,5.88a74.68,74.68,0,0,1-3.41,22.4c-7.1,24-25,41.29-47.86,48.64A74.82,74.82,0,0,1,771.34,663h-.09s-3.09,62.86-66.37,68.88h0a76.09,76.09,0,0,1-8.45.48q-3,0-5.89-.23c-46.37-3-62.24-43.35-62.24-43.35V804.81l.31-.7c.14-.31.32-.7.55-1.18A74.84,74.84,0,0,1,640.28,786c10.87-12.85,29.78-27.29,59.18-25.69q1.47.07,2.91.21a74.45,74.45,0,0,1,18.91,3.92l1.15.4h0c31.4,11.2,48.29,40.32,49.09,62.53l.18,0a74.42,74.42,0,0,1,38.91,14.77c12.36,8.69,23.91,22.39,28.15,43.93a74.84,74.84,0,0,1,1.7,15.87c.74,31.3-16.87,50.21-30,59.91l-.36.27-.4.29q-2.9,2.12-6,3.94l-.71.42-.15.09a56.6,56.6,0,0,1-6.26,3.21h115l-.13-.06c-2.21-.89-28.19-11.95-39.25-42.18a74.51,74.51,0,0,1-3.41-12.47l0-.13v0l0-.19A71.28,71.28,0,0,1,870,883.32a74.84,74.84,0,0,1,22.36-37c1.28-1.19,2.28-2,2.86-2.45l0,0a75.11,75.11,0,0,1,13.53-8.79c7.68-4.21,17-6.12,25.92-7.6a54.56,54.56,0,0,1,1-7.75h0l.06-.34a74.31,74.31,0,0,1,4.88-16.06c3.72-8.8,9.56-18.88,19.66-26.85,14.91-11.78,31.17-17.08,49.05-18.32,0,0,45.76-2.31,67.18,41.85.16.32.32.65.47,1,.07.13.13.27.19.4.29.63.58,1.25.85,1.89a.54.54,0,0,1,0,.11V685.67A75,75,0,0,1,1055.72,714.29Z"/></clipPath><clipPath id="clip-path-4" transform="translate(-621.25 -509.35)"><path class="cls-1" d="M1068.22,520.36H940.89a68.58,68.58,0,0,0-6,136.9c2,.18,4,.27,6,.27H941c.07,2,.23,3.87.46,5.77A68.58,68.58,0,0,0,1078,657.7a9.77,9.77,0,0,0,.06-1.08V530.2A9.84,9.84,0,0,0,1068.22,520.36Z"/></clipPath><clipPath id="clip-path-5" transform="translate(-621.25 -509.35)"><path class="cls-1" d="M765.64,520.42a9.77,9.77,0,0,0-1.08-.06H638.14a9.84,9.84,0,0,0-9.84,9.84V656.62c0,.06,0,.12,0,.18,0,.24,0,.49,0,.73a68.58,68.58,0,0,0,136.92,5.83c.16-1.92.25-3.87.25-5.83v-.06c1.95-.07,3.87-.23,5.77-.46a68.58,68.58,0,0,0-5.6-136.59Z"/></clipPath><image id="image" width="8491" height="8491" xlink:href="../../../../../../elementos%20del%20dise%C3%B1o/web/trabajos/PINTURA%20Y%20DISE%C3%91O/agz%20tatu%20amar.png"/></defs><g id="agz-2" data-name="agz" class="cls-2"><path class="cls-1" d="M993.79,728.47l-.45-.1Z" transform="translate(-621.25 -509.35)"/><path class="cls-1" d="M837.86,582.67c-1.08-21.54-11.18-36.74-21.41-46.74a74.54,74.54,0,0,1,21.41,46.75Z" transform="translate(-621.25 -509.35)"/><path class="cls-1" d="M810.11,962.17l-.4.29Z" transform="translate(-621.25 -509.35)"/><path class="cls-1" d="M908.78,835.1a74.62,74.62,0,0,1,25.92-7.6,73.24,73.24,0,0,1,1-7.75,54.56,54.56,0,0,0-1,7.75C926.07,827,916.46,830.89,908.78,835.1Z" transform="translate(-621.25 -509.35)"/><path class="cls-1" d="M1009.32,758.17A74.82,74.82,0,0,1,1076.5,800C1055.08,755.86,1009.32,758.17,1009.32,758.17Z" transform="translate(-621.25 -509.35)"/><path class="cls-1" d="M940.61,803.34a75,75,0,0,1,19.66-26.85A70.54,70.54,0,0,0,940.61,803.34Z" transform="translate(-621.25 -509.35)"/><path class="cls-1" d="M838.77,886.12c-4.24-21.54-15.79-35.24-28.15-43.93A74.85,74.85,0,0,1,838.77,886.12Z" transform="translate(-621.25 -509.35)"/><path class="cls-1" d="M810.47,961.9c13.13-9.7,30.74-28.61,30-59.91A74.71,74.71,0,0,1,810.47,961.9Z" transform="translate(-621.25 -509.35)"/><path class="cls-1" d="M1005.39,730l.22,0-.39,0Z" transform="translate(-621.25 -509.35)"/><path class="cls-1" d="M704.88,731.84h0c63.28-6,66.37-68.88,66.37-68.88h.09l-.29,0A74.84,74.84,0,0,1,704.88,731.84Z" transform="translate(-621.25 -509.35)"/><path class="cls-1" d="M628.61,804.11c.18-.4.36-.79.55-1.18C628.93,803.41,628.75,803.8,628.61,804.11Z" transform="translate(-621.25 -509.35)"/><path class="cls-1" d="M786.82,659.6c22.83-7.35,40.76-24.6,47.86-48.64A75,75,0,0,1,786.82,659.6Z" transform="translate(-621.25 -509.35)"/><path class="cls-1" d="M992.5,728.18a74.73,74.73,0,0,1-35.63-19.82A71.31,71.31,0,0,0,992.5,728.18Z" transform="translate(-621.25 -509.35)"/><path class="cls-1" d="M1006,730.06c22,1.3,38.3-6.41,49.75-15.77a74.49,74.49,0,0,1-46.07,15.87C1008.42,730.16,1007.19,730.12,1006,730.06Z" transform="translate(-621.25 -509.35)"/><path class="cls-1" d="M868.85,609.37l0,.1c13.6,51.43,66.37,53.84,66.37,53.84,0,4.33,1.43,11.28,4.63,19.1a74.71,74.71,0,0,1-4.65-19.3A74.87,74.87,0,0,1,868.85,609.37Z" transform="translate(-621.25 -509.35)"/><path class="cls-1" d="M872.66,557.36a68.25,68.25,0,0,0-6.74,33q0-1,0-1.92A74.59,74.59,0,0,1,872.66,557.36Z" transform="translate(-621.25 -509.35)"/><path class="cls-1" d="M721.28,764.46l1.15.4Z" transform="translate(-621.25 -509.35)"/><path class="cls-1" d="M803.74,966.4l-.71.42Z" transform="translate(-621.25 -509.35)"/><path class="cls-1" d="M935.73,819.4l-.06.34Z" transform="translate(-621.25 -509.35)"/><path class="cls-1" d="M911.53,970.06a75.06,75.06,0,0,1-39.25-42.18C883.34,958.11,909.32,969.17,911.53,970.06Z" transform="translate(-621.25 -509.35)"/><path class="cls-1" d="M1077.16,801.4c-.06-.13-.12-.27-.19-.4C1077,801.13,1077.1,801.27,1077.16,801.4Z" transform="translate(-621.25 -509.35)"/><path class="cls-1" d="M868.8,915A75.68,75.68,0,0,1,870,883.32,71.28,71.28,0,0,0,868.8,915Z" transform="translate(-621.25 -509.35)"/><path class="cls-1" d="M696.71,760.33c1.9,0,3.79.07,5.66.21q-1.44-.13-2.91-.21c-29.4-1.6-48.31,12.84-59.18,25.69A74.65,74.65,0,0,1,696.71,760.33Z" transform="translate(-621.25 -509.35)"/><path class="cls-1" d="M771.13,827.37l.58,0-.18,0c-.8-22.21-17.69-51.33-49.09-62.53A74.88,74.88,0,0,1,771.13,827.37Z" transform="translate(-621.25 -509.35)"/><path class="cls-1" d="M892.35,846.37c.95-.85,1.91-1.67,2.9-2.48l0,0C894.63,844.36,893.63,845.18,892.35,846.37Z" transform="translate(-621.25 -509.35)"/><path class="cls-1" d="M868.87,915.41a1.16,1.16,0,0,0,0-.18v0Z" transform="translate(-621.25 -509.35)"/><g class="cls-3"><use transform="translate(0.36) scale(0.05)" xlink:href="#image"/></g><g class="cls-4"><use transform="translate(0.36) scale(0.05)" xlink:href="#image"/></g><g class="cls-5"><use transform="translate(0.36) scale(0.05)" xlink:href="#image"/></g><g class="cls-6"><use transform="translate(0.36) scale(0.05)" xlink:href="#image"/></g><g class="cls-7"><use transform="translate(0.36) scale(0.05)" xlink:href="#image"/></g><g class="cls-6"><use transform="translate(0.36) scale(0.05)" xlink:href="#image"/></g><path class="cls-8" d="M1078,803.29c-.28-.64-.56-1.27-.85-1.89-.06-.13-.12-.27-.19-.4-.15-.33-.31-.65-.47-1a74.82,74.82,0,0,0-67.18-41.85c-22.4,1.86-38.08,9.13-49.05,18.32a75,75,0,0,0-19.66,26.85,80,80,0,0,0-4.88,16.06l-.06.34h0a73.24,73.24,0,0,0-1,7.75q3.18-.33,6.44-.38A68.58,68.58,0,0,1,1078.06,833c0,.25,0,.49,0,.73,0,.06,0,.12,0,.19v28.7a75,75,0,0,0,0-59.28Z" transform="translate(-621.25 -509.35)"/><path class="cls-8" d="M940.72,970.06a68.58,68.58,0,0,1-6.21-136.51c0-.19,0-.37,0-.56,0-1.85.07-3.68.2-5.49a74.62,74.62,0,0,0-25.92,7.6,113.47,113.47,0,0,0-13.53,8.79c-1,.81-2,1.63-2.9,2.48-5.77,5.38-17.34,18.24-22.36,37A75.68,75.68,0,0,0,868.8,915l0,.19a1.16,1.16,0,0,1,0,.18,78.65,78.65,0,0,0,3.41,12.47,75.06,75.06,0,0,0,39.25,42.18l.15.06h0a74.95,74.95,0,0,0,61.64,0H941.8A9.77,9.77,0,0,1,940.72,970.06Z" transform="translate(-621.25 -509.35)"/><path class="cls-8" d="M934.51,833.55c2.1-.27,4.23-.46,6.38-.54V833c0-2,.09-3.91.25-5.83q-3.25,0-6.44.38c-.13,1.81-.2,3.64-.2,5.49C934.5,833.18,934.5,833.36,934.51,833.55Z" transform="translate(-621.25 -509.35)"/><path class="cls-8" d="M704.88,731.84A74.84,74.84,0,0,0,771.05,663c-1.92.2-3.87.33-5.83.38a68.58,68.58,0,0,1-136.92-5.83c0-.24,0-.49,0-.73,0-.06,0-.12,0-.18V626.53a74.86,74.86,0,0,0,62.24,105.56A90.32,90.32,0,0,0,704.88,731.84Z" transform="translate(-621.25 -509.35)"/><path class="cls-8" d="M765.64,520.42A68.58,68.58,0,0,1,771.24,657c0,.16,0,.32,0,.48,0,1.85-.07,3.68-.2,5.49l.29,0a81.93,81.93,0,0,0,15.48-3.35A75,75,0,0,0,834.68,611a84.36,84.36,0,0,0,3.18-28.28,74.54,74.54,0,0,0-21.41-46.75,83.51,83.51,0,0,0-19.79-14.34,75,75,0,0,0-64.21-1.23h32.11A9.77,9.77,0,0,1,765.64,520.42Z" transform="translate(-621.25 -509.35)"/><path class="cls-8" d="M771.24,657c-1.9.23-3.82.39-5.77.46v.06c0,2-.09,3.91-.25,5.83,2-.05,3.91-.18,5.83-.38.13-1.81.2-3.64.2-5.49C771.25,657.33,771.25,657.17,771.24,657Z" transform="translate(-621.25 -509.35)"/><path class="cls-8" d="M872.66,557.36a74.59,74.59,0,0,0-6.77,31.13q0,1,0,1.92a87.87,87.87,0,0,0,2.93,19,74.87,74.87,0,0,0,66.38,53.74q-.3-2.9-.38-5.85a68.58,68.58,0,0,1,6-136.9h30.79a75,75,0,0,0-64.52,1.24C895.84,528.38,881.13,539.94,872.66,557.36Z" transform="translate(-621.25 -509.35)"/><path class="cls-8" d="M1078,657.7a68.58,68.58,0,0,1-136.59,5.6h-.69c-1.85,0-3.68-.07-5.49-.2a74.71,74.71,0,0,0,4.65,19.3,81.32,81.32,0,0,0,17,26,74.73,74.73,0,0,0,35.63,19.82l.84.19.45.1a83.83,83.83,0,0,0,11.43,1.55l.39,0h.36c1.22.06,2.45.1,3.68.1a74.49,74.49,0,0,0,46.07-15.87,82.63,82.63,0,0,0,22.34-28.79v.17a75,75,0,0,0,0-60.68v31.63A9.77,9.77,0,0,1,1078,657.7Z" transform="translate(-621.25 -509.35)"/><path class="cls-8" d="M941.41,663.3c-.23-1.9-.39-3.82-.46-5.77h-.06c-2,0-4-.09-6-.27q.07,3,.38,5.85c1.81.13,3.64.2,5.49.2Z" transform="translate(-621.25 -509.35)"/><path class="cls-8" d="M803.74,966.4c1.78-1.07,3.8-2.37,6-3.94l.4-.29.36-.27a74.71,74.71,0,0,0,30-59.91,93.9,93.9,0,0,0-1.7-15.87,74.85,74.85,0,0,0-28.15-43.93,88.57,88.57,0,0,0-38.91-14.77l-.58,0q.3,2.89.38,5.85a68.58,68.58,0,0,1-6,136.9H734.68a74.91,74.91,0,0,0,68.2-3.21l.15-.09Z" transform="translate(-621.25 -509.35)"/><path class="cls-8" d="M628.36,832.78A68.58,68.58,0,0,1,765,827.18h.69c1.85,0,3.68.07,5.49.2a74.88,74.88,0,0,0-48.69-62.5h0l-1.15-.4a80.64,80.64,0,0,0-18.91-3.92c-1.87-.14-3.76-.21-5.66-.21A74.65,74.65,0,0,0,640.28,786a82.06,82.06,0,0,0-11.12,16.91c-.19.39-.37.78-.55,1.18s-.31.72-.31.72v0a75,75,0,0,0,0,60.68V833.87A9.82,9.82,0,0,1,628.36,832.78Z" transform="translate(-621.25 -509.35)"/><path class="cls-8" d="M765,827.18c.23,1.9.39,3.83.46,5.77h.06c2,0,4,.1,6,.27q-.07-3-.38-5.85c-1.81-.13-3.64-.2-5.49-.2Z" transform="translate(-621.25 -509.35)"/><path class="cls-9" d="M935.67,819.74" transform="translate(-621.25 -509.35)"/><path class="cls-9" d="M1078,803.29c-.27-.64-.56-1.26-.85-1.89C1077.45,802,1077.73,802.65,1078,803.29Z" transform="translate(-621.25 -509.35)"/><path class="cls-9" d="M1077,801c-.15-.33-.31-.66-.47-1C1076.66,800.35,1076.82,800.67,1077,801Z" transform="translate(-621.25 -509.35)"/><path class="cls-9" d="M911.53,970.06l.13.06h0Z" transform="translate(-621.25 -509.35)"/><path class="cls-9" d="M868.8,915l0,.19Z" transform="translate(-621.25 -509.35)"/><path class="cls-9" d="M704.88,731.84a90.32,90.32,0,0,1-14.34.25q2.93.23,5.89.23A76.09,76.09,0,0,0,704.88,731.84Z" transform="translate(-621.25 -509.35)"/><path class="cls-9" d="M796.66,521.59a83.51,83.51,0,0,1,19.79,14.34A75,75,0,0,0,796.66,521.59Z" transform="translate(-621.25 -509.35)"/><path class="cls-9" d="M786.82,659.6A81.93,81.93,0,0,1,771.34,663,74.82,74.82,0,0,0,786.82,659.6Z" transform="translate(-621.25 -509.35)"/><path class="cls-9" d="M834.68,611a74.68,74.68,0,0,0,3.41-22.4c0-2-.07-3.94-.23-5.88A84.36,84.36,0,0,1,834.68,611Z" transform="translate(-621.25 -509.35)"/><path class="cls-9" d="M868.85,609.37a87.87,87.87,0,0,1-2.93-19A74.62,74.62,0,0,0,868.85,609.37Z" transform="translate(-621.25 -509.35)"/><path class="cls-9" d="M872.66,557.36c8.47-17.42,23.18-29,34.5-35.76A75.13,75.13,0,0,0,872.66,557.36Z" transform="translate(-621.25 -509.35)"/><path class="cls-9" d="M1055.72,714.29a75,75,0,0,0,22.34-28.62v-.17A82.63,82.63,0,0,1,1055.72,714.29Z" transform="translate(-621.25 -509.35)"/><path class="cls-9" d="M956.87,708.36a81.32,81.32,0,0,1-17-26A74.86,74.86,0,0,0,956.87,708.36Z" transform="translate(-621.25 -509.35)"/><path class="cls-9" d="M1006,730.06" transform="translate(-621.25 -509.35)"/><path class="cls-9" d="M810.47,961.9l-.36.27Z" transform="translate(-621.25 -509.35)"/><path class="cls-9" d="M838.77,886.12a93.9,93.9,0,0,1,1.7,15.87A74.84,74.84,0,0,0,838.77,886.12Z" transform="translate(-621.25 -509.35)"/><path class="cls-9" d="M809.71,962.46c-2.17,1.57-4.19,2.87-6,3.94Q806.82,964.57,809.71,962.46Z" transform="translate(-621.25 -509.35)"/><path class="cls-9" d="M802.88,966.91l.15-.09Z" transform="translate(-621.25 -509.35)"/><path class="cls-9" d="M722.43,764.86h0Z" transform="translate(-621.25 -509.35)"/><path class="cls-9" d="M628.61,804.11l-.31.7v0S628.4,804.57,628.61,804.11Z" transform="translate(-621.25 -509.35)"/><path class="cls-9" d="M629.16,802.93A82.06,82.06,0,0,1,640.28,786,74.84,74.84,0,0,0,629.16,802.93Z" transform="translate(-621.25 -509.35)"/><path class="cls-9" d="M702.37,760.54a80.64,80.64,0,0,1,18.91,3.92A74.45,74.45,0,0,0,702.37,760.54Z" transform="translate(-621.25 -509.35)"/></g></svg>