<svg id="diseño_cor" data-name="diseño cor" xmlns="http://www.w3.org/2000/svg" xmlns:xlink="http://www.w3.org/1999/xlink" viewBox="0 0 561.2 631.36"><defs><style>.cls-1{fill:none;}.cls-2{clip-path:url(#clip-path);}.cls-3{clip-path:url(#clip-path-2);}.cls-4{clip-path:url(#clip-path-3);}.cls-5{clip-path:url(#clip-path-4);}</style><clipPath id="clip-path" transform="translate(-339.93 -432.25)"><path class="cls-1" d="M355.4,886.65v168.24c0,2.55,2.79,4.63,6.23,4.63H568.39c5.41,0,8.25-4.79,4.59-7.76L366.22,883.52C362.39,880.4,355.4,882.42,355.4,886.65Z"/></clipPath><clipPath id="clip-path-2" transform="translate(-339.93 -432.25)"><path class="cls-1" d="M358.78,866.59l232.76,189.79a15.26,15.26,0,0,0,9.56,3.14h138c7.14,0,12.93-4.31,12.93-9.63V852.07c0-12.41-13.51-22.46-30.18-22.46h0c-16.67,0-30.18,10-30.18,22.46v48.12c0,12.4-13.51,22.45-30.17,22.45h0c-16.67,0-30.18-10-30.18-22.45L632,749.05c0-17.13-18.67-31-41.7-31h0c-15.24,0-29.27,6.19-36.58,16.14,0,0-14.17,17.82-33.29,19.34-20.2,1.6-32.82-7.9-36.6-17.57,0-.11-26.4-85.44-26.4-85.44-7.18-23.23-22.84-38-51-38h0c-28.18,0-51,17-51,38V860.1A8.47,8.47,0,0,0,358.78,866.59Z"/></clipPath><clipPath id="clip-path-3" transform="translate(-339.93 -432.25)"><path class="cls-1" d="M380.31,602.78h0c4,0,14.11-1.54,26.18-1.56,26.94-.06,50.17,14.1,56.11,33.65,8.55,28.13,25.91,82.09,26.15,82.82h0c1.67,5,5.46,14.89,9.89,18.31,11.08,8.53,26,7.43,38.46-.23,2.37-1.46,8.85-6.82,10.38-8.8,0,0,14.86-19,41-20.45,16.74-.93,32.52,6,40.5,17l3,4.15-.68-233.59c0-5.91-6.44-10.7-14.37-10.7H369.77c-7.93,0-14.37,4.79-14.37,10.7v90.14C355.4,594.49,366.56,602.78,380.31,602.78Z"/></clipPath><clipPath id="clip-path-4" transform="translate(-339.93 -432.25)"><path class="cls-1" d="M638.84,898.57l-1.4-404.85c0-5.67,6.18-10.27,13.83-10.27l86.92,0c7.64,0,13.84,4.59,13.84,10.25V835.38s-8.84-12.49-31.62-12.66c-24.07-.17-35,14.55-35,26.26l-.28,49.73c-.13,9.42-10.48,17-23.2,17h0C649.21,915.68,638.86,908,638.84,898.57Z"/></clipPath><image id="image" width="960" height="1080" xlink:href="../../../../../../elementos%20del%20dise%C3%B1o/web/trabajos/PINTURA%20Y%20DISE%C3%91O/detalle%201.2.png"/></defs><g class="cls-2"><use transform="scale(0.58)" xlink:href="#image"/></g><g class="cls-3"><use transform="scale(0.58)" xlink:href="#image"/></g><g class="cls-4"><use transform="scale(0.58)" xlink:href="#image"/></g><g class="cls-5"><use transform="scale(0.58)" xlink:href="#image"/></g></svg>