<svg id="diseño_cor" data-name="diseño cor" xmlns="http://www.w3.org/2000/svg" xmlns:xlink="http://www.w3.org/1999/xlink" viewBox="0 0 579 682.5"><defs><style>.cls-1{fill:none;}.cls-2{clip-path:url(#clip-path);}.cls-3{clip-path:url(#clip-path-2);}.cls-4{clip-path:url(#clip-path-3);}.cls-5{clip-path:url(#clip-path-4);}.cls-6{clip-path:url(#clip-path-5);}.cls-7{clip-path:url(#clip-path-6);}.cls-8{clip-path:url(#clip-path-7);}.cls-9{clip-path:url(#clip-path-8);}</style><clipPath id="clip-path" transform="translate(-581.56 -441.79)"><path class="cls-1" d="M798.39,664.34H610.31c-11.71,0-21.21-10.3-21.21-23V472.71c0-12.71,9.5-23,21.21-23H904.63c11.71,0,23.28,10.7,23.28,23.4v16.7C927.91,625.43,913.16,664.34,798.39,664.34Z"/></clipPath><clipPath id="clip-path-2" transform="translate(-581.56 -441.79)"><circle class="cls-1" cx="756.78" cy="854.44" r="171.12"/></clipPath><clipPath id="clip-path-3" transform="translate(-581.56 -441.79)"><path class="cls-1" d="M593.53,963.32v135.49c0,9.58,7.48,17.34,16.71,17.34h371c9.23,0,16.72-7.76,16.72-17.34V979.33c0-9.58-7.49-17.35-16.72-17.35H910.69c-5.4,0-9.65,3.44-13.6,7.25-9.34,9-18.27,22.77-41.4,36.43-121.87,72-216.91-8-250.74-47.42C601,953.64,593.53,957.16,593.53,963.32Z"/></clipPath><clipPath id="clip-path-4" transform="translate(-581.56 -441.79)"><ellipse class="cls-1" cx="980.71" cy="542.32" rx="31.33" ry="92.62"/></clipPath><clipPath id="clip-path-5" transform="translate(-581.56 -441.79)"><ellipse class="cls-1" cx="1048.05" cy="559.63" rx="31.33" ry="92.62"/></clipPath><clipPath id="clip-path-6" transform="translate(-581.56 -441.79)"><path class="cls-1" d="M950.67,931.61s-3.52-43-3.13-68.26c2.09-138,3.56-185.67,180-175.73,13.14.74,19.2,9.55,19.2,20.4v391a17.05,17.05,0,0,1-17,17.1H1027a17.05,17.05,0,0,1-17-17.11V967.78a17.07,17.07,0,0,0-16.83-17.12l-25.65-1.94A17.06,17.06,0,0,1,950.67,931.61Z"/></clipPath><clipPath id="clip-path-7" transform="translate(-581.56 -441.79)"><ellipse class="cls-1" cx="1115.38" cy="576.94" rx="31.33" ry="92.62"/></clipPath><clipPath id="clip-path-8" transform="translate(-581.56 -441.79)"><path class="cls-1" d="M938.4,450.34s.32,99.79,4.61,125.91c0,0,4.28,41.54,18.62,61.89s40.26,33.4,113.5,35.65,88.49,1.74,88.49,1.74l-8.44.16c-25.06.2-95.78,1.24-117.13,4.74,0,0-41.55,4.29-61.89,18.63s-33.4,40.26-35.65,113.49-2.24,86.57-2.24,86.57l0,3.34-.16-.15s-.32-99.78-4.6-125.91c0,0-4.29-41.54-18.63-61.88s-40.26-33.41-113.49-35.65-88.49-1.75-88.49-1.75l.29,0s99.78-.32,125.91-4.6c0,0,41.54-4.28,61.88-18.63s33.41-40.26,35.66-113.49,1.8-88.5,1.8-88.5Z"/></clipPath><image id="image" width="1600" height="1886" xlink:href="../../../../../../elementos%20del%20dise%C3%B1o/web/trabajos/PINTURA%20Y%20DISE%C3%91O/png%20final.png"/></defs><g id="Capa_18" data-name="Capa 18"><g class="cls-2"><use transform="translate(0 0) scale(0.36)" xlink:href="#image"/></g><g class="cls-3"><use transform="translate(0 0) scale(0.36)" xlink:href="#image"/></g><g class="cls-4"><use transform="translate(0 0) scale(0.36)" xlink:href="#image"/></g><g class="cls-5"><use transform="translate(7.16) scale(0.36)" xlink:href="#image"/></g><g class="cls-6"><use transform="translate(7.16 0) scale(0.36)" xlink:href="#image"/></g><g class="cls-7"><use transform="translate(0 0) scale(0.36)" xlink:href="#image"/></g><g class="cls-8"><use transform="translate(7.16) scale(0.36)" xlink:href="#image"/></g><g class="cls-9"><use transform="translate(0 0) scale(0.36)" xlink:href="#image"/></g></g></svg>