<svg id="diseño_cor" data-name="diseño cor" xmlns="http://www.w3.org/2000/svg" xmlns:xlink="http://www.w3.org/1999/xlink" viewBox="0 0 1035.69 582.58"><defs><style>.cls-1{fill:none;}.cls-2{clip-path:url(#clip-path);}.cls-3{clip-path:url(#clip-path-2);}.cls-4{clip-path:url(#clip-path-3);}.cls-5{clip-path:url(#clip-path-4);}.cls-6{clip-path:url(#clip-path-5);}.cls-7{clip-path:url(#clip-path-6);}.cls-8{clip-path:url(#clip-path-7);}.cls-9{clip-path:url(#clip-path-8);}</style><clipPath id="clip-path" transform="translate(-367.72 -554.69)"><path class="cls-1" d="M1162,673.48c0-48.25-38.27-87.37-85.48-87.37-31.6,0-59.19,17.52-74,43.57-14.79-26-42.38-43.57-74-43.57-47.21,0-85.49,39.12-85.49,87.37,0,.3,0,.61,0,.91-1.46,32.17,16.72,75.8,50.48,114.17,29.06,33,63.14,54.74,92.12,61.37a66.35,66.35,0,0,0,33.43,0c29-6.63,63.06-28.34,92.12-61.37,31.86-36.21,49.84-77.11,50.54-108.64Q1162,676.72,1162,673.48Z"/></clipPath><clipPath id="clip-path-2" transform="translate(-367.72 -554.69)"><path class="cls-1" d="M688.85,973.78c0,48.25,38.27,87.36,85.49,87.36,31.59,0,59.18-17.52,74-43.57,14.8,26,42.39,43.57,74,43.57,47.22,0,85.49-39.11,85.49-87.36,0-.31,0-.61,0-.92,1.45-32.16-16.73-75.8-50.48-114.17-29.06-33-63.14-54.73-92.13-61.37a66.35,66.35,0,0,0-33.43,0c-29,6.64-63.06,28.35-92.12,61.37-31.86,36.22-49.84,77.12-50.54,108.64Q688.85,970.53,688.85,973.78Z"/></clipPath><clipPath id="clip-path-3" transform="translate(-367.72 -554.69)"><ellipse class="cls-1" cx="1059.96" cy="901.79" rx="57.49" ry="55.82"/></clipPath><clipPath id="clip-path-4" transform="translate(-367.72 -554.69)"><ellipse class="cls-1" cx="1125.98" cy="831.62" rx="30.99" ry="30.09"/></clipPath><clipPath id="clip-path-5" transform="translate(-367.72 -554.69)"><ellipse class="cls-1" cx="1142.39" cy="896.42" rx="10.12" ry="9.83"/></clipPath><clipPath id="clip-path-6" transform="translate(-367.72 -554.69)"><ellipse class="cls-1" cx="1117.45" cy="1000.36" rx="44.03" ry="42.75"/></clipPath><clipPath id="clip-path-7" transform="translate(-367.72 -554.69)"><ellipse class="cls-1" cx="1051" cy="985.1" rx="15.72" ry="15.26"/></clipPath><clipPath id="clip-path-8" transform="translate(-367.72 -554.69)"><path class="cls-1" d="M838,650a41.35,41.35,0,0,0-5.26-31.26,40.7,40.7,0,0,0-21.6-16.94C782.85,592,696,621.4,723.57,687.46S702,759.41,693.92,790.81s31.35,61.23,86.59,22.64c0,0,33-21.62,58.69-26.75,23.93-4.77,22.92-27.72,15.06-42.33C843.2,723.8,827.77,695.46,838,650Z"/></clipPath><image id="image" width="5760" height="3240" xlink:href="../../../../../../elementos%20del%20dise%C3%B1o/web/trabajos/PINTURA%20Y%20DISE%C3%91O/m%C3%A1s%20rosa.png"/></defs><g class="cls-2"><use transform="scale(0.18)" xlink:href="#image"/></g><g class="cls-3"><use transform="scale(0.18)" xlink:href="#image"/></g><g class="cls-4"><use transform="scale(0.18)" xlink:href="#image"/></g><g class="cls-5"><use transform="scale(0.18)" xlink:href="#image"/></g><g class="cls-6"><use transform="scale(0.18)" xlink:href="#image"/></g><g class="cls-7"><use transform="scale(0.18)" xlink:href="#image"/></g><g class="cls-8"><use transform="scale(0.18)" xlink:href="#image"/></g><g class="cls-9"><use transform="scale(0.18)" xlink:href="#image"/></g></svg>